<?xml version="1.0" encoding="UTF-8"?>
<svg id="Layer_1" xmlns="http://www.w3.org/2000/svg" version="1.1" viewBox="0 0 833 210.3">
  <!-- Generator: Adobe Illustrator 30.2.1, SVG Export Plug-In . SVG Version: 2.1.1 Build 1)  -->
  <defs>
    <style>
      .st0 {
        fill: #f2e9cc;
      }

      .st1 {
        fill: #fff;
      }
    </style>
  </defs>
  <path class="st0" d="M32.12,122.97c.37.03.73.09,1.09.09,6.76-.04,13.53-.13,20.29-.09,2.73.02,5.08-.85,7.24-2.41,2.21-1.6,3.88-3.66,5.06-6.11.3-.62.63-1.22,1.17-1.75-.6,6.11-1.2,12.22-1.81,18.44-.48.05-.85.14-1.22.12-13.21-.55-26.42-.48-39.62-.14-.94.02-1.88-.04-2.81-.16-.63-.08-.91-.78-.53-1.25.49-.61,1.02-1.2,1.61-1.71,1.78-1.54,3.61-3.04,5.42-4.55,4.04-3.38,8.05-6.81,11.72-10.59,1.53-1.58,3.03-3.2,4.4-4.92,5.47-6.88,8.19-14.78,8.45-23.54.1-3.39-.02-6.77-.97-10.05-.43-1.5-1-2.99-1.7-4.38-1.98-3.9-5.19-6.01-9.58-6.22-4.34-.2-8.07,1.04-10.77,4.66-.81,1.08-1.41,2.27-1.51,3.65-.08,1.15.34,1.79,1.46,2.09.6.16,1.25.11,1.86.25,1.14.26,2.32.45,3.39.91,1.64.7,2.54,2.08,2.73,3.85.09.85.09,1.73-.02,2.58-.26,2.06-1.55,3.46-3.57,3.88-1.47.3-2.99.33-4.45-.07-2.72-.75-4.57-2.51-5.2-5.26-1.11-4.82-.05-9.21,3.07-13.05,1.72-2.12,3.91-3.65,6.45-4.61,5.01-1.9,10.16-2.22,15.26-.61,7.4,2.34,11.79,7.62,13.4,15.09,1.44,6.68.4,13.13-2.56,19.27-1.38,2.85-3.15,5.44-5.2,7.84-3.18,3.72-6.81,6.98-10.71,9.92-3.2,2.41-6.52,4.67-9.79,6.98-.7.5-1.43.95-2.15,1.43.04.15.08.29.12.44h0Z"/>
  <path class="st0" d="M102.64,94.17c-.12-2.73-.19-6.61-.51-10.48-.4-4.9-1.18-9.74-2.78-14.41-.46-1.34-1.05-2.66-1.78-3.86-3.02-5-10.01-5.12-13.42-1.04-.9,1.08-1.73,2.29-2.31,3.57-.8,1.79-1.46,3.68-1.96,5.58-1.22,4.61-1.74,9.34-1.86,14.09-.13,5.06-.13,10.13.01,15.2.14,4.83.71,9.63,1.86,14.34.6,2.47,1.39,4.87,2.62,7.11.89,1.61,1.98,3.06,3.48,4.16,3.88,2.84,8.52,2.12,11.19-1.87.91-1.36,1.59-2.92,2.17-4.46,1-2.67,1.5-5.49,1.94-8.3.96-6.12,1.09-12.29,1.35-19.61h0ZM113.35,96.77c.07,7.14-1.18,14.03-3.99,20.61-1.31,3.08-3.02,5.92-5.22,8.45-3.88,4.46-8.81,6.26-14.63,5.88-4.64-.3-8.54-2.19-11.84-5.4-3.35-3.26-5.67-7.19-7.38-11.51-1.73-4.38-2.64-8.95-3.02-13.63-.57-6.92-.22-13.77,1.66-20.49,1.51-5.43,4.05-10.3,7.87-14.47,2.64-2.88,5.79-4.94,9.67-5.67,7.11-1.35,13.19.44,17.92,6.08,2.41,2.88,4.12,6.18,5.49,9.67,1.92,4.91,2.89,10.03,3.27,15.27.13,1.74.14,3.48.2,5.22h0Z"/>
  <path class="st0" d="M124.72,122.97c.37.03.73.09,1.09.09,6.76-.04,13.53-.13,20.29-.09,2.73.02,5.08-.85,7.24-2.41,2.21-1.6,3.88-3.66,5.06-6.11.3-.62.63-1.22,1.17-1.75-.6,6.11-1.2,12.22-1.81,18.44-.48.05-.85.14-1.22.12-13.21-.55-26.42-.48-39.62-.14-.94.02-1.88-.04-2.81-.16-.63-.08-.91-.78-.53-1.25.49-.61,1.02-1.2,1.61-1.71,1.78-1.54,3.61-3.04,5.42-4.55,4.04-3.38,8.05-6.81,11.72-10.59,1.53-1.58,3.03-3.2,4.4-4.92,5.47-6.88,8.19-14.78,8.45-23.54.1-3.39-.02-6.77-.97-10.05-.43-1.5-1-2.99-1.7-4.38-1.98-3.9-5.19-6.01-9.58-6.22-4.34-.2-8.07,1.04-10.77,4.66-.81,1.08-1.41,2.27-1.51,3.65-.08,1.15.34,1.79,1.46,2.09.6.16,1.25.11,1.86.25,1.14.26,2.32.45,3.39.91,1.64.7,2.54,2.08,2.73,3.85.09.85.09,1.73-.02,2.58-.26,2.06-1.55,3.46-3.57,3.88-1.47.3-2.99.33-4.45-.07-2.72-.75-4.57-2.51-5.2-5.26-1.11-4.82-.05-9.21,3.07-13.05,1.72-2.12,3.91-3.65,6.45-4.61,5.01-1.9,10.16-2.22,15.26-.61,7.4,2.34,11.79,7.62,13.4,15.09,1.44,6.68.4,13.13-2.56,19.27-1.38,2.85-3.15,5.44-5.2,7.84-3.18,3.72-6.81,6.98-10.71,9.92-3.2,2.41-6.52,4.67-9.79,6.98-.7.5-1.43.95-2.15,1.43.04.15.08.29.12.44h0Z"/>
  <path class="st0" d="M191.74,108.74c-.11-1.59-.18-3.9-.46-6.18-.32-2.6-1.03-5.1-2.33-7.43-3.32-5.96-13.11-6.49-16.55.22-.85,1.66-1.52,3.37-1.82,5.19-1,6.07-.7,12.09.83,18.05.6,2.32,1.48,4.52,2.71,6.58,1.1,1.85,2.62,3.21,4.72,3.81,3.71,1.06,7.42-.18,9.57-3.67.94-1.52,1.55-3.17,2-4.88.95-3.6,1.09-7.28,1.31-11.68h0ZM193.41,61.42c-.65.2-1.29.4-1.94.6-2.51.76-4.91,1.8-7.14,3.18-3.06,1.9-5.52,4.37-7.51,7.37-2.98,4.5-4.78,9.45-5.73,14.72-.26,1.44-.41,2.89-.59,4.34-.03.27.05.56.11,1.1.59-.42,1.02-.7,1.43-1.01,5.25-3.95,11.05-4.6,17.04-2.31,7.78,2.98,12.05,8.75,12.51,17.17.26,4.78-.48,9.35-2.79,13.6-1.53,2.8-3.49,5.25-6.01,7.23-3.48,2.74-7.44,3.87-11.85,3.61-6.07-.35-10.85-3.05-14.58-7.78-3.12-3.96-5-8.49-5.81-13.41-1.56-9.46-.74-18.71,3.1-27.58,2.1-4.85,4.92-9.23,8.83-12.83,5.59-5.15,12.24-7.83,19.78-8.41.37-.03.75,0,1.12,0,.01.13.02.26.04.39h0Z"/>
  <path class="st1" d="M256.24,61.4c6.18,0,12.37,0,18.55,0,.2,0,.4.12.65.2-.06.27-.05.51-.15.7-1.31,2.44-1.38,5.05-.94,7.68.6,3.6,1.89,7,3.25,10.37.04.11.24.15.48.3,1.69-3.58,3-7.26,2.95-11.25-.03-2.94-.79-5.66-3.19-7.65.34-.71.96-.46,1.44-.46,4.41,0,8.82.03,13.23.04,1.16,0,2.31,0,3.45,0,.18.62-.29.71-.58.88-6.33,3.55-10.63,8.84-13.36,15.49-.79,1.93-1.52,3.88-2.36,5.79-.38.86-.32,1.57,0,2.43,2.73,7.14,5.41,14.31,8.09,21.47.73,1.95,1.43,3.92,2.16,5.87.19.5.44.97.67,1.48.86-.47.89-1.33,1.13-2.02,1.51-4.22,2.96-8.46,4.44-12.69,2.54-7.3,5.09-14.59,7.64-21.89.74-2.13,1.26-4.3,1.41-6.55.04-.62.06-1.24.02-1.85-.2-3.11-1.02-5.95-3.6-7.96.13-.57.57-.48.92-.48,2.63,0,5.26.05,7.89.05,2.48,0,4.95-.02,7.43-.04.68,0,1.36,0,2.01,0,.16.6-.25.64-.47.77-6.06,3.42-10.14,8.54-12.54,14.97-2.16,5.79-4.1,11.67-6.13,17.5-3.89,11.16-7.78,22.33-11.68,33.49-.33.95-.73,1.87-1.17,3-.32-.37-.62-.59-.74-.88-1.56-3.62-3.18-7.21-4.6-10.88-2.87-7.42-5.63-14.88-8.44-22.32-.16-.42-.39-.81-.57-1.16-.64-.06-.71.38-.84.72-1.36,3.36-2.73,6.73-4.08,10.1-1.01,2.51-2.02,5.01-2.98,7.54-1.95,5.12-3.87,10.26-5.8,15.39-.21.55-.44,1.08-.73,1.79-.83-1-1.13-2.06-1.51-3.04-2.45-6.42-4.85-12.87-7.27-19.31-2.8-7.44-5.61-14.89-8.42-22.33-1.17-3.11-2.32-6.23-3.52-9.32-.7-1.8-1.46-3.57-2.25-5.33-1.65-3.66-4.04-6.75-7.21-9.23-.4-.31-.76-.67-1.27-1.12.42-.14.62-.26.82-.26,6.18,0,12.37,0,18.61,0,0,.35.08.6-.01.77-1.36,2.59-1.52,5.34-.92,8.12.47,2.18,1.06,4.36,1.81,6.46,2.08,5.82,4.27,11.6,6.44,17.39,2.41,6.44,4.85,12.86,7.29,19.29.16.43.38.83.66,1.44.29-.42.55-.67.68-.98,2.37-5.87,4.72-11.75,7.08-17.62.6-1.5,1.22-3,1.9-4.67-.55-1.54-1.14-3.21-1.75-4.87-1.19-3.19-2.37-6.37-3.6-9.54-.64-1.66-1.36-3.28-2.07-4.91-1.69-3.82-4.15-7.05-7.47-9.6-.35-.27-.66-.58-.99-.87.06-.13.11-.26.17-.4h0Z"/>
  <path class="st1" d="M331.22,95.42c.05,5.03.37,9.92,1.42,14.74.94,4.28,2.41,8.35,4.92,11.99,3.19,4.62,7.47,7.44,13.12,8.11,7.24.85,13.2-1.91,16.79-8.03,1.19-2.02,2.13-4.15,2.88-6.37,1.58-4.69,2.27-9.53,2.59-14.45.41-6.31.06-12.56-1.17-18.75-1.01-5.1-2.82-9.89-5.75-14.23-3.28-4.86-7.84-7.2-13.67-7.29-7.01-.11-12.26,2.79-15.7,8.91-1.31,2.33-2.33,4.77-3.09,7.32-1.76,5.92-2.18,12.02-2.34,18.04h0ZM384.59,96.06c-.09,3.91-.57,7.72-1.6,11.48-1.82,6.62-5.26,12.26-10.26,16.94-6.1,5.71-13.37,8.16-21.68,7.67-11.63-.69-19.9-6.72-25.86-16.33-3.2-5.17-4.79-10.89-5.17-16.94-.33-5.34-.04-10.63,1.48-15.8,2.16-7.35,6.22-13.41,12.39-17.98,4.73-3.5,10.09-5.3,15.94-5.67,3.39-.21,6.76-.11,10.09.72,5.14,1.28,9.54,3.83,13.3,7.53,5.95,5.85,9.49,12.94,10.68,21.19.34,2.39.46,4.8.69,7.21h0Z"/>
  <path class="st1" d="M399.87,92.67c.28.13.42.24.56.25,3.31.18,6.54-.23,9.66-1.4,3.54-1.32,5.85-3.79,6.95-7.4,1.03-3.36,1.1-6.77.63-10.21-.22-1.59-.61-3.14-1.3-4.6-1.11-2.33-2.83-4.07-5.23-5.04-2.11-.85-4.32-1.11-6.59-1.04-.81.02-1.33.41-1.75,1.07-.96,1.5-1.73,3.1-2.04,4.83-.45,2.51-.9,5.05-.98,7.6-.15,4.79-.05,9.6-.04,14.4,0,.54.09,1.08.14,1.54h0ZM407.39,94.38c.52.14,1.04.31,1.56.42,2.52.51,4.96,1.23,7.29,2.33,3.79,1.78,6.48,4.57,8.02,8.5,1.44,3.68,2.22,7.5,2.77,11.39.35,2.45.54,4.93.96,7.37.21,1.24.64,2.49,1.23,3.6,1.11,2.11,2.65,2.68,5.27,2.2.41-.71-.23-1.33-.25-2.02-.04-1.38.56-2.19,1.85-2.32,1.48-.15,2.4.47,2.66,1.79.3,1.53-.23,2.93-1.56,3.73-.67.4-1.44.71-2.21.87-8.31,1.73-16.29-3.52-17.99-11.88-.46-2.27-.68-4.58-.98-6.88-.32-2.54-.6-5.08-.89-7.62-.03-.24-.05-.48-.1-.71-.85-4.8-3.48-7.94-8.35-9.09-2.56-.61-4.41-.84-6.73-.59-.06.43-.18.89-.18,1.35-.02,6.32-.11,12.64.03,18.95.05,2.54.48,5.09.99,7.59.48,2.37,1.59,4.52,3.21,6.36.31.35.58.72.85,1.05-.1.17-.13.25-.19.31-.05.05-.12.11-.18.12-6.32.03-12.63.05-18.95.06-.21,0-.42-.11-.62-.17,0-.21-.07-.43,0-.51,3.21-3.27,4.39-7.34,4.69-11.76.05-.72.04-1.44.04-2.16,0-13.6,0-27.2.01-40.79,0-2.09-.17-4.16-.62-6.19-.67-3.02-2.04-5.7-4.43-8.05.42-.17.66-.3.91-.36.23-.05.48-.03.72-.03,7.76.01,15.52.02,23.28.06,2.9.02,5.76.44,8.47,1.45,1.56.58,3.1,1.32,4.49,2.23,4.46,2.92,6.41,7.18,6.24,12.46-.15,4.72-2.25,8.42-5.92,11.28-2.69,2.1-5.76,3.44-9.07,4.2-2.1.48-4.23.79-6.35,1.17.01.11.02.22.03.34h0Z"/>
  <path class="st1" d="M439.05,131.13c.35-.56.44-.78.6-.95,2.71-2.87,3.88-6.39,4.25-10.22.11-1.11.15-2.24.15-3.36,0-13.62.02-27.23-.01-40.85,0-1.83-.19-3.68-.48-5.49-.48-3.07-1.75-5.81-3.91-8.09-.16-.17-.26-.39-.49-.75.41-.13.74-.31,1.08-.33.72-.05,1.44-.02,2.16-.02,4.97,0,9.93,0,14.9.01h1.99c-.09.4-.06.68-.19.81-2.89,2.95-4.08,6.63-4.52,10.62-.27,2.39-.41,4.78-.41,7.19.02,12.65-.02,25.31,0,37.97,0,1.52.09,3.05.31,4.55.51,3.58,3.04,6.01,6.63,6.11,4.56.12,9.13.07,13.69-.04,2.6-.07,5.01-1,7.3-2.19,3.13-1.62,5.17-4.22,6.49-7.44.21-.52.39-1.05.59-1.57.02-.05.12-.07.19-.1.41.13.28.51.29.77.14,4.5-.09,11.41-.45,13.32-.65.05-1.34.14-2.04.14-5.21,0-10.41-.02-15.62-.01-9.93,0-19.87.03-29.8.03-.78,0-1.56-.05-2.68-.09h0Z"/>
  <path class="st1" d="M508.59,63.94c-1.15,1.56-1.84,3.25-2.26,5.04-.63,2.72-.97,5.48-.97,8.28,0,11.79.03,23.58,0,35.36,0,2.72.14,5.41.52,8.09.32,2.31,1,4.5,2.19,6.52.33.55.67,1.07,1.4,1.16,4.37.55,8.74.77,13.06-.28,7.35-1.78,12.32-6.38,15.31-13.22,1.74-3.98,2.52-8.2,2.91-12.51.41-4.45.41-8.91,0-13.36-.39-4.22-1.2-8.35-2.89-12.27-2.62-6.08-7.11-10.07-13.46-11.94-4.49-1.32-9.08-1.6-13.72-1.27-.7.05-1.4.25-2.08.38h0ZM490.1,130.83c.5-.68.66-.95.86-1.17,2.3-2.49,3.52-5.47,3.93-8.79.22-1.81.38-3.65.38-5.47.03-13.22,0-26.44.03-39.66,0-2.16-.24-4.29-.72-6.39-.59-2.61-1.7-4.96-3.52-6.95-.25-.27-.44-.6-.63-.85.33-.57.78-.44,1.15-.44,1.99,0,3.98.04,5.97.05,3.11,0,6.21-.08,9.32,0,4.37.13,8.75.3,13.11.61,2.69.19,5.38.59,8.04,1.06,8.27,1.47,14.4,6.08,18.78,13.13,3.44,5.53,5.14,11.61,5.42,18.1.18,4.24-.04,8.46-1.2,12.55-3.57,12.55-11.79,20.25-24.46,23.23-3.66.86-7.39,1.09-11.15,1.07-7.57-.04-15.13-.05-22.7-.06-.71,0-1.41,0-2.61,0h0Z"/>
  <path class="st1" d="M615.82,131.02c-.78.08-1.15.15-1.52.14-6.21-.01-12.41-.04-18.55-.06-.37-.59,0-.86.26-1.13,2.56-2.75,3.69-6.1,4.11-9.75.13-1.11.18-2.23.18-3.34.01-13.81,0-27.61,0-41.42,0-2-.16-3.99-.64-5.94-.48-1.94-1.13-3.82-2.46-5.52-3.53-.41-6.92.27-10.21,1.62-3.26,1.33-5.96,3.37-7.9,6.28-.69-.17-.51-.62-.49-.97.18-3.1.37-6.2.56-9.29.59-.65,1.35-.42,2.04-.43,5.99-.02,11.97-.02,17.96-.02,10.14,0,20.28,0,30.41.01.87,0,1.73.03,2.72.04.53,3.6.37,7.09.76,10.87-.45-.33-.71-.44-.86-.64-4.31-5.6-10.24-7.55-17.03-7.62-1.14-.01-1.75.48-2.25,1.41-1.23,2.29-1.82,4.76-2.12,7.31-.27,2.38-.42,4.76-.41,7.16.04,11.81-.03,23.62.06,35.44.02,2.61.42,5.25.92,7.83.5,2.61,1.7,4.97,3.56,6.94.21.23.4.48.9,1.09h0Z"/>
  <path class="st1" d="M644.52,95.42c.05,5.03.37,9.92,1.42,14.74.94,4.28,2.41,8.35,4.92,11.99,3.19,4.62,7.47,7.44,13.12,8.11,7.24.85,13.2-1.91,16.79-8.03,1.19-2.02,2.13-4.15,2.88-6.37,1.58-4.69,2.27-9.53,2.59-14.45.41-6.31.06-12.56-1.17-18.75-1.01-5.1-2.82-9.89-5.75-14.23-3.28-4.86-7.84-7.2-13.67-7.29-7.01-.11-12.26,2.79-15.7,8.91-1.31,2.33-2.33,4.77-3.09,7.32-1.76,5.92-2.18,12.02-2.34,18.04h0ZM697.89,96.06c-.09,3.91-.57,7.72-1.6,11.48-1.82,6.62-5.26,12.26-10.26,16.94-6.1,5.71-13.37,8.16-21.68,7.67-11.63-.69-19.9-6.72-25.86-16.33-3.2-5.17-4.79-10.89-5.17-16.94-.33-5.34-.04-10.63,1.48-15.8,2.16-7.35,6.22-13.41,12.39-17.98,4.73-3.5,10.09-5.3,15.94-5.67,3.39-.21,6.76-.11,10.09.72,5.14,1.28,9.54,3.83,13.3,7.53,5.95,5.85,9.49,12.94,10.68,21.19.34,2.39.46,4.8.69,7.21h0Z"/>
  <path class="st1" d="M698.01,61.42c.53-.09.81-.19,1.1-.19,6.18.01,12.36.04,18.49.06.3.59-.08.83-.33,1.1-2.37,2.59-3.44,5.72-3.96,9.13-.62,4.06-.45,8.14-.45,12.21,0,6.82.02,13.65.1,20.47.03,2.9.13,5.81.42,8.69.2,2.01.65,4.03,1.21,5.98,1.37,4.79,4.64,7.72,9.41,8.95,3.71.96,7.45.96,11.16-.08,3.74-1.05,6.54-3.29,8.47-6.64,1.43-2.48,2.25-5.18,2.65-7.99.27-1.94.43-3.9.45-5.86.08-5.88.05-11.77.11-17.65.04-3.6.21-7.2.24-10.81.02-2.76-.3-5.48-1.24-8.1-1.27-3.56-3.17-6.65-6.45-8.71-.17-.11-.26-.33-.46-.57.31-.08.51-.19.72-.19,5.96,0,11.92,0,17.81,0,.27.5,0,.69-.26.86-4.19,2.81-6.18,6.98-7.1,11.75-.28,1.45-.37,2.96-.36,4.44.04,8.39.17,16.78.2,25.17.01,4.08-.28,8.16-1.27,12.14-.3,1.22-.66,2.42-1.09,3.6-2.26,6.08-6.62,9.82-12.91,11.2-5.84,1.28-11.7,1.13-17.47-.47-1.72-.48-3.4-1.23-4.96-2.1-3.64-2.03-6.11-5.07-7.42-9.06-1.16-3.54-1.5-7.2-1.72-10.89-.07-1.09-.05-2.2-.05-3.29-.03-9.65-.03-19.3-.11-28.95-.02-1.87-.19-3.77-.53-5.61-.51-2.82-1.65-5.39-3.63-7.53-.24-.26-.42-.58-.76-1.04h0Z"/>
  <path class="st1" d="M773.06,92.67c.28.13.42.24.56.25,3.31.18,6.54-.23,9.66-1.4,3.54-1.32,5.85-3.79,6.95-7.4,1.03-3.36,1.1-6.77.63-10.21-.22-1.59-.61-3.14-1.3-4.6-1.11-2.33-2.83-4.07-5.23-5.04-2.11-.85-4.32-1.11-6.59-1.04-.81.02-1.33.41-1.75,1.07-.96,1.5-1.73,3.1-2.04,4.83-.45,2.51-.9,5.05-.98,7.6-.15,4.79-.05,9.6-.04,14.4,0,.54.09,1.08.14,1.54h0ZM780.59,94.38c.52.14,1.04.31,1.56.42,2.52.51,4.96,1.23,7.29,2.33,3.79,1.78,6.48,4.57,8.02,8.5,1.44,3.68,2.22,7.5,2.77,11.39.35,2.45.54,4.93.96,7.37.21,1.24.64,2.49,1.23,3.6,1.11,2.11,2.65,2.68,5.27,2.2.41-.71-.23-1.33-.25-2.02-.04-1.38.56-2.19,1.85-2.32,1.48-.15,2.4.47,2.66,1.79.3,1.53-.23,2.93-1.56,3.73-.67.4-1.44.71-2.21.87-8.31,1.73-16.29-3.52-17.99-11.88-.46-2.27-.68-4.58-.98-6.88-.32-2.54-.6-5.08-.89-7.62-.03-.24-.05-.48-.1-.71-.85-4.8-3.48-7.94-8.35-9.09-2.56-.61-4.41-.84-6.73-.59-.06.43-.18.89-.18,1.35-.02,6.32-.11,12.64.03,18.95.05,2.54.48,5.09.99,7.59.48,2.37,1.59,4.52,3.21,6.36.31.35.58.72.85,1.05-.1.17-.13.25-.19.31-.05.05-.12.11-.18.12-6.32.03-12.63.05-18.95.06-.21,0-.42-.11-.62-.17,0-.21-.07-.43,0-.51,3.21-3.27,4.39-7.34,4.69-11.76.05-.72.04-1.44.04-2.16,0-13.6,0-27.2.01-40.79,0-2.09-.17-4.16-.62-6.19-.67-3.02-2.04-5.7-4.43-8.05.42-.17.66-.3.91-.36.23-.05.48-.03.72-.03,7.76.01,15.52.02,23.28.06,2.9.02,5.76.44,8.47,1.45,1.56.58,3.1,1.32,4.49,2.23,4.46,2.92,6.41,7.18,6.24,12.46-.15,4.72-2.25,8.42-5.92,11.28-2.69,2.1-5.76,3.44-9.07,4.2-2.1.48-4.23.79-6.35,1.17.01.11.02.22.03.34h0Z"/>
</svg>