<?xml version="1.0" encoding="UTF-8"?>
<svg id="Layer_1" xmlns="http://www.w3.org/2000/svg" version="1.1" viewBox="0 0 833 210.3">
  <!-- Generator: Adobe Illustrator 30.2.1, SVG Export Plug-In . SVG Version: 2.1.1 Build 1)  -->
  <defs>
    <style>
      .st0 {
        fill: #f2f2e4;
      }

      .st1 {
        fill: #fff;
      }
    </style>
  </defs>
  <path class="st1" d="M81.66,77.18c-.15,3.73-.3,7.55-.47,11.36,0,.09-.15.18-.34.39-.31-.67-.61-1.28-.88-1.9-1.18-2.77-2.74-5.29-4.61-7.64-4.01-5.03-9.32-6.73-15.53-6.1-4.52.46-8.01,2.65-10.65,6.32-2.58,3.58-4.21,7.57-5.13,11.85-1.17,5.46-1.48,10.97-1.05,16.54.27,3.49.79,6.92,1.84,10.26,1.05,3.36,2.55,6.49,4.84,9.19,5.03,5.94,11.45,7.63,18.84,5.79,3.49-.87,6.27-2.96,8.41-5.87,1.31-1.78,2.45-3.66,3.36-5.68.88-1.94,1.76-3.88,2.64-5.82.59.08.42.51.41.81-.03,1.14-.07,2.28-.14,3.41-.19,3.04-.34,6.08-.12,9.08-.23.1-.38.23-.47.19-1.6-.59-2.93-.08-4.13.97-5.02,4.39-10.97,5.77-17.45,5.35-2.49-.16-4.95-.54-7.32-1.35-9.48-3.22-15.65-9.77-19.04-19.06-1.15-3.16-1.68-6.45-1.81-9.82-.19-4.94.21-9.8,1.78-14.52,1.65-4.96,4.36-9.24,8.22-12.77,4.59-4.21,10.06-6.36,16.22-6.71,2.26-.13,4.54.05,6.81.19,2.23.14,4.31.9,6.29,1.9,1.33.67,2.66,1.36,3.95,2.12,1.51.88,3.07,1.47,4.86,1.27.14-.02.28.01.42.04.06.01.11.08.28.21h0Z"/>
  <path class="st1" d="M117.91,113.87c-.22-.8-.33-1.36-.52-1.89-.55-1.57-1.14-3.12-1.7-4.69-1.3-3.68-2.59-7.37-3.87-11.05-.86-2.46-1.69-4.92-2.56-7.38-.14-.38-.37-.73-.6-1.19-1.38,3.09-8.52,24.22-8.79,26.02.18.06.38.16.57.16,5.72,0,11.43,0,17.47,0h0ZM140.4,135.96c-2.37.25-17.91.2-19.2-.03-.01-.14-.09-.31-.03-.4,1.54-2.32,1.64-4.87,1.29-7.52-.39-2.9-1.38-5.62-2.36-8.34-.46-1.28-.97-2.55-1.46-3.85h-19.69c-.95,2.64-1.98,5.19-2.54,7.89-.39,1.86-.42,3.75-.13,5.62.34,2.2,1.18,4.17,2.91,5.68.24.21.45.47.65.68-.13.19-.17.29-.21.3-.58.03-1.15.07-1.73.07-4.68,0-9.37,0-14.43,0,.47-.43.64-.65.86-.76,2.56-1.39,4.41-3.5,5.95-5.91,1.95-3.07,3.54-6.31,4.71-9.76,5.22-15.35,10.45-30.7,15.68-46.04.19-.55.4-1.09.67-1.6.31-.59,1.11-.59,1.39,0,.25.52.44,1.07.63,1.62,2.68,7.5,5.36,15,8.02,22.5,3.02,8.53,5.96,17.08,9.06,25.58,1.49,4.09,3.37,8.02,6.52,11.17.56.56,1.13,1.12,1.72,1.65.47.43.99.82,1.76,1.45h0Z"/>
  <path class="st1" d="M154.53,100.66c.26.12.38.23.51.23,3.05.17,6.03-.22,8.91-1.29,3.26-1.22,5.39-3.5,6.41-6.83.95-3.09,1.01-6.24.58-9.42-.2-1.47-.56-2.9-1.2-4.24-1.03-2.15-2.61-3.75-4.83-4.65-1.94-.78-3.99-1.02-6.08-.96-.74.02-1.23.38-1.61.98-.88,1.38-1.6,2.86-1.89,4.46-.42,2.32-.83,4.66-.9,7.01-.14,4.42-.05,8.85-.04,13.28,0,.5.09,1,.13,1.42h0ZM161.47,102.23c.48.13.96.29,1.44.38,2.32.47,4.57,1.13,6.72,2.14,3.5,1.65,5.97,4.21,7.39,7.84,1.33,3.39,2.04,6.92,2.55,10.5.32,2.26.5,4.54.89,6.79.2,1.14.59,2.3,1.13,3.32,1.02,1.95,2.44,2.47,4.86,2.02.38-.66-.21-1.23-.23-1.86-.04-1.27.51-2.02,1.7-2.14,1.36-.14,2.22.43,2.45,1.65.28,1.42-.21,2.71-1.44,3.44-.62.37-1.33.66-2.04.81-7.66,1.59-15.02-3.25-16.59-10.96-.43-2.09-.63-4.23-.9-6.35-.3-2.34-.55-4.69-.82-7.03-.03-.22-.05-.44-.09-.66-.78-4.43-3.21-7.32-7.7-8.39-2.36-.56-4.07-.78-6.21-.54-.06.4-.17.82-.17,1.24-.02,5.83-.1,11.65.02,17.48.05,2.34.45,4.7.91,7,.44,2.19,1.46,4.16,2.96,5.86.28.32.54.67.78.97-.09.16-.12.23-.17.28-.05.05-.11.11-.17.11-5.82.02-11.65.05-17.47.06-.2,0-.39-.11-.57-.16,0-.2-.06-.4,0-.47,2.96-3.02,4.05-6.77,4.33-10.85.05-.66.04-1.33.04-1.99,0-12.54,0-25.08.01-37.61,0-1.93-.15-3.83-.57-5.71-.62-2.79-1.88-5.26-4.09-7.42.38-.16.61-.28.84-.33.21-.05.44-.03.66-.03,7.15.01,14.31.01,21.46.05,2.67.01,5.31.41,7.81,1.33,1.44.53,2.86,1.21,4.14,2.05,4.12,2.7,5.91,6.62,5.76,11.49-.14,4.35-2.08,7.76-5.46,10.4-2.48,1.94-5.31,3.18-8.36,3.87-1.93.44-3.9.73-5.85,1.08.01.1.02.21.03.31h0Z"/>
  <path class="st1" d="M236.5,136.34c-.6.06-1.11.15-1.61.14-14.73-.07-29.47-.03-44.44-.33.22-.41.29-.68.45-.86,2.48-2.66,3.57-5.89,3.91-9.42.1-1.03.14-2.06.14-3.09,0-12.54.02-25.08-.01-37.62,0-1.69-.18-3.39-.44-5.05-.44-2.83-1.62-5.35-3.61-7.45-.14-.15-.23-.36-.36-.57.56-.55,1.24-.41,1.87-.41,3.47,0,6.93.01,10.4.02,5.09,0,10.18.02,15.27,0,4.57-.02,9.15-.09,13.72-.12.72,0,1.44.06,2.13.09.38,1.68.75,8.42.56,9.92-.13-.02-.34,0-.39-.07-2.83-4.08-6.91-6.06-11.63-6.96-1.01-.19-2.05-.31-3.07-.32-3.61-.04-7.23-.02-10.84-.01-.37,0-.73.05-1.12.08-1.3,1.51-1.96,3.33-2.3,5.21-.42,2.31-.72,4.67-.8,7.02-.13,4.13-.04,8.26-.03,12.39,0,.65.09,1.29.14,2,1.36.29,2.61.19,3.85.15,3.2-.09,6.3-.72,9.18-2.19,2.2-1.12,4.12-2.58,5.5-4.67.16-.23.35-.44.68-.84.15.43.3.67.3.91.02.96,0,1.92,0,2.88,0,4.13,0,8.26,0,12.39v1.25c-.43.28-.63.09-.8-.17-2.69-4.01-6.69-5.9-11.25-6.74-2.39-.44-4.82-.43-7.36-.16-.07.56-.19,1.05-.19,1.54-.02,5.53-.1,11.07,0,16.6.04,2.27.4,4.55.82,6.8.33,1.81,1.03,3.53,2.16,4.98.19.08.32.2.45.2,4.87-.02,9.73.02,14.6-.1,2.91-.07,5.67-.8,8.2-2.34,2.16-1.31,3.76-3.06,4.73-5.38.5-1.19.9-2.42,1.49-3.6.19,4.65.18,9.27-.26,13.96h0Z"/>
  <path class="st1" d="M282.98,136.34c-.6.06-1.11.15-1.61.14-14.73-.07-29.47-.03-44.44-.33.22-.41.29-.68.45-.86,2.48-2.66,3.57-5.89,3.91-9.42.1-1.03.14-2.06.14-3.09,0-12.54.02-25.08-.01-37.62,0-1.69-.18-3.39-.44-5.05-.44-2.83-1.62-5.35-3.61-7.45-.14-.15-.23-.36-.36-.57.56-.55,1.24-.41,1.87-.41,3.47,0,6.93.01,10.4.02,5.09,0,10.18.02,15.27,0,4.57-.02,9.15-.09,13.72-.12.72,0,1.44.06,2.13.09.38,1.68.75,8.42.56,9.92-.13-.02-.34,0-.39-.07-2.83-4.08-6.91-6.06-11.63-6.96-1.01-.19-2.05-.31-3.07-.32-3.61-.04-7.23-.02-10.84-.01-.37,0-.73.05-1.12.08-1.3,1.51-1.96,3.33-2.3,5.21-.42,2.31-.72,4.67-.8,7.02-.13,4.13-.04,8.26-.03,12.39,0,.65.09,1.29.14,2,1.36.29,2.61.19,3.85.15,3.2-.09,6.3-.72,9.18-2.19,2.2-1.12,4.12-2.58,5.5-4.67.16-.23.35-.44.68-.84.15.43.3.67.3.91.02.96,0,1.92,0,2.88,0,4.13,0,8.26,0,12.39v1.25c-.43.28-.63.09-.8-.17-2.69-4.01-6.69-5.9-11.25-6.74-2.39-.44-4.82-.43-7.36-.16-.07.56-.19,1.05-.19,1.54-.02,5.53-.1,11.07,0,16.6.04,2.27.4,4.55.82,6.8.33,1.81,1.03,3.53,2.16,4.98.19.08.32.2.45.2,4.87-.02,9.73.02,14.6-.1,2.91-.07,5.67-.8,8.2-2.34,2.16-1.31,3.76-3.06,4.73-5.38.5-1.19.9-2.42,1.49-3.6.19,4.65.18,9.27-.26,13.96h0Z"/>
  <path class="st1" d="M297.54,100.66c.26.12.38.23.51.23,3.05.17,6.03-.22,8.91-1.29,3.26-1.22,5.39-3.5,6.41-6.83.95-3.09,1.01-6.24.58-9.42-.2-1.47-.56-2.9-1.2-4.24-1.03-2.15-2.61-3.75-4.83-4.65-1.94-.78-3.99-1.02-6.08-.96-.74.02-1.23.38-1.61.98-.88,1.38-1.6,2.86-1.89,4.46-.42,2.32-.83,4.66-.9,7.01-.14,4.42-.05,8.85-.04,13.28,0,.5.09,1,.13,1.42h0ZM304.48,102.23c.48.13.96.29,1.44.38,2.32.47,4.57,1.13,6.72,2.14,3.5,1.65,5.97,4.21,7.39,7.84,1.33,3.39,2.04,6.92,2.55,10.5.32,2.26.5,4.54.89,6.79.2,1.14.59,2.3,1.13,3.32,1.02,1.95,2.44,2.47,4.86,2.02.38-.66-.21-1.23-.23-1.86-.04-1.27.51-2.02,1.7-2.14,1.36-.14,2.22.43,2.45,1.65.28,1.42-.21,2.71-1.44,3.44-.62.37-1.33.66-2.04.81-7.66,1.59-15.02-3.25-16.59-10.96-.43-2.09-.63-4.23-.9-6.35-.3-2.34-.55-4.69-.82-7.03-.03-.22-.05-.44-.09-.66-.78-4.43-3.21-7.32-7.7-8.39-2.36-.56-4.07-.78-6.21-.54-.06.4-.17.82-.17,1.24-.02,5.83-.1,11.65.02,17.48.05,2.34.45,4.7.91,7,.44,2.19,1.46,4.16,2.96,5.86.28.32.54.67.78.97-.09.16-.12.23-.17.28-.05.05-.11.11-.17.11-5.82.02-11.65.05-17.47.06-.2,0-.39-.11-.57-.16,0-.2-.06-.4,0-.47,2.96-3.02,4.05-6.77,4.33-10.85.05-.66.04-1.33.04-1.99,0-12.54,0-25.08.01-37.61,0-1.93-.15-3.83-.57-5.71-.62-2.79-1.88-5.26-4.09-7.42.38-.16.61-.28.84-.33.21-.05.44-.03.66-.03,7.15.01,14.31.01,21.46.05,2.67.01,5.31.41,7.81,1.33,1.44.53,2.86,1.21,4.14,2.05,4.12,2.7,5.91,6.62,5.76,11.49-.14,4.35-2.08,7.76-5.46,10.4-2.48,1.94-5.31,3.18-8.36,3.87-1.93.44-3.9.73-5.85,1.08.01.1.02.21.03.31h0Z"/>
  <path class="st0" d="M412.97,135.86c-.53.13-.73.22-.94.22-5.74,0-11.48,0-17.22-.02-.12,0-.24-.12-.37-.19-.19-.44.18-.66.41-.91,2.23-2.43,3.33-5.35,3.67-8.57.19-1.75.28-3.52.29-5.28.04-5.44.02-10.89,0-16.33,0-.71-.06-1.43-.09-2.12-.35-.13-.55-.27-.75-.27-8.61,0-17.22.02-25.82.05-.2,0-.41.14-.7.24-.04.49-.13.99-.13,1.49-.02,5.81-.1,11.63.01,17.44.05,2.34.4,4.69.85,6.99.48,2.41,1.58,4.58,3.3,6.39.2.21.36.45.65.82-.36.12-.6.27-.84.27-5.59.02-11.18.02-16.78.02-.27,0-.55-.08-.74-.11-.3-.44-.04-.66.15-.86,2.5-2.63,3.58-5.86,3.92-9.39.1-1.02.14-2.06.14-3.08,0-12.51.02-25.02-.01-37.52,0-1.68-.18-3.38-.44-5.04-.43-2.74-1.55-5.2-3.45-7.27-.19-.21-.35-.46-.5-.65.18-.53.58-.47.93-.47,1.55,0,3.09.02,4.64.02,3.53,0,7.06-.01,10.6,0,.71,0,1.43.04,2.13.06,0,.27.06.47,0,.54-2.75,2.83-3.87,6.34-4.27,10.17-.23,2.2-.35,4.4-.33,6.6.03,3.02,0,6.03.02,9.05,0,.5.1,1,.14,1.36.19.17.23.23.29.26.06.03.14.06.21.06,8.39.03,16.77.05,25.16.07.44,0,.88-.05,1.42-.08.1-.42.29-.83.29-1.23.02-4.78.08-9.57-.02-14.35-.04-1.75-.36-3.51-.72-5.23-.46-2.19-1.46-4.15-2.94-5.86-.28-.32-.54-.66-.79-.96.22-.55.63-.47.97-.47,2.28,0,4.56.04,6.84.04,2.8,0,5.59-.03,8.39-.03.71,0,1.41.05,2.41.09-.37.51-.54.81-.77,1.06-2.05,2.26-3.1,4.95-3.56,7.93-.37,2.41-.53,4.82-.52,7.25.02,11.11-.02,22.22.04,33.33.01,2.2.28,4.41.65,6.57.44,2.57,1.52,4.91,3.3,6.88.24.27.46.55.87,1.05h0Z"/>
  <path class="st0" d="M412.92,71.7c1.64-.25,17.24-.23,18.58-.03,0,.14.06.34,0,.41-2.65,2.72-3.86,6.09-4.23,9.78-.21,2.13-.37,4.28-.37,6.41-.03,11.1-.06,22.2.03,33.29.02,2.35.39,4.72.83,7.04.46,2.42,1.56,4.62,3.26,6.46.24.26.43.55.61.77-.09.19-.1.28-.15.32-.05.04-.13.07-.2.07-5.62.02-11.24.05-16.87.07-.37,0-.74-.06-1.1-.11-.05,0-.08-.11-.2-.3.1-.18.2-.44.38-.63,2.5-2.66,3.56-5.91,3.9-9.46.1-1.03.14-2.07.14-3.1,0-12.5.03-25.01-.02-37.51,0-1.84-.2-3.69-.49-5.51-.43-2.68-1.57-5.07-3.43-7.09-.19-.21-.34-.46-.66-.88h0Z"/>
  <path class="st0" d="M483.21,73.37c.11,1.81-.4,3.6-.41,5.41,0,1.84-.06,3.68-.06,5.52,0,1.81.04,3.62.06,5.77-.65-.73-.76-1.3-.95-1.83-.9-2.5-1.89-4.96-3.34-7.19-2.44-3.74-5.6-6.7-9.98-7.93-7.18-2.03-14.56-.36-19.57,6.14-2.79,3.63-4.5,7.76-5.49,12.18-1.41,6.3-1.67,12.68-1.05,19.1.35,3.61,1.04,7.13,2.3,10.54,1.06,2.85,2.46,5.51,4.42,7.85,5,5.99,11.41,7.71,18.87,6.14,1.3-.27,2.51-.84,3.58-1.67,1.45-1.11,2.45-2.51,2.85-4.33.65-2.99.57-6,.31-9.01-.1-1.2-.61-2.27-1.56-3.08-.27-.23-.51-.51-.87-.87.93-.52,1.81-.25,2.64-.29.88-.04,1.77-.01,2.65-.01.81,0,1.62-.01,2.43-.02.88,0,1.77-.02,2.65-.02.88,0,1.76,0,2.61,0,.23.53-.14.73-.39.98-.88.88-1.26,1.94-1.29,3.18-.05,2.5-.16,5-.23,7.51-.02.8,0,1.61,0,2.41-4.44,3.91-9.3,6.56-15.19,7.2-4.89.53-9.72.3-14.46-.96-10.28-2.74-17.19-9.22-20.29-19.35-2.73-8.9-2.4-17.88.71-26.69,1.57-4.45,4.13-8.29,7.53-11.56,4.28-4.11,9.39-6.47,15.23-7.43,6.16-1.02,12.01-.09,17.67,2.43,1.01.45,2.04.84,3.07,1.23,1.58.6,3.02.34,4.34-.73.32-.26.55-.72,1.22-.61h0Z"/>
  <path class="st0" d="M540.95,135.86c-.53.13-.73.22-.94.22-5.74,0-11.48,0-17.22-.02-.12,0-.24-.12-.37-.19-.19-.44.18-.66.41-.91,2.23-2.43,3.33-5.35,3.67-8.57.19-1.75.28-3.52.29-5.28.04-5.44.02-10.89,0-16.33,0-.71-.06-1.43-.09-2.12-.35-.13-.55-.27-.75-.27-8.61,0-17.22.02-25.82.05-.2,0-.41.14-.7.24-.04.49-.13.99-.13,1.49-.02,5.81-.1,11.63.01,17.44.05,2.34.4,4.69.85,6.99.48,2.41,1.58,4.58,3.3,6.39.2.21.36.45.65.82-.36.12-.6.27-.84.27-5.59.02-11.18.02-16.78.02-.27,0-.55-.08-.74-.11-.3-.44-.04-.66.15-.86,2.5-2.63,3.58-5.86,3.92-9.39.1-1.02.14-2.06.14-3.08,0-12.51.02-25.02-.01-37.52,0-1.68-.18-3.38-.44-5.04-.43-2.74-1.55-5.2-3.45-7.27-.19-.21-.35-.46-.5-.65.18-.53.58-.47.93-.47,1.55,0,3.09.02,4.64.02,3.53,0,7.06-.01,10.6,0,.71,0,1.43.04,2.13.06,0,.27.06.47,0,.54-2.75,2.83-3.87,6.34-4.27,10.17-.23,2.2-.35,4.4-.33,6.6.03,3.02,0,6.03.02,9.05,0,.5.1,1,.14,1.36.19.17.23.23.29.26.06.03.14.06.21.06,8.39.03,16.77.05,25.16.07.44,0,.88-.05,1.42-.08.1-.42.29-.83.29-1.23.02-4.78.08-9.57-.02-14.35-.04-1.75-.36-3.51-.72-5.23-.46-2.19-1.46-4.15-2.94-5.86-.28-.32-.54-.66-.79-.96.22-.55.63-.47.97-.47,2.28,0,4.56.04,6.84.04,2.8,0,5.59-.03,8.39-.03.71,0,1.41.05,2.41.09-.37.51-.54.81-.77,1.06-2.05,2.26-3.1,4.95-3.56,7.93-.37,2.41-.53,4.82-.52,7.25.02,11.11-.02,22.22.04,33.33.01,2.2.28,4.41.65,6.57.44,2.57,1.52,4.91,3.3,6.88.24.27.46.55.87,1.05h0Z"/>
  <path class="st0" d="M541.04,136.12c.32-.51.41-.72.55-.87,2.5-2.65,3.58-5.89,3.92-9.43.1-1.03.14-2.06.14-3.1,0-12.56.02-25.11-.01-37.67,0-1.69-.18-3.39-.44-5.06-.44-2.83-1.61-5.36-3.61-7.46-.15-.15-.24-.36-.45-.69.38-.12.68-.29.99-.31.66-.04,1.33-.01,1.99-.01,4.58,0,9.16,0,13.74.01h1.83c-.08.37-.06.63-.17.75-2.67,2.72-3.76,6.11-4.17,9.79-.25,2.2-.38,4.41-.37,6.63.02,11.67-.02,23.34,0,35.01,0,1.4.09,2.81.28,4.19.47,3.3,2.8,5.54,6.11,5.63,4.21.11,8.42.07,12.63-.04,2.39-.06,4.62-.92,6.73-2.02,2.89-1.5,4.77-3.89,5.98-6.86.19-.48.36-.97.54-1.45.02-.04.11-.06.17-.1.38.12.26.47.26.71.13,4.15-.08,10.52-.41,12.28-.6.04-1.24.13-1.88.13-4.8,0-9.6-.01-14.4-.01-9.16,0-18.32.02-27.48.03-.72,0-1.44-.05-2.48-.09h0Z"/>
  <path class="st0" d="M587.93,71.7c1.64-.25,17.24-.23,18.58-.03,0,.14.06.34,0,.41-2.65,2.72-3.86,6.09-4.23,9.78-.21,2.13-.37,4.28-.37,6.41-.03,11.1-.06,22.2.03,33.29.02,2.35.39,4.72.83,7.04.46,2.42,1.56,4.62,3.26,6.46.24.26.43.55.61.77-.09.19-.1.28-.15.32-.05.04-.13.07-.2.07-5.62.02-11.24.05-16.87.07-.37,0-.73-.06-1.1-.11-.05,0-.08-.11-.2-.3.1-.18.2-.44.38-.63,2.5-2.66,3.56-5.91,3.9-9.46.1-1.03.14-2.07.14-3.1,0-12.5.03-25.01-.02-37.51,0-1.84-.2-3.69-.49-5.51-.43-2.68-1.57-5.07-3.43-7.09-.19-.21-.34-.46-.66-.88h0Z"/>
  <path class="st0" d="M658.21,73.37c.11,1.81-.4,3.6-.41,5.41,0,1.84-.06,3.68-.06,5.52,0,1.81.04,3.62.06,5.77-.65-.73-.76-1.3-.95-1.83-.9-2.5-1.89-4.96-3.34-7.19-2.44-3.74-5.6-6.7-9.98-7.93-7.18-2.03-14.56-.36-19.57,6.14-2.79,3.63-4.5,7.76-5.49,12.18-1.41,6.3-1.67,12.68-1.05,19.1.35,3.61,1.04,7.13,2.3,10.54,1.06,2.85,2.46,5.51,4.42,7.85,5,5.99,11.41,7.71,18.87,6.14,1.3-.27,2.51-.84,3.58-1.67,1.45-1.11,2.45-2.51,2.85-4.33.65-2.99.57-6,.31-9.01-.1-1.2-.61-2.27-1.56-3.08-.27-.23-.51-.51-.87-.87.93-.52,1.81-.25,2.64-.29.88-.04,1.77-.01,2.65-.01.81,0,1.62-.01,2.43-.02.88,0,1.77-.02,2.65-.02.88,0,1.76,0,2.61,0,.23.53-.14.73-.39.98-.88.88-1.26,1.94-1.29,3.18-.05,2.5-.16,5-.23,7.51-.02.8,0,1.61,0,2.41-4.44,3.91-9.3,6.56-15.19,7.2-4.89.53-9.72.3-14.46-.96-10.28-2.74-17.19-9.22-20.29-19.35-2.73-8.9-2.4-17.88.71-26.69,1.57-4.45,4.13-8.29,7.53-11.56,4.28-4.11,9.39-6.47,15.23-7.43,6.16-1.02,12.01-.09,17.67,2.43,1.01.45,2.04.84,3.07,1.23,1.58.6,3.02.34,4.34-.73.32-.26.55-.72,1.22-.61h0Z"/>
  <path class="st0" d="M715.96,135.86c-.53.13-.73.22-.94.22-5.74,0-11.48,0-17.22-.02-.12,0-.24-.12-.37-.19-.19-.44.18-.66.41-.91,2.23-2.43,3.33-5.35,3.67-8.57.19-1.75.28-3.52.29-5.28.04-5.44.02-10.89,0-16.33,0-.71-.06-1.43-.09-2.12-.35-.13-.55-.27-.75-.27-8.61,0-17.22.02-25.82.05-.2,0-.41.14-.7.24-.04.49-.13.99-.13,1.49-.02,5.81-.1,11.63.01,17.44.05,2.34.4,4.69.85,6.99.48,2.41,1.58,4.58,3.3,6.39.2.21.36.45.65.82-.36.12-.6.27-.84.27-5.59.02-11.18.02-16.78.02-.27,0-.55-.08-.74-.11-.3-.44-.04-.66.15-.86,2.5-2.63,3.58-5.86,3.92-9.39.1-1.02.14-2.06.14-3.08,0-12.51.02-25.02-.01-37.52,0-1.68-.18-3.38-.44-5.04-.43-2.74-1.55-5.2-3.45-7.27-.19-.21-.35-.46-.5-.65.18-.53.58-.47.93-.47,1.55,0,3.09.02,4.64.02,3.53,0,7.06-.01,10.6,0,.71,0,1.43.04,2.13.06,0,.27.06.47,0,.54-2.75,2.83-3.87,6.34-4.27,10.17-.23,2.2-.35,4.4-.33,6.6.03,3.02,0,6.03.02,9.05,0,.5.1,1,.14,1.36.19.17.23.23.29.26.06.03.14.06.21.06,8.39.03,16.77.05,25.16.07.44,0,.88-.05,1.42-.08.1-.42.29-.83.29-1.23.02-4.78.08-9.57-.02-14.35-.04-1.75-.36-3.51-.72-5.23-.46-2.19-1.46-4.15-2.94-5.86-.28-.32-.54-.66-.79-.96.22-.55.63-.47.97-.47,2.28,0,4.56.04,6.84.04,2.8,0,5.59-.03,8.39-.03.71,0,1.41.05,2.41.09-.37.51-.54.81-.77,1.06-2.05,2.26-3.1,4.95-3.56,7.93-.37,2.41-.53,4.82-.52,7.25.02,11.11-.02,22.22.04,33.33.01,2.2.28,4.41.65,6.57.44,2.57,1.52,4.91,3.3,6.88.24.27.46.55.87,1.05h0Z"/>
  <path class="st0" d="M750.32,136.02c-.72.07-1.06.13-1.4.13-5.72-.01-11.45-.03-17.11-.05-.34-.54,0-.79.24-1.04,2.36-2.53,3.4-5.63,3.79-8.99.12-1.02.16-2.05.16-3.08.01-12.73,0-25.46,0-38.19,0-1.85-.14-3.68-.59-5.47-.44-1.79-1.04-3.52-2.27-5.09-3.26-.38-6.38.25-9.41,1.49-3,1.23-5.49,3.11-7.28,5.79-.63-.15-.47-.57-.45-.9.16-2.86.34-5.72.51-8.57.54-.6,1.25-.39,1.88-.39,5.52-.02,11.04-.02,16.56-.02,9.35,0,18.69,0,28.04.01.8,0,1.6.02,2.51.04.49,3.32.34,6.54.7,10.02-.41-.3-.66-.41-.8-.59-3.98-5.16-9.44-6.96-15.71-7.02-1.05-.01-1.61.44-2.07,1.3-1.14,2.11-1.68,4.39-1.95,6.74-.25,2.19-.39,4.39-.38,6.6.03,10.89-.03,21.78.06,32.67.02,2.41.39,4.84.85,7.22.46,2.41,1.56,4.59,3.29,6.4.2.21.37.44.83,1.01h0Z"/>
  <path class="st0" d="M766.67,133.48c-.19-.84.01-1.68.06-2.53.05-.86.19-1.71.25-2.56.06-.93.08-1.86.1-2.79.02-.86.02-1.72,0-2.58-.01-.86-.05-1.72-.06-2.58-.01-.82-.11-1.65.19-2.49.09.16.19.31.27.48.69,1.57,1.31,3.17,2.08,4.69.78,1.53,1.69,2.99,2.57,4.46,2.62,4.32,6.44,6.58,11.51,6.67,1.21.02,2.45.03,3.64-.17,4.56-.75,7.65-3.86,8.47-8.52.35-1.98.37-4,.01-5.98-.53-3-2.04-5.47-4.3-7.48-1.61-1.43-3.38-2.65-5.26-3.7-1.5-.83-3.05-1.58-4.54-2.43-1.99-1.13-3.97-2.27-5.9-3.49-1.02-.65-1.97-1.43-2.88-2.23-3.26-2.83-4.92-6.41-5.08-10.72-.18-4.76.94-9.1,4.24-12.67,4.35-4.71,9.75-6.28,15.98-5.04,1.53.31,3.02.87,4.52,1.34.68.21,1.34.5,2.03.69,1.5.43,2.96.45,4.29-.55.21-.16.48-.22.91-.4-.22,4.44-.33,8.7.04,13.03-.22-.34-.44-.68-.65-1.03-.87-1.48-1.7-2.98-2.6-4.44-1.3-2.1-3.07-3.75-5.08-5.16-2.38-1.68-5.03-2.35-7.92-2.06-4.26.42-7.45,3.43-8.23,7.82-.34,1.91-.35,3.86.03,5.77.57,2.92,2.06,5.33,4.48,7.08,1.27.92,2.62,1.75,3.99,2.52,1.93,1.08,3.92,2.07,5.88,3.1,2.98,1.58,5.85,3.31,8.42,5.52,2.54,2.19,4.59,4.74,5.48,8.03,1.34,4.96.69,9.7-2.19,13.96-3.57,5.26-8.57,8.27-14.95,8.95-3.72.4-7.26-.29-10.74-1.53-1.28-.46-2.53-.98-3.78-1.52-1.62-.7-3.18-.83-4.63.4-.1.08-.25.12-.38.15-.06.02-.14,0-.27-.02h0Z"/>
</svg>