<?xml version="1.0" encoding="UTF-8"?>
<svg id="Layer_1" xmlns="http://www.w3.org/2000/svg" version="1.1" viewBox="0 0 1920 768.35">
  <!-- Generator: Adobe Illustrator 30.2.1, SVG Export Plug-In . SVG Version: 2.1.1 Build 1)  -->
  <defs>
    <style>
      .st0 {
        fill: #fff;
      }
    </style>
  </defs>
  <g>
    <g>
      <path class="st0" d="M222.86,264.17c.92.43,1.37.81,1.84.83,10.95.59,21.62-.78,31.93-4.62,11.7-4.36,19.32-12.54,22.97-24.47,3.39-11.09,3.62-22.37,2.08-33.75-.71-5.26-2-10.38-4.3-15.2-3.68-7.72-9.34-13.46-17.3-16.65-6.96-2.79-14.29-3.66-21.78-3.43-2.67.08-4.4,1.36-5.78,3.52-3.17,4.95-5.73,10.26-6.76,15.98-1.5,8.3-2.96,16.71-3.23,25.11-.5,15.85-.16,31.72-.13,47.59,0,1.78.31,3.57.45,5.1h0ZM247.73,269.81c1.72.46,3.42,1.03,5.17,1.38,8.32,1.67,16.39,4.06,24.1,7.69,12.54,5.9,21.42,15.1,26.5,28.09,4.75,12.16,7.33,24.8,9.15,37.64,1.15,8.11,1.79,16.29,3.19,24.35.71,4.09,2.12,8.23,4.05,11.91,3.66,6.97,8.75,8.87,17.4,7.26,1.35-2.35-.76-4.41-.83-6.67-.14-4.57,1.84-7.24,6.1-7.68,4.89-.5,7.94,1.56,8.8,5.92.99,5.07-.76,9.7-5.16,12.32-2.22,1.33-4.77,2.36-7.31,2.89-27.46,5.71-53.83-11.63-59.47-39.27-1.53-7.49-2.26-15.15-3.22-22.75-1.06-8.39-1.97-16.8-2.95-25.19-.09-.79-.18-1.58-.32-2.36-2.81-15.88-11.51-26.25-27.59-30.06-8.46-2-14.59-2.78-22.26-1.94-.21,1.42-.61,2.93-.61,4.45-.06,20.88-.36,41.78.08,62.65.18,8.39,1.6,16.83,3.26,25.09,1.58,7.84,5.25,14.93,10.62,21.01,1.01,1.15,1.92,2.39,2.79,3.48-.34.57-.44.82-.62,1.01-.16.17-.4.38-.61.38-20.88.09-41.76.17-62.64.21-.7,0-1.4-.38-2.04-.56,0-.71-.22-1.42.03-1.68,10.6-10.81,14.5-24.27,15.51-38.88.16-2.37.14-4.75.14-7.13,0-44.94-.03-89.88.04-134.83,0-6.91-.55-13.75-2.05-20.47-2.23-9.99-6.74-18.85-14.66-26.6,1.38-.57,2.17-1,3.02-1.2.76-.18,1.58-.11,2.37-.11,25.65.05,51.29.05,76.94.18,9.58.05,19.02,1.45,28,4.78,5.16,1.92,10.25,4.35,14.85,7.36,14.76,9.66,21.2,23.72,20.63,41.18-.51,15.59-7.44,27.81-19.58,37.29-8.91,6.95-19.04,11.38-29.98,13.88-6.93,1.58-13.98,2.6-20.99,3.87.04.37.07.74.11,1.11h.04Z"/>
      <path class="st0" d="M469.04,311.52c-.77-2.87-1.18-4.86-1.85-6.77-1.97-5.62-4.1-11.18-6.08-16.8-4.66-13.2-9.28-26.4-13.89-39.61-3.07-8.81-6.07-17.65-9.18-26.45-.49-1.38-1.31-2.63-2.15-4.27-4.96,11.06-30.53,86.81-31.52,93.29.66.2,1.34.59,2.03.59,20.49.03,40.97.03,62.63.03h0ZM549.65,390.7c-8.5.91-64.2.7-68.83-.09-.05-.49-.32-1.12-.11-1.44,5.52-8.31,5.89-17.46,4.62-26.95-1.39-10.38-4.94-20.13-8.47-29.89-1.66-4.6-3.47-9.14-5.24-13.79h-70.57c-3.41,9.46-7.09,18.6-9.12,28.28-1.4,6.67-1.49,13.45-.47,20.15,1.2,7.88,4.23,14.96,10.45,20.34.88.76,1.61,1.69,2.32,2.45-.47.68-.61,1.05-.76,1.06-2.07.11-4.14.24-6.21.24-16.79.02-33.57,0-51.72,0,1.7-1.53,2.29-2.31,3.08-2.74,9.18-4.98,15.83-12.54,21.31-21.18,6.97-10.99,12.67-22.63,16.88-34.97,18.73-55.01,37.45-110.03,56.2-165.03.67-1.96,1.43-3.9,2.39-5.74,1.1-2.12,3.97-2.12,4.97-.02.89,1.87,1.57,3.84,2.27,5.79,9.59,26.88,19.21,53.75,28.74,80.65,10.83,30.56,21.37,61.23,32.46,91.69,5.34,14.67,12.09,28.73,23.35,40.05,2.01,2.01,4.04,4.01,6.15,5.91,1.7,1.54,3.53,2.93,6.31,5.2h0v.03Z"/>
      <path class="st0" d="M543.24,160.36c5.87-.88,61.81-.84,66.6-.11,0,.5.22,1.2-.03,1.46-9.52,9.77-13.85,21.81-15.17,35.06-.76,7.64-1.31,15.33-1.34,22.99-.12,39.78-.22,79.56.09,119.34.07,8.42,1.38,16.92,2.97,25.22,1.66,8.69,5.57,16.55,11.68,23.15.84.91,1.55,1.96,2.18,2.76-.31.69-.36.99-.54,1.16-.17.16-.48.24-.73.24-20.15.09-40.3.18-60.46.23-1.31,0-2.63-.23-3.94-.4-.17-.02-.29-.41-.72-1.06.37-.63.73-1.58,1.36-2.25,8.95-9.54,12.77-21.19,13.99-33.9.35-3.69.49-7.41.5-11.12.03-44.82.09-89.64-.06-134.46-.02-6.59-.73-13.23-1.77-19.75-1.53-9.62-5.63-18.18-12.29-25.41-.69-.75-1.23-1.64-2.35-3.16h.03Z"/>
      <path class="st0" d="M781.48,397.68c-2.26-3.23-4.5-6.46-6.76-9.68-27.98-39.79-54.79-80.37-81.78-120.83-13.2-19.79-26.43-39.55-39.68-59.31-2.02-3.01-3.79-6.26-7.33-8.96-.61,1.65-1.27,2.76-1.39,3.91-.44,3.93-.96,7.88-.97,11.82-.07,40.71,0,81.43-.07,122.14-.01,8.58,1.57,16.8,4.62,24.78,4.16,10.86,10.35,20.19,20.23,26.74.64.42,1.2.94,1.74,1.37-.33.51-.42.82-.62.94-.43.26-.92.6-1.39.6-19.3.07-38.59.12-57.89.13-.71,0-1.42-.44-2.49-.79.45-.8.64-1.59,1.13-1.92,13.31-8.96,20.22-22.07,23.58-37.21,1.25-5.63,1.79-11.52,1.82-17.29.15-38.86.06-77.73.1-116.59.01-12.39-2.63-24.1-8.28-35.14-3.71-7.24-8.77-13.14-16.12-16.92-2.04-1.05-3.9-2.42-5.93-3.69.64-.66.96-1.29,1.28-1.29,17.96-.05,35.92-.04,54.15-.04,1.44,1.95,2.92,3.78,4.22,5.72,34.71,51.84,69.39,103.69,104.09,155.52,1.57,2.34,3.25,4.6,5.35,7.55,1.59-2.92,1.15-5.28,1.15-7.5.04-30.93.06-61.86.03-92.8,0-6.34.04-12.7-.38-19.02-.75-11.27-4.29-21.72-10.26-31.32-3.54-5.66-7.9-10.58-13.51-14.31-1.04-.69-2-1.49-3.04-2.28.64-.64.97-1.27,1.3-1.27,20.52-.05,41.04-.04,61.63-.04-.12,1.06,0,1.82-.25,1.99-14.5,9.4-21.55,23.43-25.04,39.78-1.17,5.49-1.28,11.01-1.27,16.56.07,55.25.14,110.5.2,165.76,0,4.14.1,8.3-2.14,12.9h-.03Z"/>
      <path class="st0" d="M865.44,169.22c-3.81,5.15-6.08,10.75-7.45,16.66-2.1,8.99-3.21,18.12-3.21,27.37,0,38.96.1,77.92-.03,116.89-.03,8.98.46,17.88,1.71,26.75,1.07,7.63,3.32,14.88,7.24,21.56,1.08,1.83,2.2,3.53,4.64,3.84,14.44,1.82,28.89,2.53,43.18-.93,24.31-5.88,40.72-21.09,50.59-43.69,5.75-13.16,8.32-27.12,9.62-41.34,1.34-14.72,1.35-29.45-.02-44.17-1.29-13.96-3.97-27.6-9.55-40.55-8.66-20.09-23.5-33.28-44.49-39.48-14.83-4.38-30.02-5.27-45.35-4.19-2.33.16-4.61.84-6.87,1.26h0v.02ZM804.36,390.28c1.66-2.26,2.18-3.13,2.85-3.85,7.59-8.23,11.65-18.09,12.99-29.05.73-5.99,1.25-12.05,1.26-18.08.1-43.7.03-87.4.08-131.1,0-7.15-.8-14.19-2.37-21.13-1.94-8.61-5.63-16.39-11.65-22.98-.82-.9-1.45-1.97-2.07-2.82,1.11-1.88,2.58-1.47,3.79-1.47,6.58,0,13.16.13,19.74.15,10.27.02,20.54-.27,30.8.03,14.46.42,28.92.98,43.34,2.01,8.9.64,17.79,1.94,26.58,3.51,27.34,4.87,47.6,20.08,62.08,43.38,11.37,18.29,17,38.37,17.9,59.82.59,14.01-.13,27.95-3.98,41.49-11.78,41.48-38.98,66.93-80.84,76.78-12.1,2.85-24.44,3.6-36.86,3.53-25.01-.14-50.02-.15-75.03-.21h-8.63v-.02h.02Z"/>
      <path class="st0" d="M1127.75,311.52c-.77-2.87-1.18-4.86-1.85-6.77-1.97-5.62-4.1-11.18-6.08-16.8-4.66-13.2-9.28-26.4-13.89-39.61-3.07-8.81-6.07-17.65-9.18-26.45-.49-1.38-1.31-2.63-2.15-4.27-4.96,11.06-30.53,86.81-31.52,93.29.66.2,1.34.59,2.03.59,20.49.03,40.97.03,62.63.03h.01ZM1208.36,390.7c-8.5.91-64.2.7-68.83-.09-.05-.49-.32-1.12-.11-1.44,5.52-8.31,5.89-17.46,4.62-26.95-1.39-10.38-4.94-20.13-8.47-29.89-1.66-4.6-3.47-9.14-5.24-13.79h-70.57c-3.41,9.46-7.09,18.6-9.12,28.28-1.4,6.67-1.49,13.45-.47,20.15,1.2,7.88,4.23,14.96,10.45,20.34.88.76,1.61,1.69,2.32,2.45-.47.68-.61,1.05-.76,1.06-2.07.11-4.14.24-6.21.24-16.79.02-33.57,0-51.72,0,1.7-1.53,2.29-2.31,3.08-2.74,9.18-4.98,15.83-12.54,21.31-21.18,6.97-10.99,12.67-22.63,16.88-34.97,18.73-55.01,37.45-110.03,56.2-165.03.67-1.96,1.43-3.9,2.39-5.74,1.1-2.12,3.97-2.12,4.97-.02.89,1.87,1.57,3.84,2.27,5.79,9.59,26.88,19.21,53.75,28.74,80.65,10.83,30.56,21.37,61.23,32.46,91.69,5.34,14.67,12.09,28.73,23.35,40.05,2.01,2.01,4.04,4.01,6.15,5.91,1.7,1.54,3.53,2.93,6.31,5.2h0v.03Z"/>
      <path class="st0" d="M1380.03,397.68c-2.26-3.23-4.5-6.46-6.76-9.68-27.98-39.79-54.79-80.37-81.78-120.83-13.2-19.79-26.43-39.55-39.68-59.31-2.02-3.01-3.79-6.26-7.33-8.96-.61,1.65-1.27,2.76-1.39,3.91-.44,3.93-.96,7.88-.97,11.82-.07,40.71,0,81.43-.07,122.14-.01,8.58,1.57,16.8,4.62,24.78,4.16,10.86,10.35,20.19,20.23,26.74.64.42,1.2.94,1.74,1.37-.33.51-.42.82-.62.94-.43.26-.92.6-1.39.6-19.3.07-38.59.12-57.89.13-.71,0-1.42-.44-2.49-.79.45-.8.64-1.59,1.13-1.92,13.31-8.96,20.22-22.07,23.58-37.21,1.25-5.63,1.79-11.52,1.82-17.29.15-38.86.06-77.73.1-116.59.01-12.39-2.63-24.1-8.28-35.14-3.71-7.24-8.77-13.14-16.12-16.92-2.04-1.05-3.9-2.42-5.93-3.69.64-.66.96-1.29,1.28-1.29,17.96-.05,35.92-.04,54.15-.04,1.44,1.95,2.92,3.78,4.22,5.72,34.71,51.84,69.39,103.69,104.09,155.52,1.57,2.34,3.25,4.6,5.35,7.55,1.59-2.92,1.15-5.28,1.15-7.5.04-30.93.06-61.86.03-92.8,0-6.34.04-12.7-.38-19.02-.75-11.27-4.29-21.72-10.26-31.32-3.54-5.66-7.9-10.58-13.51-14.31-1.04-.69-2-1.49-3.04-2.28.64-.64.97-1.27,1.3-1.27,20.52-.05,41.04-.04,61.63-.04-.12,1.06,0,1.82-.25,1.99-14.5,9.4-21.55,23.43-25.04,39.78-1.17,5.49-1.28,11.01-1.27,16.56.07,55.25.14,110.5.2,165.76,0,4.14.1,8.3-2.14,12.9h-.03Z"/>
      <path class="st0" d="M1578.19,180.01c-.54,13.37-1.09,27.05-1.69,40.73-.01.34-.55.66-1.23,1.41-1.12-2.41-2.2-4.59-3.16-6.83-4.22-9.92-9.81-18.98-16.53-27.4-14.37-18.03-33.4-24.14-55.69-21.88-16.2,1.64-28.71,9.5-38.19,22.66-9.25,12.84-15.11,27.12-18.39,42.47-4.18,19.56-5.32,39.33-3.77,59.3.97,12.5,2.83,24.79,6.58,36.77,3.77,12.04,9.16,23.27,17.34,32.93,18.03,21.29,41.03,27.34,67.52,20.75,12.5-3.11,22.49-10.59,30.15-21.02,4.69-6.39,8.79-13.12,12.06-20.35,3.14-6.95,6.31-13.9,9.46-20.85,2.12.28,1.5,1.83,1.47,2.89-.09,4.08-.25,8.16-.51,12.22-.7,10.9-1.22,21.8-.42,32.56-.82.35-1.36.81-1.69.69-5.72-2.13-10.52-.28-14.8,3.46-18.01,15.72-39.33,20.69-62.57,19.17-8.91-.59-17.74-1.93-26.24-4.82-33.97-11.55-56.09-35.03-68.24-68.31-4.13-11.31-6.01-23.14-6.47-35.19-.68-17.7.76-35.13,6.38-52.06,5.9-17.78,15.62-33.11,29.45-45.79,16.45-15.09,36.06-22.78,58.14-24.04,8.1-.46,16.29.18,24.41.69,7.99.5,15.43,3.24,22.54,6.81,4.78,2.4,9.53,4.89,14.14,7.58,5.41,3.17,11.02,5.27,17.42,4.54.5-.05,1.02.04,1.51.14.22.05.39.28,1,.76h.02Z"/>
      <path class="st0" d="M1742.56,392.07c-2.17.21-3.98.53-5.78.52-52.82-.27-105.64-.11-159.29-1.19.77-1.49,1.03-2.44,1.63-3.09,8.88-9.52,12.79-21.11,14-33.78.35-3.68.5-7.39.5-11.08.03-44.95.08-89.9-.05-134.85-.02-6.04-.64-12.14-1.58-18.12-1.59-10.15-5.8-19.17-12.93-26.71-.52-.55-.83-1.29-1.31-2.06,1.99-1.98,4.44-1.48,6.69-1.48,12.43-.02,24.86.05,37.28.07,18.25.02,36.49.09,54.74,0,16.39-.07,32.78-.32,49.17-.44,2.59-.02,5.18.21,7.62.33,1.37,6.04,2.69,30.19,2.02,35.55-.48-.08-1.21.01-1.4-.26-10.13-14.63-24.77-21.73-41.69-24.95-3.62-.69-7.33-1.11-11.01-1.15-12.96-.14-25.92-.07-38.87-.05-1.31,0-2.63.17-4.03.27-4.64,5.42-7.02,11.94-8.24,18.67-1.49,8.3-2.6,16.75-2.85,25.16-.45,14.79-.14,29.61-.1,44.42,0,2.31.31,4.62.49,7.16,4.89,1.05,9.37.67,13.78.54,11.49-.33,22.57-2.58,32.89-7.86,7.88-4.03,14.77-9.26,19.73-16.76.56-.84,1.26-1.58,2.43-3.02.53,1.56,1.07,2.41,1.08,3.27.07,3.43-.03,6.87-.03,10.31v48.87c-1.53.99-2.25.33-2.87-.61-9.65-14.38-23.97-21.14-40.33-24.17-8.55-1.58-17.27-1.55-26.37-.58-.26,2.01-.69,3.77-.69,5.53-.07,19.83-.36,39.67.03,59.49.16,8.14,1.45,16.33,2.93,24.36,1.2,6.48,3.7,12.67,7.74,17.85.67.3,1.14.71,1.6.71,17.44-.07,34.89.06,52.33-.35,10.42-.24,20.32-2.86,29.4-8.37,7.74-4.69,13.47-10.97,16.94-19.27,1.78-4.27,3.24-8.68,5.34-12.92.69,16.69.64,33.24-.94,50.03h0Z"/>
    </g>
    <g>
      <path class="st0" d="M534.91,546.64c1.89-.17,4.8-.2,7.61-.71,11.61-2.08,20.93-8.19,28.73-16.81,5.02-5.54,8.97-11.81,12.35-18.46,3.91-7.73,7.22-15.7,9.34-24.12,1.25-4.98,1.97-10.02,1.05-15.14-1.08-5.97-4.55-10.11-10.22-12.07-6.48-2.25-13.23-2.67-20.04-1.94-1.39.15-2.58.54-3.48,1.67-1.65,2.07-3.49,4.03-4.95,6.23-3.45,5.19-5.8,10.93-8.18,16.68-5.35,13.01-10.82,25.98-16.22,38.97-1.87,4.5-3.87,8.95-5.14,13.69-.8,3.03-1.44,6.03-1.03,9.18.25,1.9.51,2.23,2.49,2.41,2.21.19,4.43.26,7.65.43h.02ZM538.18,453.81h4.27c6.88,0,13.77-.21,20.64.08,8.75.37,17.54.39,26.15,2.35,3.49.79,6.86,1.97,9.73,4.13,4.88,3.64,7.3,8.76,8.37,14.65,1.08,5.92.52,11.74-1.03,17.46-3.66,13.57-10.46,25.34-20.45,35.27-5.56,5.52-11.8,10.12-18.71,13.73-8.04,4.2-16.62,6.68-25.67,7.65-5.56.59-11.09.3-16.63.31-7.66.02-15.32.04-22.97.01-.93,0-2,.38-2.91-.67,1.11-.92,2.22-1.81,3.29-2.74,5.12-4.48,8.65-10.07,11.25-16.29,6.04-14.42,12.03-28.85,18.04-43.29,1.88-4.5,3.83-8.97,5.63-13.51,1.1-2.78,1.93-5.64,2.41-8.63.51-3.07.18-5.95-1.02-8.78-.19-.45-.21-.96-.38-1.74h0Z"/>
      <path class="st0" d="M647.37,478.19c-.56,0-.72-.05-.76,0-9.43,12.39-18.85,24.77-28.26,37.17-.06.07-.07.2-.06.3,0,.11.07.2.14.37.27.06.57.19.87.19,7.95,0,15.92.01,23.88,0,.5,0,1-.19,1.7-.33.83-12.6,1.65-25.07,2.49-37.71h-.01ZM662.88,453.69c-.25,4.85-.46,9.2-.71,13.53-.38,6.31-.79,12.62-1.18,18.94-.47,7.95-.91,15.9-1.41,23.85-.38,5.99-.93,11.96-1.21,17.95-.14,3.04-.01,6.12.35,9.14.46,3.83,1.89,7.36,4.4,10.39.34.41.61.86,1.1,1.54-.71.17-1.19.32-1.68.38-.43.06-.87,0-1.31,0-6.88,0-13.75.01-20.63.01-1.21,0-2.4.02-3.61-.04-.38-.01-.74-.25-1.29-.44,1.15-1.3,2.22-2.36,3.13-3.57,2.07-2.74,3.3-5.89,4.09-9.2.61-2.54,1.06-5.12,1.13-7.75.08-2.92.34-5.84.53-8.9-.72-.15-1.23-.35-1.74-.35-8.74-.02-17.46-.01-26.19,0-.43,0-.85.12-1.38.2-3.66,4.82-7.79,9.39-10.37,15-.9,1.96-1.6,4.07-2.08,6.18-.66,2.88-.22,4.56,1.44,8.11-.04.09-.06.2-.13.26-.08.07-.19.13-.3.13-7.2.04-14.4.07-21.6.09-.32,0-.64-.09-.95-.18-.06-.01-.09-.17-.13-.25.09-.17.17-.4.31-.47,6.32-2.98,11.45-7.49,16.28-12.46,5.58-5.73,10.33-12.12,15.13-18.45,5.6-7.39,11.17-14.81,16.75-22.2,6.18-8.18,12.38-16.35,18.56-24.53,3.69-4.87,7.36-9.75,11.06-14.61.53-.69,1.09-1.38,1.76-1.93.35-.28.97-.22,1.83-.39h.01Z"/>
      <path class="st0" d="M679.76,454.23c1.06-.15,1.68-.32,2.29-.31,8.39.05,16.8.11,25.56.18-.38.61-.52,1-.79,1.28-3.56,3.5-5.48,7.88-6.55,12.64-.86,3.84-1.29,7.75-1.48,11.7-.27,5.67-.8,11.35-1.21,17.02-.59,8.4-1.17,16.8-1.74,25.2-.06.82,0,1.64,0,2.91.74-.73,1.25-1.11,1.63-1.6,7.02-9.22,14.01-18.46,21.03-27.69,4.56-6,9.16-11.99,13.72-18,2.25-2.97,4.39-6,5.9-9.43.58-1.3,1.13-2.61,1.52-3.97.96-3.31,1.49-6.63-.95-9.56.83-.87,1.75-.65,2.56-.65,3.29.01,6.56.12,9.85.13,3.39.01,6.78-.04,10.18-.05.84,0,1.68.07,2.53.11.05.92-.63.98-1.05,1.17-7.65,3.32-13.98,8.48-19.92,14.21-3.88,3.75-6.99,8.12-10.24,12.38-5.32,6.95-10.59,13.92-15.89,20.9-6.69,8.79-13.33,17.62-20.07,26.37-4.74,6.15-9.24,12.48-13.64,18.88-.25.35-.44.85-.78,1.03-.51.26-1.12.27-1.84.43-.28-2.87.11-5.47.28-8.07.27-4.03.73-8.06.99-12.09.74-11.35,1.41-22.71,2.15-34.05.47-7.2,1.03-14.4,1.58-21.6.26-3.3-.05-6.57-.54-9.81-.47-3.14-2.03-5.92-5.08-9.61h-.02Z"/>
      <path class="st0" d="M798.69,529.13c.47.64.19,1.24-.08,1.87-1.96,4.46-3.9,8.91-5.87,13.36-.71,1.61-1.47,3.2-2.29,5.01-11.25.37-22.53-.05-33.79-.02-11.17.02-22.34-.06-33.4-.09-.4-.65-.19-.99.2-1.28,6.74-4.78,11.02-11.39,14.15-18.86,5.46-13.06,10.89-26.13,16.32-39.21,2.42-5.82,4.88-11.62,7.22-17.47.82-2.04,1.38-4.2,1.93-6.34.96-3.76.84-7.46-.95-11-.08-.18-.04-.43-.06-.74.98-.52,2.08-.39,3.16-.39,12.07,0,24.14.05,36.21.02,7.08-.01,14.17-.15,21.25-.22,1.09,0,2.19.06,3.46.09-.07,2.9-1.61,5.15-2.34,7.64-.71,2.4-1.7,4.73-2.73,7.49-.48-.66-.83-.95-.93-1.3-1.25-4.33-4.4-6.82-8.36-8.36-2.68-1.04-5.53-1.6-8.44-1.61-5.32-.01-10.63.01-15.95-.04-1.31,0-2.3.38-3.25,1.3-2.81,2.73-4.94,5.95-6.88,9.31-3.06,5.28-5.18,10.99-7.56,16.58-1.22,2.85-2.38,5.72-3.55,8.58-.41,1-.79,2.03-1.28,3.29,3.12.89,6.04.41,8.95.15,2.98-.27,5.96-.7,8.74-1.84,2.66-1.09,5.33-2.2,7.8-3.65,2.54-1.5,4.85-3.43,7.47-5.33-.39,2.47-1.67,4.4-2.45,6.48-.85,2.27-1.94,4.47-2.88,6.7-.91,2.14-1.76,4.3-2.67,6.43-.9,2.1-1.52,4.34-2.67,6.31-.98-.13-.76-.83-.89-1.29-.7-2.42-2.01-4.31-4.09-5.84-3.35-2.46-7.09-3.61-11.12-3.88-2.53-.18-5.08-.04-7.61-.04-1.11,1.12-1.44,2.55-1.99,3.87-3.19,7.54-6.45,15.05-9.44,22.66-1.41,3.58-2.34,7.38-3.26,11.12-.65,2.66-.43,3.79.4,6.65.58.09,1.22.28,1.86.27,6.75-.04,13.51.05,20.26-.21,8.26-.32,15.53-3.29,21.58-8.98,1.36-1.28,2.48-2.83,3.69-4.26.78-.93,1.51-1.89,2.27-2.85l-.08-.09h-.04Z"/>
    </g>
  </g>
  <g>
    <path class="st0" d="M887.91,455.13c-.92.86-1.84,1.73-2.75,2.59-11.92,11.23-21.38,24.19-27.85,39.3-6.22,14.53-8.82,29.7-7.96,45.45.47,8.65,2.1,17.11,4.7,25.37.31,1,.57,2.02,1.06,3.77-.84-1.02-1.22-1.38-1.48-1.82-5.39-9.03-9.8-18.49-11.88-28.86-3.1-15.44-1.78-30.47,4.86-44.87,2.87-6.22,6.9-11.68,11.42-16.79,7.12-8.03,15.26-14.9,24.03-21.05,1.75-1.23,3.54-2.4,5.32-3.6.17.17.34.33.52.5h0Z"/>
    <path class="st0" d="M905.4,453.8c21.08-.04,41.72-.08,62.36-.11.41,0,.81.14,1.45.26-1.78,4.94-3.39,9.77-5.39,14.75-.37-.5-.73-.78-.82-1.12-1.08-4.35-4.15-6.82-8.06-8.37-2.85-1.13-5.85-1.69-8.96-1.65-5.68.07-11.36.02-16.92.02-3.68,2.99-6.09,6.73-8.34,10.63-2.96,5.13-5,10.66-7.32,16.08-1.33,3.11-2.62,6.24-3.9,9.37-.33.8-.59,1.63-.93,2.6.46.2.82.49,1.2.5,6.95.23,13.73-.54,20.12-3.57,3.07-1.46,5.99-3.14,8.57-5.38.73-.63,1.51-1.2,2.42-1.93,0,.56.1.91-.01,1.17-3.26,7.86-6.53,15.72-9.82,23.57-.15.36-.47.66-.86,1.2-.28-.98-.45-1.72-.7-2.43-.72-1.99-1.89-3.6-3.64-4.9-3.27-2.44-6.96-3.64-10.95-3.92-2.6-.18-5.22-.03-8.04-.03-.57,1.18-1.18,2.31-1.67,3.5-3.16,7.55-6.41,15.06-9.4,22.68-1.31,3.34-2.32,6.83-3.04,10.34-.62,2.99-.54,6.09.93,8.97.19.37.25.81.38,1.24-.92.74-1.91.51-2.85.51-5.68,0-11.36-.03-17.04-.02-1.64,0-3.28.13-4.91.11-.71,0-1.41-.24-2.46-.43,1.37-1.14,2.46-2.01,3.52-2.93,5.07-4.38,8.55-9.89,11.11-16,7.76-18.52,15.47-37.05,23.16-55.6,1.25-3.03,2.19-6.16,2.58-9.45.33-2.78.06-5.44-1.09-8.01-.17-.38-.31-.78-.66-1.65h0Z"/>
    <path class="st0" d="M988.94,502.58c1.39-3.22,2.45-6.59,2.14-10.24-.3-3.62-2.12-5.45-5.7-5.81-4.08-.42-7.71.78-11.01,3.11-3.89,2.75-6.9,6.31-9.39,10.32-.49.8-1.45,1.44-1.19,2.6,2.64.45,22.03.48,25.16.02ZM982.43,538.44c-5.42,4.98-11.13,8.2-17.95,9.28-3.11.5-6.21.47-9.34.02-8.93-1.3-13.81-8.41-14.41-15.72-.38-4.66.51-9.12,2.16-13.43,4.93-12.89,13.37-22.83,25.37-29.67,4.71-2.69,9.78-4.35,15.25-4.64,3.04-.16,6.03.18,8.92,1.11,3.97,1.29,6.7,3.98,8.24,7.8,1.03,2.56.73,5.28.31,7.93-.17,1.09-.58,2.14-.91,3.31-1.58.68-3.26.76-4.9.83-2.68.11-5.36.09-8.04.11-7.48.05-14.97.09-22.45.15-.99,0-1.98.11-2.96.16-1.4,1.76-2.25,3.71-3.14,5.62-2.47,5.27-4.48,10.69-5.33,16.49-.35,2.35-.23,4.63.07,6.98.52,4.07,4.14,7.51,8.15,8.28,3.37.65,6.69.59,9.92-.5,2.53-.85,4.98-1.95,7.45-2.97,1-.41,1.9-1.08,3.59-1.14h0Z"/>
    <path class="st0" d="M1003.59,534.93c.12,1.19.15,2.39.38,3.56.95,4.8,4.55,7.19,9.34,6.28,1.96-.37,3.7-1.22,5.3-2.39,4.86-3.52,8.52-8.08,11.11-13.43,4.12-8.5,8.05-17.09,12.04-25.66.5-1.08.92-2.21,1.27-3.35,1.44-4.65-.83-9.36-5.35-11.19-2.21-.9-4.43-.87-6.7-.23-4.64,1.31-7.92,4.43-10.71,8.12-2.03,2.68-3.94,5.46-5.78,8.28-3.76,5.76-6.69,11.93-8.71,18.51-1.15,3.74-2.18,7.52-2.2,11.5h0ZM1061.11,485.86c-.11,1.71-.73,2.86-1.25,4.04-2.98,6.76-5.97,13.52-8.95,20.28-3.33,7.56-6.69,15.1-9.98,22.68-.73,1.69-1.31,3.46-1.76,5.25-.29,1.14-.33,2.38-.26,3.56.11,1.81,1.08,2.8,2.93,2.84,1.61.03,3.24-.21,4.85-.43.84-.12,1.66-.43,2.53-.67.33.79-.31.94-.68,1.18-3.88,2.5-8.12,3.58-12.73,3.11-2.13-.22-3.97-1.13-5.61-2.43-1.64-1.3-2.31-3.13-2.32-5.18,0-.97.14-1.94.22-2.9-.7-.38-.96.18-1.29.54-1.64,1.74-3.13,3.64-4.92,5.2-4.63,4.03-10.02,5.96-16.24,5.36-4.97-.48-11.45-4.1-13.47-10.81-.99-3.29-1.23-6.56-.67-9.98,1.22-7.38,4.57-13.77,8.82-19.78,4.11-5.83,9.05-10.86,14.72-15.15,4.63-3.5,9.57-6.42,15.48-7.26,2.07-.29,4.1-.28,6.16.06,4.18.69,6.87,3.02,8.11,7.05.21.68.51,1.34.91,2.37,1.33-2.8,2.49-5.23,3.67-7.71,2.04-.06,3.99-.02,5.91-.21,1.82-.18,3.61-.62,5.8-1.01h0Z"/>
    <path class="st0" d="M1092.73,485.44c2.77.58,5.38.35,7.96.27,2.57-.08,5.13-.39,7.6-.59.6.95.17,1.54-.44,1.84-.8.39-1.69.71-2.57.8-2.81.28-5.64.48-8.46.62-1.92.09-3.84.02-5.99.02-.47.98-1.01,1.95-1.43,2.97-5.13,12.45-10.29,24.88-15.34,37.36-1.27,3.14-2.2,6.41-3.28,9.63-.18.53-.35,1.09-.38,1.64-.11,1.71.85,3.07,2.52,3.56,1.54.45,3.11.57,4.71.32,2-.31,4-.63,6.5-1.02-.66.64-.96,1.04-1.35,1.29-4.21,2.6-8.76,4.3-13.73,4.51-2.12.09-4.3-.2-6.39-.6-1.17-.22-2.35-.88-3.32-1.61-1.44-1.07-2.09-2.55-1.72-4.47.65-3.36,1.81-6.54,3.11-9.68,5.72-13.79,11.47-27.58,17.2-41.37.25-.61.4-1.26.66-2.09-.71-.27-1.28-.56-1.88-.71-.94-.23-2.02.27-2.89-.51,3.91-1.81,7.83-3.49,11.63-5.43,3.8-1.94,7.1-4.67,10.82-7.78-1.04,4.11-3.43,7.2-3.54,11.03h0Z"/>
    <path class="st0" d="M1097.18,541.88c.1,5.46-4.66,7.53-8.79,5.82-.98-.41-1.6-1.19-1.97-2.2-.86-2.36-.27-5.11,1.57-6.75,1.95-1.74,4.21-2.04,6.62-1.17,1.29.47,2.03,1.49,2.36,2.78.17.65.18,1.33.21,1.52h0Z"/>
    <path class="st0" d="M1178.12,547.5c-.94.17-1.36.3-1.77.3-8.17,0-16.34,0-24.5-.03-.17,0-.34-.21-.69-.44.27-.31.48-.64.78-.86,6.15-4.68,10.33-10.81,13.27-17.87,7.57-18.18,15.18-36.34,22.75-54.52,1.43-3.42,2.65-6.92,2.99-10.65.17-1.84.36-3.69-.59-5.58-5.27-.71-10.26.61-15.2,2.44-4.96,1.83-9.34,4.62-13.69,8.32.49-2.99,2.07-5.05,3.04-7.34,1.01-2.39,2.22-4.7,3.24-6.82.35-.19.44-.25.54-.29.1-.04.21-.07.32-.08.98-.03,1.96-.06,2.94-.06,22.01,0,44.01,0,66.02.01.22,0,.43.03.65.06.11.01.22.05.31.1.09.05.15.13.42.36-1.31,4.46-3.18,8.84-4.65,13.35-.09.27-.44.44-.79.77-.7-2.42-1.86-4.45-3.64-6.13-3.15-2.99-7.03-4.34-11.21-4.77-5.8-.59-6.66-.15-10.19,4.45-3.14,4.08-5.61,8.58-7.6,13.3-7.22,17.15-14.37,34.33-21.41,51.56-1.31,3.2-2.25,6.6-2.93,10-.69,3.43-.64,6.94,1.6,10.44h0Z"/>
    <path class="st0" d="M1259.05,502.58c1.39-3.22,2.45-6.59,2.14-10.24-.3-3.62-2.12-5.45-5.7-5.81-4.08-.42-7.71.78-11.01,3.11-3.89,2.75-6.9,6.31-9.39,10.32-.49.8-1.45,1.44-1.19,2.6,2.64.45,22.03.48,25.16.02ZM1252.54,538.44c-5.42,4.98-11.13,8.2-17.95,9.28-3.11.5-6.21.47-9.34.02-8.93-1.3-13.81-8.41-14.41-15.72-.38-4.66.51-9.12,2.16-13.43,4.93-12.89,13.37-22.83,25.37-29.67,4.71-2.69,9.78-4.35,15.25-4.64,3.04-.16,6.03.18,8.92,1.11,3.97,1.29,6.7,3.98,8.24,7.8,1.03,2.56.73,5.28.31,7.93-.17,1.09-.58,2.14-.91,3.31-1.58.68-3.26.76-4.9.83-2.68.11-5.36.09-8.04.11-7.48.05-14.97.09-22.45.15-.99,0-1.98.11-2.96.16-1.4,1.76-2.25,3.71-3.14,5.62-2.47,5.27-4.48,10.69-5.33,16.49-.35,2.35-.23,4.63.07,6.98.52,4.07,4.14,7.51,8.15,8.28,3.37.65,6.69.59,9.92-.5,2.53-.85,4.98-1.95,7.45-2.97,1-.41,1.9-1.08,3.59-1.14h0Z"/>
    <path class="st0" d="M1276.99,548.55c-4.52-.18-8.6-.48-12.67-.48-3.93,0-7.85.3-11.78.47-.06-.83.46-.94.82-1.14,4.96-2.73,8.45-6.81,10.71-11.93,2.42-5.5,4.71-11.06,7.03-16.6,2.23-5.33,4.46-10.67,6.63-16.03.68-1.67,1.31-3.4,1.7-5.16.67-3.07.35-5.9-2.76-7.49.02-.28,0-.42.04-.5.05-.08.17-.14.27-.17,5.86-1.35,11.71-2.7,17.57-4.03.18-.04.41.11.83.23.03,1.18-.26,2.35-.65,3.52-.39,1.15-.69,2.34-1.2,4.08,1.23-.85,1.96-1.33,2.66-1.85,4.76-3.57,10.07-5.61,16.03-5.95,2.4-.14,4.76.1,7.08.72,3.16.84,5.09,2.84,5.57,6.14.08.53.2,1.04.37,1.88,1.31-.98,2.39-1.75,3.44-2.58,4.88-3.84,10.44-5.88,16.63-6.18,2.28-.11,4.54.13,6.71.87,3.42,1.17,4.9,3.22,5.18,6.79.15,1.98-.17,3.87-.8,5.7-1.18,3.43-2.41,6.85-3.8,10.2-3.2,7.75-6.5,15.47-9.78,23.19-.4.94-.93,1.81-1.37,2.73-1.08,2.26-2.06,4.56-2.13,7.12-.05,1.96.86,2.9,2.84,3.07,2,.17,3.81-.41,5.54-1.34,1.92-1.03,3.54-2.44,5.04-4.01,1.1-1.15,1.14-1.11,2.87-1.46.56.49.35,1.06.02,1.5-.55.72-1.15,1.41-1.83,2-2.96,2.53-6.27,4.51-9.89,5.92-2.8,1.09-5.73,1.41-8.7.86-4.95-.91-7.4-4.48-6.33-9.42.45-2.1,1.06-4.19,1.88-6.17,3.07-7.44,6.17-14.87,9.43-22.24,1.65-3.74,3.34-7.45,4.52-11.36.39-1.3.7-2.65.81-3.99.27-3.37-1.26-5.17-4.57-5.51-1.93-.2-3.84-.08-5.71.58-3.37,1.2-6.36,2.95-8.91,5.48-1.4,1.39-2.28,3.11-3.07,4.86-1.89,4.25-3.75,8.5-5.58,12.78-2.89,6.78-5.76,13.57-8.6,20.37-.92,2.19-1.86,4.39-1.89,6.85-.02,2.31.12,4.55,1.86,6.34.21.22.28.57.52,1.08-1.43.42-2.75.13-4.04.1-1.36-.03-2.72-.18-4.08-.24-1.36-.06-2.72-.1-4.08-.1-1.36,0-2.73.04-4.08.1-1.36.06-2.72.2-4.08.24-1.31.04-2.63,0-4.27-.46.3-.13.61-.24.9-.4,5.35-2.83,8.97-7.21,11.3-12.71,3.23-7.62,6.42-15.26,9.61-22.9,1.74-4.18,3.51-8.36,5.13-12.59.56-1.46.88-3.07.98-4.64.18-2.77-1.1-4.36-3.84-4.65-1.89-.2-3.93-.29-5.74.19-5.99,1.57-10.7,4.95-13.18,10.82-4.77,11.28-9.45,22.59-14.17,33.89-.79,1.9-1.47,3.83-1.51,5.9-.04,2.29.07,4.56,1.87,6.33.22.21.3.56.7,1.37h0Z"/>
    <path class="st0" d="M1354.2,545.93c2.15-5.24,4.29-10.47,6.46-15.74.82.25.55.89.6,1.33.29,2.53.84,4.99,1.81,7.35,1.15,2.8,3.09,4.73,5.99,5.75,9.36,3.28,20.04-1.67,22.29-12.52.68-3.25-.45-5.86-3.26-7.67-.83-.53-1.73-.96-2.63-1.38-2.09-.98-4.2-1.93-6.3-2.89-2.13-.96-4.02-2.27-5.75-3.83-1.89-1.71-2.94-3.82-3.09-6.36-.12-2,0-3.98.79-5.84,4.42-10.46,12.2-16.7,23.43-18.6,2.34-.39,4.61-.08,6.87.42.32.07.64.18.95.3,3.7,1.45,7.3,1.66,10.93-1.24,0,.78.11,1.19-.02,1.49-1.84,4.13-3.51,8.31-4.82,12.64-.09.29-.37.53-.71.99-.55-1.7-.99-3.25-1.55-4.76-.42-1.12-.89-2.26-1.54-3.26-2.14-3.29-5.43-4.41-9.14-4.25-6.06.26-10.67,3.12-13.79,8.32-.39.66-.69,1.38-.95,2.1-1.38,3.83-.21,6.98,3.36,8.93,1.54.84,3.16,1.55,4.73,2.35,3.54,1.78,7,3.69,10.12,6.2,1.85,1.49,2.8,3.38,3.13,5.62.27,1.85.2,3.72-.36,5.56-.85,2.76-2.04,5.35-3.77,7.67-4.85,6.51-11.25,10.76-19.09,12.8-5,1.3-9.96,1.04-14.34-1.77-3.5-2.24-6.54-2.11-9.71.29-.12.09-.37.01-.64.01h0Z"/>
    <path class="st0" d="M1431.99,457.31c.35.46.73.85.99,1.3,5.4,9.04,9.82,18.51,11.92,28.9,3.12,15.47,1.81,30.51-4.83,44.94-2.41,5.23-5.67,9.93-9.32,14.36-5.66,6.86-12.14,12.9-19.16,18.33-3.58,2.77-7.33,5.33-11.02,7.97-.48.35-1.04.6-2.14,1.22.78-1.59,1.69-2.15,2.43-2.84,6.5-6.06,12.36-12.68,17.43-19.99,8.03-11.57,13.81-24.16,16.84-37.94,2.24-10.19,2.88-20.5,1.91-30.91-.73-7.89-2.36-15.57-4.78-23.1-.19-.61-.33-1.23-.48-1.85-.02-.08.1-.19.21-.39h0Z"/>
  </g>
</svg>