<?xml version="1.0" encoding="UTF-8"?>
<svg id="Layer_1" xmlns="http://www.w3.org/2000/svg" xmlns:xlink="http://www.w3.org/1999/xlink" version="1.1" viewBox="0 0 498.86 210.3">
  <!-- Generator: Adobe Illustrator 29.8.2, SVG Export Plug-In . SVG Version: 2.1.1 Build 3)  -->
  <defs>
    <style>
      .st0 {
        fill: none;
      }

      .st1 {
        fill: #b3a666;
      }

      .st2 {
        clip-path: url(#clippath);
      }
    </style>
    <clipPath id="clippath">
      <rect class="st0" x="13.44" y="17.89" width="471.98" height="174.51"/>
    </clipPath>
  </defs>
  <g class="st2">
    <g>
      <path class="st1" d="M407.79,184.55c5.94-.05,11.87.07,17.81,0,5.48-.05,11.09-.33,16.57-.46,8.91-.21,16,.28,24.24-3.85,8.24-4.13,13.15-10.66,19.01-17.13l-9.66,27.6c-4.01-.4-8.1-.14-12.13-.19-7.32-.09-14.78-.41-22.1-.46-24.67-.18-49.34.15-74,.23,1.33-1.36,2.58-2.8,3.86-4.21,9.37-10.28,10.84-25.84,12.3-39.2V33.28c-.2-2.17-3.9-4.24-5.89-4.5-9.51-1.26-12.99,9.25-15.58,16.22-4.22,11.35-8.04,22.88-12.13,34.28-11.16,31.07-22.52,62.28-31.99,94-1.81,6.07-3.22,12.34-5.41,18.24-2.23,2.5-3.53-.83-4.4-2.69-3.53-7.57-5.71-16.38-8.41-24.3-12.31-36.16-25.22-72.28-38.1-108.23-2.43-6.79-4.53-14-7.16-20.68-1.76-4.45-5.01-8.59-8.17-12.16-.8-.91-1.83-1.65-2.54-2.64,3.36.17,6.71.12,10.08.21,6.88.17,13,.22,19.89,0,3.73-.12,7.44-.22,11.17-.21-.43.57-1.35.83-1.88,1.33-1.88,1.77-3.49,5.96-3.65,8.51-.42,7.07,5.56,20.29,7.94,27.24,8.32,24.26,16.71,48.46,25.04,72.62,2.14,6.22,3.95,12.55,6.27,18.69,1.97-5.57,3.75-11.23,5.74-16.81,8.65-24.25,17.43-48.76,25.58-73.22,1.83-5.46,4.81-12.97,5.88-18.42.53-2.73.52-5.64-.51-8.22-1.75-4.42-5.75-7.96-9.39-10.84l128.36.03,1.02,26.71-4.43-6.73c-7.92-9.78-18.85-14.59-31.5-14.05h-31.75v70.5c4.9-.13,9.82.17,14.71,0,3.36-.11,6.77-.19,9.95-1.33,4.6-1.65,10.17-5.5,13.39-9.17,1.02-1.17,1.76-2.57,2.87-3.66l-.66,36.02-4.75-6.41c-3.38-3.53-7.26-6.47-11.84-8.28-1.09-.43-5.16-1.88-6.08-1.88h-17.58v81.1l.02.02Z"/>
      <path class="st1" d="M98.32,23.31c2.1.97,9.19,1.4,12.26,1.99,29.67,5.7,48.28,26.8,55.9,55.3,6.44,24.12,3.59,54.56-11.44,75.15-19.07,26.11-44.49,33.83-76.01,33.44-18.4-.23-37.13-.58-55.53-.22-2.31.05-4.98.44-7.28.46-.98,0-1.82-.26-2.78-.24,4.4-2.96,8.43-6.12,11.55-10.44,3.7-5.12,6.42-11.48,7.48-17.71V46.34c-1.33-8.27-4.06-16.22-9.95-22.34l-4.21-2.75c3.21.19,6.42.13,9.63.21,19.78.48,39.75-.37,59.48.89,1.57.1,10.12.6,10.89.95h0ZM115.33,35.91c-12.2-7.63-29.71-9.35-43.84-8.7-3.17.15-10.81.87-13.14,3-1.4,1.28-1.18,4.41-1.57,6.17v140.78c-.07,4.42,4.68,5.18,8.15,5.78,16.97,2.94,37.43,1.66,51.66-8.8,20.4-15.01,24.79-39.98,25.57-63.94.86-26.42-2.36-58.95-26.83-74.27h0Z"/>
      <path class="st1" d="M225.86,20.95c3.37,10.86,6.16,22.75,9.04,33.94,9.48,36.81,17.51,74.53,29.91,110.66,2.53,7.36,3.73,14.8,9.95,20.12,1.4,1.2,3.09,2.05,4.48,3.24.16.14.41,0,.28.51-4.48-.45-9.08-.16-13.61-.21-8.98-.1-20.3-1.1-28.98.42-.39.06-.81,0-1.21,0,3.11-2.4,4.73-5.63,5.47-9.46.67-3.54.47-6.06-.27-9.55-.66-3.15-1.86-6.54-2.58-9.35-2.28-8.92-4.26-17.9-6.28-26.88l-47.22.54c-.71,1.4-1.12,2.99-1.78,4.41-3.35,7.22-6.82,14.6-9.82,22.01-3.73,9.25-4.34,17.86,3.75,24.98,1.48,1.31,3.14,2.19,4.76,3.31l-40.92-1.33,6.08-3.08c7.49-4.37,12.08-12.15,15.92-19.67,7.95-15.54,14.57-32.27,21.14-48.44,9.02-22.17,17.79-44.8,26.85-67.14,3.31-8.17,6.82-16.32,9.86-24.62.71-1.95.99-4.02,1.97-5.81.53-.96.59-1.92,2.07-1.57.93.75.8,1.96,1.12,2.97v-.02ZM214.05,61.46c-.51-.09-.35.04-.49.29-.58,1.05-.93,2.68-1.46,3.85-4.27,9.45-7.81,18.86-11.65,28.57-4.16,10.48-8.51,20.85-12.5,31.49-.18.46-1.24,3.52-1.1,3.66l44.23-.22-17.03-67.62h0Z"/>
    </g>
  </g>
</svg>