<?xml version="1.0" encoding="UTF-8"?>
<svg id="Layer_1" xmlns="http://www.w3.org/2000/svg" version="1.1" viewBox="0 0 1920 1080">
  <!-- Generator: Adobe Illustrator 30.2.1, SVG Export Plug-In . SVG Version: 2.1.1 Build 1)  -->
  <defs>
    <style>
      .st0 {
        fill: #fff;
      }

      .st1 {
        fill: #c71d23;
      }
    </style>
  </defs>
  <g>
    <path class="st0" d="M202.51,474.42c.92.43,1.37.81,1.84.83,10.95.59,21.62-.78,31.93-4.62,11.7-4.36,19.32-12.54,22.97-24.47,3.39-11.09,3.62-22.37,2.08-33.75-.71-5.26-2-10.38-4.3-15.2-3.68-7.72-9.34-13.46-17.3-16.65-6.96-2.79-14.29-3.66-21.78-3.43-2.67.08-4.4,1.36-5.78,3.52-3.17,4.95-5.73,10.26-6.76,15.98-1.5,8.3-2.96,16.71-3.23,25.11-.5,15.85-.16,31.72-.13,47.59,0,1.78.31,3.57.45,5.1h0ZM227.38,480.06c1.72.46,3.42,1.03,5.17,1.38,8.32,1.67,16.39,4.06,24.1,7.69,12.54,5.9,21.42,15.1,26.5,28.09,4.75,12.16,7.33,24.8,9.15,37.64,1.15,8.11,1.79,16.29,3.19,24.35.71,4.09,2.12,8.23,4.05,11.91,3.66,6.97,8.75,8.87,17.4,7.26,1.35-2.35-.76-4.41-.83-6.67-.14-4.57,1.84-7.24,6.1-7.68,4.89-.5,7.94,1.56,8.8,5.92.99,5.07-.76,9.7-5.16,12.32-2.22,1.33-4.77,2.36-7.31,2.89-27.46,5.71-53.83-11.63-59.47-39.27-1.53-7.49-2.26-15.15-3.22-22.75-1.06-8.39-1.97-16.8-2.95-25.19-.09-.79-.18-1.58-.32-2.36-2.81-15.88-11.51-26.25-27.59-30.06-8.46-2-14.59-2.78-22.26-1.94-.21,1.42-.61,2.93-.61,4.45-.06,20.88-.36,41.78.08,62.65.18,8.39,1.6,16.83,3.26,25.09,1.58,7.84,5.25,14.93,10.62,21.01,1.01,1.15,1.92,2.39,2.79,3.48-.34.57-.44.82-.62,1.01-.16.17-.4.38-.61.38-20.88.09-41.76.17-62.64.21-.7,0-1.4-.38-2.04-.56,0-.71-.22-1.42.03-1.68,10.6-10.81,14.5-24.27,15.51-38.88.16-2.37.14-4.75.14-7.13,0-44.94-.03-89.88.04-134.83,0-6.91-.55-13.75-2.05-20.47-2.23-9.99-6.74-18.85-14.66-26.6,1.38-.57,2.17-1,3.02-1.2.76-.18,1.58-.11,2.37-.11,25.65.05,51.29.05,76.94.18,9.58.05,19.02,1.45,28,4.78,5.16,1.92,10.25,4.35,14.85,7.36,14.76,9.66,21.2,23.72,20.63,41.18-.51,15.59-7.44,27.81-19.58,37.29-8.91,6.95-19.04,11.38-29.98,13.88-6.93,1.58-13.98,2.6-20.99,3.87.04.37.07.74.11,1.11h.04Z"/>
    <path class="st0" d="M448.69,521.77c-.77-2.87-1.18-4.86-1.85-6.77-1.97-5.62-4.1-11.18-6.08-16.8-4.66-13.2-9.28-26.4-13.89-39.61-3.07-8.81-6.07-17.65-9.18-26.45-.49-1.38-1.31-2.63-2.15-4.27-4.96,11.06-30.53,86.81-31.52,93.29.66.2,1.34.59,2.03.59,20.49.03,40.97.03,62.63.03h0ZM529.3,600.95c-8.5.91-64.2.7-68.83-.09-.05-.49-.32-1.12-.11-1.44,5.52-8.31,5.89-17.46,4.62-26.95-1.39-10.38-4.94-20.13-8.47-29.89-1.66-4.6-3.47-9.14-5.24-13.79h-70.57c-3.41,9.46-7.09,18.6-9.12,28.28-1.4,6.67-1.49,13.45-.47,20.15,1.2,7.88,4.23,14.96,10.45,20.34.88.76,1.61,1.69,2.32,2.45-.47.68-.61,1.05-.76,1.06-2.07.11-4.14.24-6.21.24-16.79.02-33.57,0-51.72,0,1.7-1.53,2.29-2.31,3.08-2.74,9.18-4.98,15.83-12.54,21.31-21.18,6.97-10.99,12.67-22.63,16.88-34.97,18.73-55.01,37.45-110.03,56.2-165.03.67-1.96,1.43-3.9,2.39-5.74,1.1-2.12,3.97-2.12,4.97-.02.89,1.87,1.57,3.84,2.27,5.79,9.59,26.88,19.21,53.75,28.74,80.65,10.83,30.56,21.37,61.23,32.46,91.69,5.34,14.67,12.09,28.73,23.35,40.05,2.01,2.01,4.04,4.01,6.15,5.91,1.7,1.54,3.53,2.93,6.31,5.2h0v.03Z"/>
    <path class="st0" d="M522.89,370.61c5.87-.88,61.81-.84,66.6-.11,0,.5.22,1.2-.03,1.46-9.52,9.77-13.85,21.81-15.17,35.06-.76,7.64-1.31,15.33-1.34,22.99-.12,39.78-.22,79.56.09,119.34.07,8.42,1.38,16.92,2.97,25.22,1.66,8.69,5.57,16.55,11.68,23.15.84.91,1.55,1.96,2.18,2.76-.31.69-.36.99-.54,1.16-.17.16-.48.24-.73.24-20.15.09-40.3.18-60.46.23-1.31,0-2.63-.23-3.94-.4-.17-.02-.29-.41-.72-1.06.37-.63.73-1.58,1.36-2.25,8.95-9.54,12.77-21.19,13.99-33.9.35-3.69.49-7.41.5-11.12.03-44.82.09-89.64-.06-134.46-.02-6.59-.73-13.23-1.77-19.75-1.53-9.62-5.63-18.18-12.29-25.41-.69-.75-1.23-1.64-2.35-3.16h.03Z"/>
    <path class="st0" d="M761.13,607.93c-2.26-3.23-4.5-6.46-6.76-9.68-27.98-39.79-54.79-80.37-81.78-120.83-13.2-19.79-26.43-39.55-39.68-59.31-2.02-3.01-3.79-6.26-7.33-8.96-.61,1.65-1.27,2.76-1.39,3.91-.44,3.93-.96,7.88-.97,11.82-.07,40.71,0,81.43-.07,122.14-.01,8.58,1.57,16.8,4.62,24.78,4.16,10.86,10.35,20.19,20.23,26.74.64.42,1.2.94,1.74,1.37-.33.51-.42.82-.62.94-.43.26-.92.6-1.39.6-19.3.07-38.59.12-57.89.13-.71,0-1.42-.44-2.49-.79.45-.8.64-1.59,1.13-1.92,13.31-8.96,20.22-22.07,23.58-37.21,1.25-5.63,1.79-11.52,1.82-17.29.15-38.86.06-77.73.1-116.59.01-12.39-2.63-24.1-8.28-35.14-3.71-7.24-8.77-13.14-16.12-16.92-2.04-1.05-3.9-2.42-5.93-3.69.64-.66.96-1.29,1.28-1.29,17.96-.05,35.92-.04,54.15-.04,1.44,1.95,2.92,3.78,4.22,5.72,34.71,51.84,69.39,103.69,104.09,155.52,1.57,2.34,3.25,4.6,5.35,7.55,1.59-2.92,1.15-5.28,1.15-7.5.04-30.93.06-61.86.03-92.8,0-6.34.04-12.7-.38-19.02-.75-11.27-4.29-21.72-10.26-31.32-3.54-5.66-7.9-10.58-13.51-14.31-1.04-.69-2-1.49-3.04-2.28.64-.64.97-1.27,1.3-1.27,20.52-.05,41.04-.04,61.63-.04-.12,1.06,0,1.82-.25,1.99-14.5,9.4-21.55,23.43-25.04,39.78-1.17,5.49-1.28,11.01-1.27,16.56.07,55.25.14,110.5.2,165.76,0,4.14.1,8.3-2.14,12.9h-.03Z"/>
    <path class="st0" d="M845.09,379.47c-3.81,5.15-6.08,10.75-7.45,16.66-2.1,8.99-3.21,18.12-3.21,27.37,0,38.96.1,77.92-.03,116.89-.03,8.98.46,17.88,1.71,26.75,1.07,7.63,3.32,14.88,7.24,21.56,1.08,1.83,2.2,3.53,4.64,3.84,14.44,1.82,28.89,2.53,43.18-.93,24.31-5.88,40.72-21.09,50.59-43.69,5.75-13.16,8.32-27.12,9.62-41.34,1.34-14.72,1.35-29.45-.02-44.17-1.29-13.96-3.97-27.6-9.55-40.55-8.66-20.09-23.5-33.28-44.49-39.48-14.83-4.38-30.02-5.27-45.35-4.19-2.33.16-4.61.84-6.87,1.26h0v.02ZM784.01,600.53c1.66-2.26,2.18-3.13,2.85-3.85,7.59-8.23,11.65-18.09,12.99-29.05.73-5.99,1.25-12.05,1.26-18.08.1-43.7.03-87.4.08-131.1,0-7.15-.8-14.19-2.37-21.13-1.94-8.61-5.63-16.39-11.65-22.98-.82-.9-1.45-1.97-2.07-2.82,1.11-1.88,2.58-1.47,3.79-1.47,6.58,0,13.16.13,19.74.15,10.27.02,20.54-.27,30.8.03,14.46.42,28.92.98,43.34,2.01,8.9.64,17.79,1.94,26.58,3.51,27.34,4.87,47.6,20.08,62.08,43.38,11.37,18.29,17,38.37,17.9,59.82.59,14.01-.13,27.95-3.98,41.49-11.78,41.48-38.98,66.93-80.84,76.78-12.1,2.85-24.44,3.6-36.86,3.53-25.01-.14-50.02-.15-75.03-.21h-8.63v-.02h.02Z"/>
    <path class="st0" d="M1107.4,521.77c-.77-2.87-1.18-4.86-1.85-6.77-1.97-5.62-4.1-11.18-6.08-16.8-4.66-13.2-9.28-26.4-13.89-39.61-3.07-8.81-6.07-17.65-9.18-26.45-.49-1.38-1.31-2.63-2.15-4.27-4.96,11.06-30.53,86.81-31.52,93.29.66.2,1.34.59,2.03.59,20.49.03,40.97.03,62.63.03h.01ZM1188.01,600.95c-8.5.91-64.2.7-68.83-.09-.05-.49-.32-1.12-.11-1.44,5.52-8.31,5.89-17.46,4.62-26.95-1.39-10.38-4.94-20.13-8.47-29.89-1.66-4.6-3.47-9.14-5.24-13.79h-70.57c-3.41,9.46-7.09,18.6-9.12,28.28-1.4,6.67-1.49,13.45-.47,20.15,1.2,7.88,4.23,14.96,10.45,20.34.88.76,1.61,1.69,2.32,2.45-.47.68-.61,1.05-.76,1.06-2.07.11-4.14.24-6.21.24-16.79.02-33.57,0-51.72,0,1.7-1.53,2.29-2.31,3.08-2.74,9.18-4.98,15.83-12.54,21.31-21.18,6.97-10.99,12.67-22.63,16.88-34.97,18.73-55.01,37.45-110.03,56.2-165.03.67-1.96,1.43-3.9,2.39-5.74,1.1-2.12,3.97-2.12,4.97-.02.89,1.87,1.57,3.84,2.27,5.79,9.59,26.88,19.21,53.75,28.74,80.65,10.83,30.56,21.37,61.23,32.46,91.69,5.34,14.67,12.09,28.73,23.35,40.05,2.01,2.01,4.04,4.01,6.15,5.91,1.7,1.54,3.53,2.93,6.31,5.2h0v.03Z"/>
    <path class="st0" d="M1359.68,607.93c-2.26-3.23-4.5-6.46-6.76-9.68-27.98-39.79-54.79-80.37-81.78-120.83-13.2-19.79-26.43-39.55-39.68-59.31-2.02-3.01-3.79-6.26-7.33-8.96-.61,1.65-1.27,2.76-1.39,3.91-.44,3.93-.96,7.88-.97,11.82-.07,40.71,0,81.43-.07,122.14-.01,8.58,1.57,16.8,4.62,24.78,4.16,10.86,10.35,20.19,20.23,26.74.64.42,1.2.94,1.74,1.37-.33.51-.42.82-.62.94-.43.26-.92.6-1.39.6-19.3.07-38.59.12-57.89.13-.71,0-1.42-.44-2.49-.79.45-.8.64-1.59,1.13-1.92,13.31-8.96,20.22-22.07,23.58-37.21,1.25-5.63,1.79-11.52,1.82-17.29.15-38.86.06-77.73.1-116.59.01-12.39-2.63-24.1-8.28-35.14-3.71-7.24-8.77-13.14-16.12-16.92-2.04-1.05-3.9-2.42-5.93-3.69.64-.66.96-1.29,1.28-1.29,17.96-.05,35.92-.04,54.15-.04,1.44,1.95,2.92,3.78,4.22,5.72,34.71,51.84,69.39,103.69,104.09,155.52,1.57,2.34,3.25,4.6,5.35,7.55,1.59-2.92,1.15-5.28,1.15-7.5.04-30.93.06-61.86.03-92.8,0-6.34.04-12.7-.38-19.02-.75-11.27-4.29-21.72-10.26-31.32-3.54-5.66-7.9-10.58-13.51-14.31-1.04-.69-2-1.49-3.04-2.28.64-.64.97-1.27,1.3-1.27,20.52-.05,41.04-.04,61.63-.04-.12,1.06,0,1.82-.25,1.99-14.5,9.4-21.55,23.43-25.04,39.78-1.17,5.49-1.28,11.01-1.27,16.56.07,55.25.14,110.5.2,165.76,0,4.14.1,8.3-2.14,12.9h-.03Z"/>
    <path class="st0" d="M1557.84,390.26c-.54,13.37-1.09,27.05-1.69,40.73-.01.34-.55.66-1.23,1.41-1.12-2.41-2.2-4.59-3.16-6.83-4.22-9.92-9.81-18.98-16.53-27.4-14.37-18.03-33.4-24.14-55.69-21.88-16.2,1.64-28.71,9.5-38.19,22.66-9.25,12.84-15.11,27.12-18.39,42.47-4.18,19.56-5.32,39.33-3.77,59.3.97,12.5,2.83,24.79,6.58,36.77,3.77,12.04,9.16,23.27,17.34,32.93,18.03,21.29,41.03,27.34,67.52,20.75,12.5-3.11,22.49-10.59,30.15-21.02,4.69-6.39,8.79-13.12,12.06-20.35,3.14-6.95,6.31-13.9,9.46-20.85,2.12.28,1.5,1.83,1.47,2.89-.09,4.08-.25,8.16-.51,12.22-.7,10.9-1.22,21.8-.42,32.56-.82.35-1.36.81-1.69.69-5.72-2.13-10.52-.28-14.8,3.46-18.01,15.72-39.33,20.69-62.57,19.17-8.91-.59-17.74-1.93-26.24-4.82-33.97-11.55-56.09-35.03-68.24-68.31-4.13-11.31-6.01-23.14-6.47-35.19-.68-17.7.76-35.13,6.38-52.06,5.9-17.78,15.62-33.11,29.45-45.79,16.45-15.09,36.06-22.78,58.14-24.04,8.1-.46,16.29.18,24.41.69,7.99.5,15.43,3.24,22.54,6.81,4.78,2.4,9.53,4.89,14.14,7.58,5.41,3.17,11.02,5.27,17.42,4.54.5-.05,1.02.04,1.51.14.22.05.39.28,1,.76h.02Z"/>
    <path class="st0" d="M1722.21,602.32c-2.17.21-3.98.53-5.78.52-52.82-.27-105.64-.11-159.29-1.19.77-1.49,1.03-2.44,1.63-3.09,8.88-9.52,12.79-21.11,14-33.78.35-3.68.5-7.39.5-11.08.03-44.95.08-89.9-.05-134.85-.02-6.04-.64-12.14-1.58-18.12-1.59-10.15-5.8-19.17-12.93-26.71-.52-.55-.83-1.29-1.31-2.06,1.99-1.98,4.44-1.48,6.69-1.48,12.43-.02,24.86.05,37.28.07,18.25.02,36.49.09,54.74,0,16.39-.07,32.78-.32,49.17-.44,2.59-.02,5.18.21,7.62.33,1.37,6.04,2.69,30.19,2.02,35.55-.48-.08-1.21.01-1.4-.26-10.13-14.63-24.77-21.73-41.69-24.95-3.62-.69-7.33-1.11-11.01-1.15-12.96-.14-25.92-.07-38.87-.05-1.31,0-2.63.17-4.03.27-4.64,5.42-7.02,11.94-8.24,18.67-1.49,8.3-2.6,16.75-2.85,25.16-.45,14.79-.14,29.61-.1,44.42,0,2.31.31,4.62.49,7.16,4.89,1.05,9.37.67,13.78.54,11.49-.33,22.57-2.58,32.89-7.86,7.88-4.03,14.77-9.26,19.73-16.76.56-.84,1.26-1.58,2.43-3.02.53,1.56,1.07,2.41,1.08,3.27.07,3.43-.03,6.87-.03,10.31v48.87c-1.53.99-2.25.33-2.87-.61-9.65-14.38-23.97-21.14-40.33-24.17-8.55-1.58-17.27-1.55-26.37-.58-.26,2.01-.69,3.77-.69,5.53-.07,19.83-.36,39.67.03,59.49.16,8.14,1.45,16.33,2.93,24.36,1.2,6.48,3.7,12.67,7.74,17.85.67.3,1.14.71,1.6.71,17.44-.07,34.89.06,52.33-.35,10.42-.24,20.32-2.86,29.4-8.37,7.74-4.69,13.47-10.97,16.94-19.27,1.78-4.27,3.24-8.68,5.34-12.92.69,16.69.64,33.24-.94,50.03h0Z"/>
  </g>
  <g>
    <path class="st0" d="M654.57,794.32c1.6-.14,4.06-.17,6.44-.6,9.82-1.76,17.71-6.93,24.31-14.22,4.25-4.69,7.59-9.99,10.45-15.62,3.31-6.54,6.11-13.28,7.9-20.41,1.06-4.21,1.67-8.48.89-12.81-.91-5.05-3.85-8.55-8.65-10.21-5.48-1.9-11.19-2.26-16.95-1.64-1.18.13-2.18.46-2.94,1.41-1.4,1.75-2.95,3.41-4.19,5.27-2.92,4.39-4.91,9.25-6.92,14.11-4.53,11.01-9.15,21.98-13.72,32.97-1.58,3.81-3.27,7.57-4.35,11.58-.68,2.56-1.22,5.1-.87,7.77.21,1.61.43,1.89,2.11,2.04,1.87.16,3.75.22,6.47.36h.02ZM657.33,715.78h3.61c5.82,0,11.65-.18,17.46.07,7.4.31,14.84.33,22.12,1.99,2.95.67,5.8,1.67,8.23,3.49,4.13,3.08,6.18,7.41,7.08,12.39.91,5.01.44,9.93-.87,14.77-3.1,11.48-8.85,21.44-17.3,29.84-4.7,4.67-9.98,8.56-15.83,11.62-6.8,3.55-14.06,5.65-21.72,6.47-4.7.5-9.38.25-14.07.26-6.48.02-12.96.03-19.43.01-.79,0-1.69.32-2.46-.57.94-.78,1.88-1.53,2.78-2.32,4.33-3.79,7.32-8.52,9.52-13.78,5.11-12.2,10.18-24.41,15.26-36.62,1.59-3.81,3.24-7.59,4.76-11.43.93-2.35,1.63-4.77,2.04-7.3.43-2.6.15-5.03-.86-7.43-.16-.38-.18-.81-.32-1.47h0Z"/>
    <path class="st0" d="M749.71,736.41c-.47,0-.61-.04-.64,0-7.98,10.48-15.95,20.96-23.91,31.45-.05.06-.06.17-.05.25,0,.09.06.17.12.31.23.05.48.16.74.16,6.73,0,13.47.01,20.2,0,.42,0,.85-.16,1.44-.28.7-10.66,1.4-21.21,2.11-31.9h-.01ZM762.83,715.68c-.21,4.1-.39,7.78-.6,11.45-.32,5.34-.67,10.68-1,16.02-.4,6.73-.77,13.45-1.19,20.18-.32,5.07-.79,10.12-1.02,15.19-.12,2.57-.01,5.18.3,7.73.39,3.24,1.6,6.23,3.72,8.79.29.35.52.73.93,1.3-.6.14-1.01.27-1.42.32-.36.05-.74,0-1.11,0-5.82,0-11.63.01-17.45.01-1.02,0-2.03.02-3.05-.03-.32-.01-.63-.21-1.09-.37.97-1.1,1.88-2,2.65-3.02,1.75-2.32,2.79-4.98,3.46-7.78.52-2.15.9-4.33.96-6.56.07-2.47.29-4.94.45-7.53-.61-.13-1.04-.3-1.47-.3-7.39-.02-14.77-.01-22.16,0-.36,0-.72.1-1.17.17-3.1,4.08-6.59,7.94-8.77,12.69-.76,1.66-1.35,3.44-1.76,5.23-.56,2.44-.19,3.86,1.22,6.86-.03.08-.05.17-.11.22-.07.06-.16.11-.25.11-6.09.03-12.18.06-18.27.08-.27,0-.54-.08-.8-.15-.05-.01-.08-.14-.11-.21.08-.14.14-.34.26-.4,5.35-2.52,9.69-6.34,13.77-10.54,4.72-4.85,8.74-10.25,12.8-15.61,4.74-6.25,9.45-12.53,14.17-18.78,5.23-6.92,10.47-13.83,15.7-20.75,3.12-4.12,6.23-8.25,9.36-12.36.45-.58.92-1.17,1.49-1.63.3-.24.82-.19,1.55-.33h0Z"/>
    <path class="st0" d="M777.11,716.14c.9-.13,1.42-.27,1.94-.26,7.1.04,14.21.09,21.62.15-.32.52-.44.85-.67,1.08-3.01,2.96-4.64,6.67-5.54,10.69-.73,3.25-1.09,6.56-1.25,9.9-.23,4.8-.68,9.6-1.02,14.4-.5,7.11-.99,14.21-1.47,21.32-.05.69,0,1.39,0,2.46.63-.62,1.06-.94,1.38-1.35,5.94-7.8,11.85-15.62,17.79-23.43,3.86-5.08,7.75-10.14,11.61-15.23,1.9-2.51,3.71-5.08,4.99-7.98.49-1.1.96-2.21,1.29-3.36.81-2.8,1.26-5.61-.8-8.09.7-.74,1.48-.55,2.17-.55,2.78.01,5.55.1,8.33.11,2.87.01,5.74-.03,8.61-.04.71,0,1.42.06,2.14.09.04.78-.53.83-.89.99-6.47,2.81-11.83,7.17-16.85,12.02-3.28,3.17-5.91,6.87-8.66,10.47-4.5,5.88-8.96,11.78-13.44,17.68-5.66,7.44-11.28,14.91-16.98,22.31-4.01,5.2-7.82,10.56-11.54,15.97-.21.3-.37.72-.66.87-.43.22-.95.23-1.56.36-.24-2.43.09-4.63.24-6.83.23-3.41.62-6.82.84-10.23.63-9.6,1.19-19.21,1.82-28.81.4-6.09.87-12.18,1.34-18.27.22-2.79-.04-5.56-.46-8.3-.4-2.66-1.72-5.01-4.3-8.13h-.02Z"/>
    <path class="st0" d="M877.73,779.5c.4.54.16,1.05-.07,1.58-1.66,3.77-3.3,7.54-4.97,11.3-.6,1.36-1.24,2.71-1.94,4.24-9.52.31-19.06-.04-28.59-.02-9.45.02-18.9-.05-28.26-.08-.34-.55-.16-.84.17-1.08,5.7-4.04,9.32-9.64,11.97-15.96,4.62-11.05,9.21-22.11,13.81-33.17,2.05-4.92,4.13-9.83,6.11-14.78.69-1.73,1.17-3.55,1.63-5.36.81-3.18.71-6.31-.8-9.31-.07-.15-.03-.36-.05-.63.83-.44,1.76-.33,2.67-.33,10.21,0,20.42.04,30.63.02,5.99-.01,11.99-.13,17.98-.19.92,0,1.85.05,2.93.08-.06,2.45-1.36,4.36-1.98,6.46-.6,2.03-1.44,4-2.31,6.34-.41-.56-.7-.8-.79-1.1-1.06-3.66-3.72-5.77-7.07-7.07-2.27-.88-4.68-1.35-7.14-1.36-4.5-.01-8.99.01-13.49-.03-1.11,0-1.95.32-2.75,1.1-2.38,2.31-4.18,5.03-5.82,7.88-2.59,4.47-4.38,9.3-6.4,14.03-1.03,2.41-2.01,4.84-3,7.26-.35.85-.67,1.72-1.08,2.78,2.64.75,5.11.35,7.57.13,2.52-.23,5.04-.59,7.39-1.56,2.25-.92,4.51-1.86,6.6-3.09,2.15-1.27,4.1-2.9,6.32-4.51-.33,2.09-1.41,3.72-2.07,5.48-.72,1.92-1.64,3.78-2.44,5.67-.77,1.81-1.49,3.64-2.26,5.44-.76,1.78-1.29,3.67-2.26,5.34-.83-.11-.64-.7-.75-1.09-.59-2.05-1.7-3.65-3.46-4.94-2.83-2.08-6-3.05-9.41-3.28-2.14-.15-4.3-.03-6.44-.03-.94.95-1.22,2.16-1.68,3.27-2.7,6.38-5.46,12.73-7.99,19.17-1.19,3.03-1.98,6.24-2.76,9.41-.55,2.25-.36,3.21.34,5.63.49.08,1.03.24,1.57.23,5.71-.03,11.43.04,17.14-.18,6.99-.27,13.14-2.78,18.26-7.6,1.15-1.08,2.1-2.39,3.12-3.6.66-.79,1.28-1.6,1.92-2.41l-.07-.08h-.03Z"/>
    <path class="st0" d="M930.56,757.62c-.31,0-.39-.02-.41,0-5.17,6.8-10.34,13.6-15.51,20.4-.03.04-.04.11-.03.16,0,.06.04.11.08.2.15.03.31.1.48.1h13.1c.28,0,.55-.1.93-.18.46-6.91.91-13.76,1.37-20.69h0ZM939.06,744.18c-.14,2.66-.25,5.05-.39,7.43-.2,3.46-.44,6.93-.65,10.39-.26,4.36-.5,8.73-.77,13.09-.21,3.29-.52,6.57-.66,9.85-.08,1.67,0,3.36.19,5.02.25,2.1,1.04,4.04,2.41,5.7.19.22.34.47.6.84-.39.09-.65.17-.92.21-.24.03-.48,0-.72,0h-11.32c-.66,0-1.32.01-1.98-.02-.21,0-.41-.14-.7-.24.63-.71,1.22-1.3,1.72-1.96,1.14-1.5,1.81-3.23,2.25-5.05.34-1.4.58-2.81.62-4.26.04-1.6.19-3.2.29-4.88-.4-.08-.68-.19-.95-.19-4.79-.01-9.58,0-14.37,0-.23,0-.47.07-.76.11-2.01,2.65-4.27,5.15-5.68,8.23-.49,1.08-.88,2.23-1.14,3.39-.36,1.58-.13,2.51.79,4.45-.02.05-.03.11-.07.14-.04.04-.11.07-.16.07-3.95.02-7.9.04-11.85.05-.17,0-.35-.05-.52-.1-.03,0-.05-.09-.07-.14.06-.09.09-.22.17-.26,3.47-1.63,6.28-4.11,8.93-6.83,3.06-3.14,5.67-6.65,8.3-10.13,3.07-4.05,6.13-8.12,9.19-12.18,3.39-4.49,6.79-8.97,10.18-13.46,2.02-2.67,4.04-5.35,6.07-8.02.29-.38.6-.76.96-1.06.19-.15.53-.12,1.01-.22h0v.03Z"/>
    <path class="st0" d="M960.62,744.35h12.94c.17.35.38.65.47.98,1.76,6.9,3.51,13.8,5.25,20.7,1.32,5.25,2.63,10.51,3.95,15.76.07.27.25.51.48.97.61-1.42,1.15-2.64,1.66-3.86,3.02-7.25,6.04-14.49,9.04-21.75.96-2.33,1.53-4.74,1.37-7.29-.12-1.91-.73-3.56-2.18-4.86-.08-.07-.1-.21-.15-.32.16-.36.5-.28.78-.28.98,0,1.95.02,2.93.02h10.37c.18.52-.18.57-.43.71-4.32,2.34-7.48,5.83-9.73,10.12-1.1,2.1-1.91,4.34-2.82,6.53-3.21,7.7-6.41,15.4-9.61,23.1-1.68,4.05-3.36,8.09-5.05,12.14-.16.38-.38.74-.66,1.28-.2-.33-.36-.5-.41-.7-1.66-6.23-3.32-12.46-4.94-18.71-1.5-5.77-2.96-11.56-4.43-17.34-.55-2.18-1.07-4.37-1.62-6.56-.15-.59-.34-1.17-.51-1.72-.53-.19-.72.19-.88.49-.66,1.3-1.35,2.6-1.91,3.94-3.55,8.48-7.07,16.97-10.61,25.45-.92,2.2-1.68,4.44-1.75,6.86-.07,2.21.4,4.23,1.99,5.88.12.12.19.29.27.42-.04.09-.05.16-.09.2s-.1.07-.15.07c-4.51.02-9.02.03-13.52.04-.09,0-.17-.12-.37-.27.21-.15.38-.29.57-.39,4.44-2.4,7.67-5.98,9.9-10.44,1.36-2.72,2.45-5.57,3.63-8.37,2.79-6.68,5.57-13.37,8.34-20.07.91-2.21,1.47-4.5,1.42-6.93-.04-2.02-.64-3.69-2.39-4.85-.29-.19-.53-.45-1.13-.96h-.02Z"/>
    <path class="st0" d="M1005,795.18c1.04-.09,2.63-.11,4.18-.39,6.37-1.14,11.49-4.5,15.77-9.22,2.75-3.04,4.93-6.48,6.78-10.13,2.15-4.24,3.97-8.61,5.13-13.24.69-2.73,1.09-5.5.58-8.31-.59-3.27-2.5-5.54-5.61-6.63-3.56-1.24-7.25-1.47-11-1.06-.76.08-1.42.3-1.91.91-.91,1.14-1.92,2.21-2.72,3.42-1.89,2.85-3.19,6-4.49,9.15-2.94,7.14-5.94,14.26-8.9,21.39-1.03,2.47-2.12,4.91-2.82,7.51-.44,1.66-.79,3.31-.56,5.04.14,1.04.28,1.23,1.37,1.32,1.21.1,2.43.14,4.19.24h.01ZM1006.78,744.24h2.34c3.78,0,7.56-.12,11.33.04,4.8.2,9.62.22,14.35,1.29,1.91.44,3.76,1.08,5.34,2.26,2.68,2,4.01,4.8,4.59,8.04.59,3.25.28,6.44-.57,9.58-2.01,7.44-5.74,13.91-11.22,19.35-3.05,3.03-6.47,5.55-10.27,7.54-4.41,2.31-9.12,3.67-14.09,4.2-3.05.33-6.08.16-9.13.17-4.2.02-8.4.02-12.6,0-.51,0-1.1.21-1.6-.37.61-.51,1.22-.99,1.8-1.51,2.81-2.46,4.75-5.53,6.17-8.93,3.31-7.91,6.6-15.83,9.9-23.75,1.03-2.47,2.1-4.92,3.09-7.41.6-1.52,1.06-3.1,1.33-4.73.28-1.69.1-3.26-.56-4.82-.1-.24-.12-.52-.21-.95h0Z"/>
    <path class="st0" d="M1073.74,796.22c-.81.14-1.17.26-1.53.26-7.03,0-14.05,0-21.08-.02-.15,0-.29-.18-.59-.38.23-.26.42-.55.67-.74,5.29-4.03,8.89-9.3,11.42-15.37,6.51-15.64,13.06-31.26,19.57-46.9,1.23-2.94,2.28-5.95,2.57-9.16.14-1.58.31-3.17-.51-4.8-4.53-.61-8.83.53-13.07,2.1-4.27,1.58-8.03,3.98-11.78,7.16.42-2.57,1.78-4.34,2.62-6.32.87-2.06,1.91-4.04,2.78-5.87.3-.16.38-.22.46-.25.09-.03.18-.06.27-.07.84-.02,1.69-.05,2.53-.05h56.8c.19,0,.37.02.56.05.09.01.19.04.27.09.07.04.13.11.36.31-1.12,3.84-2.73,7.61-4,11.49-.07.23-.38.38-.68.66-.6-2.08-1.6-3.83-3.13-5.27-2.71-2.57-6.04-3.73-9.65-4.1-4.99-.51-5.73-.13-8.77,3.83-2.7,3.51-4.83,7.38-6.53,11.44-6.21,14.76-12.36,29.53-18.42,44.35-1.13,2.75-1.94,5.68-2.52,8.6-.59,2.95-.55,5.97,1.38,8.98h0v-.02Z"/>
    <path class="st0" d="M1156.12,779.5c.4.54.16,1.05-.07,1.58-1.66,3.77-3.3,7.54-4.97,11.3-.6,1.36-1.24,2.71-1.94,4.24-9.52.31-19.06-.04-28.59-.02-9.45.02-18.9-.05-28.26-.08-.34-.55-.16-.84.17-1.08,5.7-4.04,9.32-9.64,11.97-15.96,4.62-11.05,9.21-22.11,13.81-33.17,2.05-4.92,4.13-9.83,6.11-14.78.69-1.73,1.17-3.55,1.63-5.36.81-3.18.71-6.31-.8-9.31-.07-.15-.03-.36-.05-.63.83-.44,1.76-.33,2.67-.33,10.21,0,20.42.04,30.63.02,5.99-.01,11.99-.13,17.98-.19.92,0,1.85.05,2.93.08-.06,2.45-1.36,4.36-1.98,6.46-.6,2.03-1.44,4-2.31,6.34-.41-.56-.7-.8-.79-1.1-1.06-3.66-3.72-5.77-7.07-7.07-2.27-.88-4.68-1.35-7.14-1.36-4.5-.01-8.99.01-13.49-.03-1.11,0-1.95.32-2.75,1.1-2.38,2.31-4.18,5.03-5.82,7.88-2.58,4.47-4.38,9.3-6.4,14.03-1.03,2.41-2.01,4.84-3,7.26-.35.85-.67,1.72-1.08,2.78,2.64.75,5.11.35,7.57.13,2.52-.23,5.04-.59,7.39-1.56,2.25-.92,4.51-1.86,6.6-3.09,2.15-1.27,4.1-2.9,6.32-4.51-.33,2.09-1.41,3.72-2.07,5.48-.72,1.92-1.64,3.78-2.44,5.67-.77,1.81-1.49,3.64-2.26,5.44-.76,1.78-1.29,3.67-2.26,5.34-.83-.11-.64-.7-.75-1.09-.59-2.05-1.7-3.65-3.46-4.94-2.83-2.08-6-3.05-9.41-3.28-2.14-.15-4.3-.03-6.44-.03-.94.95-1.22,2.16-1.68,3.27-2.7,6.38-5.46,12.73-7.99,19.17-1.19,3.03-1.98,6.24-2.76,9.41-.55,2.25-.36,3.21.34,5.63.49.08,1.03.24,1.57.23,5.71-.03,11.43.04,17.14-.18,6.99-.27,13.14-2.78,18.26-7.6,1.15-1.08,2.1-2.39,3.12-3.6.66-.79,1.28-1.6,1.92-2.41l-.07-.08h-.03Z"/>
    <path class="st0" d="M1236.28,729.78c-.67-.41-1.05.04-1.4.5-1.58,2.1-3.19,4.19-4.73,6.32-9.03,12.4-18.03,24.81-27.06,37.2-4.98,6.84-10.01,13.65-15.02,20.47-.33.45-.64.95-1.55.69-.05-.53-.2-1.15-.17-1.76.36-7.23.76-14.46,1.13-21.7.4-7.7.76-15.41,1.16-23.11.28-5.45.61-10.9.9-16.34.03-.62-.03-1.24-.06-2.32-.52.57-.82.77-.96,1.06-1.24,2.64-2.52,5.26-3.64,7.94-5.41,12.93-10.75,25.88-16.15,38.8-1.25,3-1.89,6.11-1.9,9.34-.02,3.42.92,6.5,3.76,9.04-.48.2-.78.43-1.08.43-6.68.03-13.37.05-20.05.05-.27,0-.54-.12-.79-.17-.21-.55.21-.65.51-.81,6.9-3.65,11.91-9.18,15.39-16.04,2.25-4.44,4.01-9.12,5.93-13.71,3.89-9.28,7.77-18.56,11.6-27.86.96-2.34,1.75-4.76,2.51-7.17.66-2.08.68-4.25.63-6.43-.06-2.97-1.05-5.51-3.16-7.61-.17-.17-.26-.44-.36-.62.09-.16.12-.29.19-.31.17-.06.36-.12.55-.12,6.21.03,12.42.06,18.63.11.17,0,.34.13.72.28.04.43.16.96.14,1.49-.55,11.46-1.11,22.93-1.69,34.39-.34,6.77-.73,13.53-1.1,20.29-.03.55,0,1.1,0,1.61.73.35.93-.18,1.18-.52,2.72-3.72,5.42-7.46,8.14-11.18,4.55-6.23,9.11-12.45,13.66-18.68,2.33-3.19,4.64-6.4,6.97-9.58,4.39-5.99,8.79-11.97,13.27-18.07h16.71c.39.54.04.8-.24,1-5.05,3.6-8.47,8.52-11.08,14.02-1.77,3.73-3.38,7.55-4.98,11.36-5.05,12.05-10.12,24.1-15.06,36.2-1.13,2.77-1.85,5.73-2.57,8.64-.77,3.11-.34,6.16,1.18,9.24-.6.17-1.1.45-1.59.43-6.78-.34-13.55,0-20.33.04-.44,0-.96.11-1.3-.47.12-.19.22-.48.41-.62,5.63-4.01,9.3-9.52,11.92-15.78,5.49-13.09,10.94-26.2,16.4-39.31,1.48-3.55,2.93-7.12,4.38-10.7,0-.18.03-.36.03-.53,0-.02-.11-.04-.17-.06.07.21.14.42.22.63h-.03Z"/>
    <path class="st0" d="M1233.96,774.14c.02,3.94.82,7.77,1.51,11.61.31,1.71.89,3.34,1.94,4.76,1.62,2.19,3.91,3.27,6.51,3.63,7.46,1.04,13.86-1.06,19.05-6.62,2.99-3.2,4.96-6.96,6.1-11.15,1.34-4.95.16-9.21-3.8-12.55-1.67-1.41-3.44-2.7-5.21-3.97-2.29-1.65-4.73-3.09-6.77-5.07-.72-.69-1.36-1.47-2-2.23-2.6-3.08-3.22-6.62-2.46-10.51.67-3.45,2.05-6.62,3.9-9.56,5.23-8.29,12.46-13.9,22.09-16.22,4.57-1.1,9.04-.84,13.36,1.13.66.3,1.34.58,2.01.85,2.4.96,4.77,1.11,7.09-.25.21-.13.48-.16.87-.29.16.87-.37,1.43-.63,2.04-.28.67-.61,1.32-.93,1.98-.27.58-.56,1.15-.81,1.73-.29.67-.55,1.35-.82,2.03-.27.68-.53,1.36-.78,2.04-.26.68-.51,1.36-.75,2.05-.21.6-.4,1.21-.6,1.82-.22.68-.44,1.37-.67,2.09-.88-.48-.73-1.28-.77-1.94-.14-2.11-.62-4.13-1.27-6.13-.77-2.34-2.28-4.13-4.06-5.73-1.13-1.02-2.59-1.33-4.03-1.54-3.42-.49-6.76-.11-9.82,1.56-6.6,3.6-10.36,9.26-11.62,16.6-.57,3.3.41,6.17,2.97,8.34,1.8,1.53,3.66,3.01,5.65,4.27,3.41,2.15,6.63,4.49,9.38,7.46,3.57,3.85,4.71,8.31,3.47,13.39-.99,4.05-2.93,7.64-5.46,10.92-4.62,6-10.64,10.19-17.47,13.22-2.99,1.32-6.2,2.09-9.48,2.5-5.42.67-10.5-.49-15.39-2.77-.16-.08-.33-.15-.48-.25-2.64-1.73-5.27-1.92-8.05.38,0-.61-.11-.97.02-1.2,2.99-5.44,5.5-11.09,7.57-16.94.18-.51.44-.98.67-1.47h-.03Z"/>
  </g>
  <g>
    <path class="st1" d="M1618.37-987.57c0-1.35.05-2.72,0-4.07-.22-4.78-1.11-9.42-3.26-13.74-2.14-4.29-5.33-7.31-10.1-8.59-12.86-3.45-24.89-1.27-36.12,5.48-6.72,4.04-12.45,9.36-17.69,15.18-7.75,8.62-14.16,18.17-19.61,28.36-7.93,14.84-14.6,30.19-18.61,46.59-2.06,8.43-3.27,16.96-1.82,25.67,1.69,10.14,7.61,17.74,17.4,19.47,8.8,1.56,17.54,1.06,25.91-2.68,5.16-2.3,9.82-5.31,14.17-8.88,8.74-7.17,15.69-15.93,21.86-25.29,10.21-15.53,17.79-32.33,23.31-50.04,2.78-8.92,4.75-18.02,4.57-27.45h-.01ZM1535-868.73c-7.06.16-14.35-1.03-21.36-3.96-3.01-1.26-5.74-2.88-8.2-5-7.79-6.71-12.04-15.36-13.83-25.35-1.59-8.85-.62-17.58,1.54-26.19,3.16-12.59,8.48-24.29,15.36-35.26,11.58-18.46,26.99-32.95,45.99-43.6,12.65-7.09,26.29-10.82,40.74-11.34,7.85-.28,15.49.88,22.79,4.18,6.29,2.84,10.94,7.3,14.46,13.07,5.1,8.36,6.96,17.52,6.55,27.23-.61,14.35-5.35,27.52-11.65,40.19-9.23,18.56-22.59,33.73-39.07,46.14-6.9,5.2-14.3,9.7-22.23,13.26-7.29,3.28-20.6,6.94-31.07,6.61h0l-.02.02Z"/>
    <path class="st1" d="M1746.42-1017.99c1.64-.33,2.28-.58,2.93-.57,12.33.1,24.66.23,36.99.38.06,0,.12.27.33.74-.45.31-.93.71-1.47,1-13.74,7.61-23.31,18.98-29.34,33.3-7.85,18.62-15.33,37.39-23.07,56.05-4.61,11.11-10.17,21.72-17.5,31.34-5.89,7.73-12.84,14.2-21.29,19.09-7.58,4.38-15.85,6.55-24.38,7.59-8.35,1.02-16.8,1.06-25.09-.78-3.49-.77-7.03-1.76-10.24-3.29-7.24-3.45-11.15-9.43-11.67-17.45-.39-6.07.8-11.99,2.68-17.7,2.19-6.66,4.64-13.26,7.27-19.76,6.94-17.14,14.08-34.2,21.06-51.33,2.32-5.7,4.53-11.46,6.59-17.27,1.26-3.56,1.72-7.32,1.69-11.12-.03-3.48-.83-6.75-2.67-9.43.55-1.43,1.52-1.25,2.29-1.3,1.54-.1,3.09-.07,4.63-.06,10.29.02,20.58.04,30.87.08,1.33,0,2.66.12,3.92.18.38,1.39-.56,1.75-1.19,2.19-7.42,5.32-12.74,12.41-17.08,20.3-5.13,9.33-8.95,19.23-12.81,29.13-3.54,9.1-7.49,18.04-11.19,27.08-4.22,10.3-8.91,20.41-12.26,31.06-1.6,5.08-2.71,10.23-3.12,15.57-.75,9.78,5.41,15.95,13.6,17.85,7.68,1.78,15.33,1.43,22.91-.58,11.9-3.17,21.18-10.19,28.84-19.61,6.21-7.65,10.87-16.21,14.68-25.25,6.05-14.36,12.03-28.76,18.11-43.11,2.61-6.14,5.5-12.16,8.1-18.31,2.82-6.69,4.75-13.61,4.13-20.99-.18-2.21-.57-4.42-1.1-6.57-.79-3.25-2.83-5.76-6.15-8.44h0Z"/>
    <path class="st1" d="M1801.15-869.3c-1.5.26-2.16.48-2.83.48-13.02,0-26.04,0-39.06-.05-.27,0-.54-.33-1.1-.7.43-.49.77-1.02,1.24-1.38,9.8-7.46,16.47-17.22,21.16-28.49,12.07-28.98,24.19-57.94,36.27-86.92,2.27-5.46,4.22-11.02,4.76-16.97.26-2.93.58-5.88-.94-8.89-8.39-1.13-16.36.98-24.23,3.89-7.91,2.92-14.88,7.37-21.82,13.27.78-4.76,3.3-8.05,4.85-11.71,1.61-3.81,3.54-7.49,5.16-10.88.56-.3.7-.4.86-.46s.33-.12.51-.12c1.56-.04,3.12-.1,4.69-.1,35.08,0,70.16,0,105.25.02.35,0,.69.04,1.04.09.17.02.34.08.49.16.14.07.25.2.67.57-2.08,7.12-5.06,14.1-7.42,21.28-.14.42-.71.71-1.26,1.23-1.12-3.86-2.97-7.1-5.8-9.77-5.03-4.76-11.2-6.92-17.88-7.6-9.24-.95-10.62-.24-16.25,7.1-5,6.51-8.95,13.68-12.11,21.2-11.5,27.34-22.9,54.73-34.13,82.19-2.09,5.1-3.59,10.53-4.68,15.94-1.1,5.46-1.02,11.06,2.55,16.64h0v-.02Z"/>
    <path class="st1" d="M1942.07-1018.07h36.97c.48.99,1.09,1.85,1.33,2.8,5.02,19.71,10.02,39.43,14.99,59.15,3.78,15,7.5,30.02,11.28,45.02.19.77.72,1.45,1.38,2.76,1.74-4.06,3.28-7.53,4.74-11.04,8.62-20.71,17.25-41.41,25.82-62.14,2.75-6.65,4.36-13.54,3.91-20.83-.34-5.44-2.09-10.18-6.22-13.9-.22-.2-.28-.59-.42-.91.47-1.02,1.44-.8,2.24-.8,2.79-.02,5.57.07,8.36.07h29.62c.52,1.47-.53,1.64-1.23,2.02-12.36,6.67-21.38,16.65-27.8,28.93-3.13,5.99-5.46,12.41-8.06,18.67-9.17,21.99-18.3,44-27.45,66-4.81,11.56-9.6,23.13-14.43,34.68-.46,1.1-1.09,2.12-1.89,3.67-.56-.93-1.02-1.42-1.17-1.99-4.73-17.81-9.49-35.61-14.12-53.44-4.29-16.49-8.47-33.02-12.66-49.54-1.58-6.23-3.06-12.49-4.62-18.73-.42-1.68-.98-3.33-1.45-4.91-1.52-.55-2.07.54-2.5,1.39-1.89,3.72-3.85,7.42-5.46,11.26-10.15,24.22-20.19,48.49-30.32,72.71-2.63,6.29-4.79,12.68-5,19.59-.19,6.32,1.16,12.09,5.7,16.79.34.35.54.82.77,1.19-.11.26-.14.45-.25.57-.1.11-.29.21-.43.21-12.88.05-25.76.09-38.64.1-.25,0-.5-.34-1.07-.77.61-.43,1.09-.83,1.62-1.12,12.69-6.85,21.93-17.09,28.29-29.82,3.88-7.76,7.01-15.9,10.36-23.92,7.98-19.1,15.92-38.21,23.82-57.34,2.61-6.32,4.19-12.85,4.04-19.79-.13-5.78-1.83-10.55-6.83-13.84-.82-.54-1.52-1.28-3.24-2.74h.02Z"/>
    <path class="st1" d="M2162.56-987.57c0-1.35.05-2.72,0-4.07-.22-4.78-1.11-9.42-3.26-13.74-2.14-4.29-5.33-7.31-10.1-8.59-12.86-3.45-24.89-1.27-36.12,5.48-6.72,4.04-12.45,9.36-17.69,15.18-7.75,8.62-14.16,18.17-19.61,28.36-7.93,14.84-14.6,30.19-18.61,46.59-2.06,8.43-3.27,16.96-1.82,25.67,1.69,10.14,7.61,17.74,17.4,19.47,8.8,1.56,17.54,1.06,25.91-2.68,5.16-2.3,9.82-5.31,14.17-8.88,8.74-7.17,15.69-15.93,21.86-25.29,10.21-15.53,17.79-32.33,23.31-50.04,2.78-8.92,4.75-18.02,4.57-27.45h0ZM2079.2-868.73c-7.06.16-14.35-1.03-21.36-3.96-3.01-1.26-5.74-2.88-8.2-5-7.79-6.71-12.04-15.36-13.83-25.35-1.59-8.85-.62-17.58,1.54-26.19,3.16-12.59,8.48-24.29,15.36-35.26,11.58-18.46,26.99-32.95,45.99-43.6,12.65-7.09,26.29-10.82,40.74-11.34,7.85-.28,15.49.88,22.79,4.18,6.29,2.84,10.94,7.3,14.46,13.07,5.1,8.36,6.96,17.52,6.55,27.23-.61,14.35-5.35,27.52-11.65,40.19-9.23,18.56-22.59,33.73-39.07,46.14-6.9,5.2-14.3,9.7-22.23,13.26-7.29,3.28-20.6,6.94-31.07,6.61h0l-.02.02Z"/>
    <path class="st1" d="M2271.17-867.11c-.28-2.81-.54-4.48-.61-6.17-.27-7.17-.36-14.32.08-21.5.56-9.19.52-18.42.84-27.62.21-5.97.6-11.93.88-17.89.05-1.16,0-2.31,0-3.33-1.41-.68-1.84.21-2.34.81-4.88,5.93-9.76,11.87-14.61,17.82-6.9,8.47-13.84,16.91-20.67,25.44-6.29,7.86-12.45,15.82-18.68,23.74-1.9,2.41-3.81,4.83-5.75,7.2-.27.33-.76.47-1.59.97-.13-2-.39-3.64-.33-5.27.25-7.17.65-14.33.89-21.49.3-9.38.46-18.75.77-28.13.18-5.46.54-10.91.76-16.36.39-9.72.7-19.43,1.09-29.15.18-4.43.6-8.86.7-13.29.12-5.29.25-10.59-.06-15.87-.33-5.68-1.84-11.11-5.15-15.87-1.07-1.53-2.36-2.9-3.82-4.65.82-.33,1.48-.78,2.19-.85,1.35-.14,2.73-.08,4.09-.08,10.59.02,21.18.03,31.77.08,1.28,0,2.56.2,4.51.36-.95,1.16-1.42,1.8-1.96,2.38-3.8,4.09-6.27,8.97-7.75,14.26-1.32,4.76-2.14,9.65-2.36,14.63-.56,12.45-1.25,24.89-1.77,37.34-.46,10.91-.73,21.83-1.12,32.75-.11,3.07-.33,6.14-.46,9.21-.06,1.47,0,2.93,0,4.39,1.78.13,2.19-1.21,2.9-2.07,6.18-7.52,12.32-15.07,18.49-22.6,6.49-7.92,12.99-15.83,19.53-23.71.81-.97,1.3-1.93,1.33-3.2.05-2.39.2-4.78.3-7.16.28-6.48.64-12.96.8-19.44.13-5.29.27-10.6-.07-15.87-.36-5.67-1.9-11.11-5.22-15.85-1.06-1.52-2.35-2.87-3.49-4.25.3-1.23,1.25-1.13,2.05-1.19,1.02-.08,2.05-.07,3.07-.07,11.1.02,22.21.04,33.31.07,1.01,0,2.01.13,2.92.19.61,1.22-.27,1.72-.79,2.29-4.48,4.92-7.16,10.72-8.65,17.17-1.59,6.87-1.75,13.87-2.12,20.85-.02.29.21.59.32.88.32-.02.81.08.94-.09,3.66-4.7,7.41-9.35,10.87-14.19,2.99-4.19,5.2-8.83,6.57-13.81,1.21-4.39,1.71-8.75-1.75-12.97,1.12-.31,1.87-.69,2.62-.71,3.24-.04,6.49.05,9.74.05,8.03,0,16.05-.01,24.08-.02h5c-1.44,1-1.9,1.45-2.44,1.67-16.7,7.1-30.26,18.39-42.19,31.78-4.42,4.96-8.46,10.26-12.68,15.4-1.01,1.23-1.48,2.6-1.53,4.22-.25,8.01-.53,16.03-.88,24.04-.24,5.63-.66,11.25-.9,16.88-.3,7.15-.51,14.32-.76,21.48,1.32.85,1.84-.41,2.36-1.08,4.4-5.66,8.72-11.39,13.08-17.08,10.18-13.28,20.4-26.53,30.55-39.83,6.52-8.55,13.04-17.1,19.41-25.76,3.55-4.83,6.3-10.16,7.98-15.95.61-2.12.97-4.34,1.14-6.54.2-2.58-.09-5.13-2.02-7.19-.3-.32-.34-.87-.49-1.27.36-.29.61-.66.87-.66,12.94-.03,25.88-.02,38.8-.02.28,1.05-.42,1.28-1.04,1.55-17.09,7.59-30.88,19.31-42.21,34.03-13.43,17.45-26.75,34.98-40.12,52.47-14.31,18.72-28.62,37.44-42.96,56.14-1.74,2.27-3.65,4.42-6.25,7.54h0v.02Z"/>
  </g>
  <g>
    <path class="st1" d="M1265.02-652.22c.04,7.3,1.51,14.41,2.8,21.52.57,3.18,1.66,6.18,3.59,8.81,3,4.07,7.25,6.06,12.06,6.73,13.82,1.93,25.69-1.96,35.31-12.27,5.54-5.93,9.19-12.89,11.3-20.66,2.49-9.17.3-17.07-7.04-23.26-3.09-2.61-6.38-5-9.66-7.36-4.24-3.05-8.77-5.73-12.55-9.39-1.33-1.29-2.52-2.72-3.71-4.14-4.82-5.71-5.96-12.28-4.56-19.47,1.24-6.39,3.79-12.26,7.23-17.71,9.68-15.37,23.09-25.76,40.94-30.06,8.47-2.04,16.75-1.56,24.75,2.09,1.23.56,2.48,1.08,3.73,1.58,4.45,1.78,8.84,2.06,13.14-.46.4-.23.89-.3,1.61-.54.29,1.61-.68,2.64-1.16,3.79-.53,1.24-1.14,2.45-1.72,3.67-.5,1.07-1.04,2.12-1.51,3.21-.53,1.24-1.02,2.5-1.51,3.76s-.98,2.51-1.45,3.77-.94,2.53-1.38,3.8c-.39,1.12-.75,2.24-1.11,3.37-.41,1.26-.82,2.54-1.25,3.88-1.63-.88-1.36-2.36-1.43-3.59-.25-3.91-1.15-7.65-2.36-11.36-1.42-4.33-4.23-7.66-7.52-10.62-2.09-1.89-4.8-2.46-7.47-2.85-6.34-.91-12.52-.21-18.19,2.88-12.23,6.67-19.2,17.15-21.54,30.77-1.05,6.12.75,11.43,5.51,15.46,3.34,2.83,6.78,5.58,10.47,7.91,6.32,3.98,12.28,8.32,17.38,13.82,6.62,7.13,8.73,15.39,6.44,24.81-1.83,7.51-5.43,14.15-10.11,20.23-8.56,11.11-19.71,18.89-32.38,24.49-5.55,2.45-11.49,3.88-17.57,4.63-10.05,1.25-19.47-.9-28.52-5.14-.3-.14-.62-.28-.9-.47-4.89-3.2-9.76-3.55-14.93.7,0-1.13-.2-1.8.03-2.22,5.54-10.08,10.2-20.55,14.02-31.39.33-.94.82-1.81,1.24-2.72h-.02Z"/>
    <path class="st1" d="M1410.89-611.3c-1.5.26-2.16.48-2.83.48-13.02,0-26.04,0-39.06-.05-.27,0-.54-.33-1.1-.7.43-.49.77-1.02,1.24-1.38,9.8-7.46,16.47-17.22,21.16-28.49,12.07-28.98,24.19-57.94,36.27-86.92,2.27-5.46,4.22-11.02,4.76-16.97.26-2.93.58-5.88-.94-8.89-8.39-1.13-16.36.98-24.23,3.89-7.91,2.92-14.88,7.37-21.82,13.27.78-4.76,3.3-8.05,4.85-11.71,1.61-3.81,3.54-7.49,5.16-10.88.56-.3.7-.4.86-.46s.33-.12.51-.12c1.56-.04,3.12-.1,4.69-.1,35.08,0,70.16,0,105.25.02.35,0,.69.04,1.04.09.17.02.34.08.49.16.14.07.25.2.67.57-2.08,7.12-5.06,14.1-7.42,21.28-.14.42-.71.71-1.26,1.23-1.12-3.86-2.97-7.1-5.8-9.77-5.03-4.76-11.2-6.92-17.88-7.6-9.24-.95-10.62-.24-16.25,7.1-5,6.51-8.95,13.68-12.11,21.2-11.5,27.34-22.9,54.73-34.13,82.19-2.09,5.1-3.59,10.53-4.68,15.94-1.1,5.46-1.02,11.06,2.55,16.64h0v-.02Z"/>
    <path class="st1" d="M1510.4-692.55c1.16.18,1.98.45,2.79.41,7.36-.34,14.61-1.25,21.61-3.8,6.9-2.52,12.79-6.44,17.52-12.05,6.66-7.9,10.91-17.05,13.54-26.97.76-2.87.93-5.84.7-8.85-.45-5.76-3.5-9.31-8.8-11.2-3.37-1.2-6.88-1.08-10.37-1.2-2.29-.08-4.06.82-5.58,2.4-.73.76-1.45,1.52-2.17,2.28-6.87,7.2-11.44,15.89-15.43,24.83-4.63,10.37-8.81,20.94-13.16,31.44-.31.75-.38,1.61-.63,2.71h-.02ZM1551.4-612.29c.51-1.78.84-3.69,1.59-5.43,1.32-3.07,3.93-4.33,7.27-3.83,1.73.26,2.95,1.75,2.52,3.33-.75,2.74-2.04,5.16-4.39,6.96-6.97,5.34-23.31,5.31-29.85-.31-1.77-1.52-3.24-3.15-4.23-5.26-2.86-6.14-3.27-12.48-1.46-18.95,1.64-5.9,3.43-11.75,5.11-17.64,1.48-5.21,3.03-10.41,4.28-15.68.74-3.08.57-6.24-.65-9.29-1.11-2.77-2.99-4.7-5.73-5.8-5.58-2.25-11.39-3.23-17.69-3.17-.63,1.21-1.36,2.38-1.88,3.62-5.6,13.39-11.23,26.77-16.71,40.21-2.25,5.51-4,11.22-4.92,17.09-.83,5.25-.5,10.49,2.59,15.55-.96.3-1.71.58-2.49.78-.33.09-.7.05-1.05.03-12.25-.68-24.51-.06-36.76.04-.83,0-1.66-.14-2.3-.2-.65-1.18.08-1.54.6-1.93,10.07-7.6,16.82-17.62,21.61-29.15,12.14-29.23,24.36-58.42,36.53-87.64,2.02-4.85,3.71-9.8,4.49-15.04.76-5.13.66-10.1-2.07-14.74-.15-.25-.02-.66-.02-1.16,1.55-.81,3.3-.62,5-.62,15.41.03,30.81.1,46.22.13,6.52.01,12.88.79,19.07,3.03,9.92,3.59,15.2,12.55,12.89,22.82-1.92,8.55-6.05,15.97-12.14,22.31-9.79,10.19-21.97,16.02-35.46,19.34-4.4,1.09-8.96,1.52-13.44,2.28-.97.16-1.93.45-4.07.96,1.66.63,2.18.9,2.73,1.02,4.1.91,8.05,2.24,11.99,3.76,8.99,3.48,13.1,11.13,12.6,20.82-.35,6.84-1.59,13.54-3.37,20.14-1.23,4.56-2.7,9.05-3.96,13.6-.79,2.86-1.39,5.77-2.05,8.66-.15.68-.25,1.38-.26,2.07-.06,6.62,2.99,8.88,9.86,7.25h0v.04Z"/>
    <path class="st1" d="M1677.16-642.28c.74,1.01.29,1.95-.13,2.92-3.07,6.98-6.12,13.97-9.21,20.94-1.12,2.52-2.29,5.02-3.59,7.86-17.64.58-35.31-.08-52.98-.04-17.51.04-35.03-.1-52.37-.15-.63-1.02-.29-1.56.31-1.99,10.56-7.48,17.27-17.87,22.17-29.58,8.57-20.47,17.07-40.97,25.59-61.46,3.79-9.12,7.66-18.21,11.33-27.39,1.28-3.2,2.17-6.58,3.02-9.94,1.49-5.89,1.32-11.69-1.48-17.25-.14-.27-.06-.66-.09-1.17,1.54-.81,3.27-.6,4.95-.6,18.92.01,37.84.08,56.76.04,11.11-.03,22.21-.24,33.32-.35,1.71-.02,3.42.09,5.43.15-.12,4.55-2.51,8.08-3.66,11.96-1.12,3.77-2.67,7.41-4.27,11.75-.77-1.05-1.3-1.49-1.46-2.03-1.96-6.79-6.89-10.7-13.1-13.11-4.2-1.63-8.67-2.5-13.23-2.51-8.33-.03-16.67.03-25-.06-2.05-.02-3.62.59-5.1,2.03-4.41,4.28-7.74,9.32-10.79,14.6-4.79,8.29-8.12,17.24-11.87,26-1.91,4.46-3.72,8.97-5.56,13.46-.65,1.58-1.25,3.19-2.01,5.15,4.89,1.4,9.47.65,14.03.24,4.67-.42,9.34-1.09,13.69-2.88,4.16-1.71,8.36-3.45,12.22-5.73,3.99-2.36,7.59-5.38,11.72-8.36-.61,3.87-2.61,6.89-3.84,10.16-1.34,3.57-3.03,7-4.53,10.51-1.43,3.35-2.76,6.74-4.2,10.08-1.41,3.3-2.39,6.8-4.19,9.89-1.54-.2-1.18-1.3-1.39-2.01-1.1-3.79-3.16-6.77-6.41-9.15-5.24-3.85-11.12-5.65-17.44-6.08-3.97-.27-7.97-.05-11.93-.05-1.73,1.76-2.25,4.01-3.12,6.05-5,11.82-10.12,23.58-14.8,35.53-2.2,5.62-3.67,11.56-5.12,17.44-1.03,4.17-.66,5.94.63,10.42.9.14,1.9.44,2.9.43,10.59-.06,21.18.07,31.75-.33,12.95-.49,24.34-5.16,33.83-14.09,2.13-2.01,3.88-4.42,5.77-6.68,1.22-1.46,2.38-2.97,3.56-4.46l-.13-.15h.02Z"/>
    <path class="st1" d="M1765.73-722.14c-.88,0-1.12-.07-1.19,0-14.78,19.42-29.55,38.85-44.32,58.28-.09.12-.11.31-.1.47.02.16.12.32.22.57.42.09.9.29,1.38.29,12.48.02,24.95.03,37.43,0,.79,0,1.57-.29,2.67-.51,1.31-19.75,2.6-39.31,3.91-59.11h0ZM1790.03-760.54c-.4,7.6-.72,14.42-1.12,21.23-.58,9.9-1.25,19.79-1.84,29.69-.75,12.46-1.42,24.93-2.2,37.39-.59,9.39-1.47,18.76-1.9,28.16-.21,4.76-.02,9.6.55,14.33.72,6.01,2.96,11.54,6.89,16.28.53.64.97,1.35,1.73,2.41-1.11.26-1.87.5-2.64.6-.67.08-1.37,0-2.05,0-10.78,0-21.56.02-32.33.03-1.88,0-3.77.03-5.64-.05-.6-.03-1.18-.39-2.01-.69,1.8-2.04,3.49-3.71,4.91-5.59,3.25-4.29,5.16-9.24,6.42-14.43.97-3.99,1.67-8.02,1.78-12.16.12-4.58.53-9.15.83-13.96-1.13-.24-1.93-.55-2.73-.55-13.69-.03-27.38-.02-41.07,0-.67,0-1.34.19-2.17.32-5.75,7.56-12.21,14.71-16.24,23.51-1.41,3.08-2.5,6.38-3.26,9.68-1.03,4.53-.36,7.16,2.27,12.71-.06.14-.09.31-.2.41-.12.11-.31.21-.46.21-11.29.06-22.58.11-33.86.14-.5,0-1-.15-1.49-.28-.1-.02-.14-.25-.21-.39.16-.25.25-.63.48-.74,9.92-4.67,17.95-11.75,25.52-19.53,8.74-8.98,16.19-18.99,23.73-28.93,8.78-11.58,17.51-23.21,26.27-34.81,9.69-12.82,19.4-25.63,29.1-38.45,5.78-7.64,11.55-15.28,17.35-22.9.83-1.08,1.71-2.17,2.75-3.02.55-.44,1.52-.36,2.87-.62h-.03Z"/>
    <path class="st1" d="M1952.71-734.43c-1.24-.75-1.94.07-2.59.92-2.94,3.89-5.9,7.76-8.77,11.7-16.73,22.97-33.41,45.98-50.15,68.94-9.24,12.67-18.56,25.29-27.84,37.93-.62.84-1.19,1.76-2.88,1.27-.1-.99-.37-2.13-.31-3.26.67-13.4,1.41-26.81,2.1-40.21.73-14.28,1.41-28.56,2.16-42.83.52-10.1,1.12-20.19,1.66-30.29.06-1.15-.06-2.3-.12-4.3-.97,1.05-1.53,1.43-1.77,1.96-2.29,4.89-4.66,9.74-6.75,14.72-10.02,23.95-19.93,47.95-29.93,71.91-2.32,5.56-3.5,11.33-3.52,17.32-.03,6.34,1.71,12.05,6.97,16.76-.9.37-1.45.8-2,.8-12.39.06-24.77.09-37.15.1-.5,0-1-.22-1.46-.32-.39-1.02.38-1.21.94-1.5,12.78-6.76,22.08-17.01,28.51-29.72,4.16-8.22,7.42-16.9,10.99-25.41,7.21-17.19,14.4-34.39,21.49-51.63,1.78-4.34,3.24-8.82,4.66-13.29,1.22-3.86,1.25-7.88,1.16-11.91-.12-5.5-1.94-10.21-5.86-14.1-.32-.32-.48-.81-.67-1.14.18-.3.23-.53.35-.58.32-.12.67-.22,1.01-.22,11.51.05,23.02.11,34.53.2.32,0,.63.24,1.33.52.08.79.3,1.78.25,2.76-1.02,21.24-2.05,42.48-3.13,63.72-.63,12.54-1.36,25.07-2.03,37.6-.06,1.02,0,2.05,0,2.98,1.35.65,1.72-.34,2.18-.96,5.04-6.9,10.05-13.82,15.08-20.72,8.43-11.54,16.88-23.07,25.31-34.62,4.32-5.91,8.59-11.86,12.92-17.76,8.13-11.1,16.29-22.18,24.59-33.49h30.96c.72.99.08,1.48-.44,1.85-9.36,6.67-15.69,15.78-20.54,25.98-3.29,6.92-6.26,13.99-9.22,21.05-9.37,22.34-18.76,44.66-27.91,67.09-2.1,5.14-3.43,10.61-4.77,16.02-1.43,5.76-.63,11.42,2.18,17.12-1.11.31-2.04.83-2.94.79-12.56-.63-25.12,0-37.68.07-.82,0-1.77.2-2.41-.86.23-.36.4-.88.76-1.14,10.43-7.43,17.23-17.63,22.09-29.24,10.18-24.26,20.27-48.56,30.39-72.85,2.74-6.59,5.43-13.2,8.11-19.82,0-.34.05-.66.06-.98,0-.03-.21-.08-.32-.11.13.39.27.78.4,1.17h.02Z"/>
    <path class="st1" d="M2039.61-760.07h36.97c.48.99,1.09,1.85,1.33,2.8,5.02,19.71,10.02,39.43,14.99,59.15,3.78,15,7.5,30.02,11.28,45.02.19.77.72,1.45,1.38,2.76,1.74-4.06,3.28-7.53,4.74-11.04,8.62-20.71,17.25-41.41,25.82-62.14,2.75-6.65,4.36-13.54,3.91-20.83-.34-5.44-2.09-10.18-6.22-13.9-.22-.2-.28-.59-.42-.91.47-1.02,1.44-.8,2.24-.8,2.79-.02,5.57.07,8.36.07h29.62c.52,1.47-.53,1.64-1.23,2.02-12.36,6.67-21.38,16.65-27.8,28.93-3.13,5.99-5.46,12.41-8.06,18.67-9.17,21.99-18.3,44-27.45,66-4.81,11.56-9.6,23.13-14.43,34.68-.46,1.1-1.09,2.12-1.89,3.67-.56-.93-1.02-1.42-1.17-1.99-4.73-17.81-9.49-35.61-14.12-53.44-4.29-16.49-8.47-33.02-12.66-49.54-1.58-6.23-3.06-12.49-4.62-18.73-.42-1.68-.98-3.33-1.45-4.91-1.52-.55-2.07.54-2.5,1.39-1.89,3.72-3.85,7.42-5.46,11.26-10.15,24.22-20.19,48.49-30.32,72.71-2.63,6.29-4.79,12.68-5,19.59-.19,6.32,1.16,12.09,5.7,16.79.34.35.54.82.78,1.19-.11.26-.14.45-.25.57-.1.11-.29.21-.43.21-12.88.05-25.76.09-38.64.1-.25,0-.5-.34-1.07-.77.61-.43,1.09-.83,1.62-1.12,12.69-6.85,21.93-17.09,28.29-29.82,3.88-7.76,7.01-15.9,10.36-23.92,7.98-19.1,15.92-38.21,23.82-57.34,2.61-6.32,4.19-12.85,4.04-19.79-.13-5.78-1.83-10.55-6.83-13.84-.82-.54-1.52-1.28-3.24-2.74h0Z"/>
    <path class="st1" d="M2260.11-729.57c0-1.35.05-2.72,0-4.07-.22-4.78-1.11-9.42-3.26-13.74-2.14-4.29-5.33-7.31-10.1-8.59-12.86-3.45-24.89-1.27-36.12,5.48-6.72,4.04-12.45,9.36-17.69,15.18-7.75,8.62-14.16,18.17-19.61,28.36-7.93,14.84-14.6,30.19-18.61,46.59-2.06,8.43-3.27,16.96-1.82,25.67,1.69,10.14,7.61,17.74,17.4,19.47,8.8,1.56,17.54,1.06,25.91-2.68,5.16-2.3,9.82-5.31,14.17-8.88,8.74-7.17,15.69-15.93,21.86-25.29,10.21-15.53,17.79-32.33,23.31-50.04,2.78-8.92,4.75-18.02,4.57-27.45h0ZM2176.74-610.73c-7.06.16-14.35-1.03-21.36-3.96-3.01-1.26-5.74-2.88-8.2-5-7.79-6.71-12.04-15.36-13.83-25.35-1.59-8.85-.62-17.58,1.54-26.19,3.16-12.59,8.48-24.29,15.36-35.26,11.58-18.46,26.99-32.95,45.99-43.6,12.65-7.09,26.29-10.82,40.74-11.34,7.85-.28,15.49.88,22.79,4.18,6.29,2.84,10.94,7.3,14.46,13.07,5.1,8.36,6.96,17.52,6.55,27.23-.61,14.35-5.35,27.52-11.65,40.19-9.23,18.56-22.59,33.73-39.07,46.14-6.9,5.2-14.3,9.7-22.23,13.26-7.29,3.28-20.6,6.94-31.07,6.61h0l-.02.02Z"/>
    <path class="st1" d="M2368.72-609.11c-.28-2.81-.54-4.48-.61-6.17-.27-7.17-.36-14.32.08-21.5.56-9.19.52-18.42.84-27.62.21-5.97.6-11.93.88-17.89.05-1.16,0-2.31,0-3.33-1.41-.68-1.84.21-2.34.81-4.88,5.93-9.76,11.87-14.61,17.82-6.9,8.47-13.84,16.91-20.67,25.44-6.29,7.86-12.45,15.82-18.68,23.74-1.9,2.41-3.81,4.83-5.75,7.2-.27.33-.76.47-1.59.97-.13-2-.39-3.64-.33-5.27.25-7.17.65-14.33.89-21.49.3-9.38.46-18.75.77-28.13.18-5.46.54-10.91.76-16.36.39-9.72.7-19.43,1.09-29.15.18-4.43.6-8.86.7-13.29.12-5.29.25-10.59-.06-15.87-.33-5.68-1.84-11.11-5.15-15.87-1.07-1.53-2.36-2.9-3.82-4.65.82-.33,1.48-.78,2.19-.85,1.35-.14,2.73-.08,4.09-.08,10.59.02,21.18.03,31.77.08,1.28,0,2.56.2,4.51.36-.95,1.16-1.42,1.8-1.96,2.38-3.8,4.09-6.27,8.97-7.75,14.26-1.32,4.76-2.14,9.65-2.36,14.63-.56,12.45-1.25,24.89-1.77,37.34-.46,10.91-.73,21.83-1.12,32.75-.11,3.07-.33,6.14-.46,9.21-.06,1.47,0,2.93,0,4.39,1.78.13,2.19-1.21,2.9-2.07,6.18-7.52,12.32-15.07,18.49-22.6,6.49-7.92,12.99-15.83,19.53-23.71.81-.97,1.3-1.93,1.33-3.2.05-2.39.2-4.78.3-7.16.28-6.48.64-12.96.8-19.44.13-5.29.27-10.6-.07-15.87-.36-5.67-1.9-11.11-5.22-15.85-1.06-1.52-2.35-2.87-3.49-4.25.3-1.23,1.25-1.13,2.05-1.19,1.02-.08,2.05-.07,3.07-.07,11.1.02,22.21.04,33.31.07,1.01,0,2.01.13,2.92.19.61,1.22-.27,1.72-.79,2.29-4.48,4.92-7.16,10.72-8.65,17.17-1.59,6.87-1.75,13.87-2.12,20.85-.02.29.21.59.32.88.32-.02.81.08.94-.09,3.66-4.7,7.41-9.35,10.87-14.19,2.99-4.19,5.2-8.83,6.57-13.81,1.21-4.39,1.71-8.75-1.75-12.97,1.12-.31,1.87-.69,2.62-.71,3.24-.04,6.49.05,9.74.05,8.03,0,16.05-.01,24.08-.02h5c-1.44,1-1.9,1.45-2.44,1.67-16.7,7.1-30.26,18.39-42.19,31.78-4.42,4.96-8.46,10.26-12.68,15.4-1.01,1.23-1.48,2.6-1.53,4.22-.25,8.01-.53,16.03-.88,24.04-.24,5.63-.66,11.25-.9,16.88-.3,7.15-.51,14.32-.76,21.48,1.32.85,1.84-.41,2.36-1.08,4.4-5.66,8.72-11.39,13.08-17.08,10.18-13.28,20.4-26.53,30.55-39.83,6.52-8.55,13.04-17.1,19.41-25.76,3.55-4.83,6.3-10.16,7.98-15.95.61-2.12.97-4.34,1.14-6.54.2-2.58-.09-5.13-2.02-7.19-.3-.32-.34-.87-.49-1.27.36-.29.61-.66.87-.66,12.94-.03,25.88-.02,38.8-.02.28,1.05-.42,1.28-1.04,1.55-17.09,7.59-30.88,19.31-42.21,34.03-13.43,17.45-26.75,34.98-40.12,52.47-14.31,18.72-28.62,37.44-42.96,56.14-1.74,2.27-3.65,4.42-6.25,7.54h0v.02Z"/>
  </g>
  <path class="st1" d="M1402.36-369.46c-.28-2.81-.54-4.48-.61-6.17-.27-7.17-.36-14.32.08-21.5.56-9.19.52-18.42.84-27.62.21-5.97.6-11.93.88-17.89.05-1.16,0-2.31,0-3.33-1.41-.68-1.84.21-2.34.81-4.88,5.93-9.76,11.87-14.61,17.82-6.9,8.47-13.84,16.91-20.67,25.44-6.29,7.86-12.45,15.82-18.68,23.74-1.9,2.41-3.81,4.83-5.75,7.2-.27.33-.76.47-1.59.97-.13-2-.39-3.64-.33-5.27.25-7.17.65-14.33.89-21.49.3-9.38.46-18.75.77-28.13.18-5.46.54-10.91.76-16.36.39-9.72.7-19.43,1.09-29.15.18-4.43.6-8.86.7-13.29.12-5.29.25-10.59-.06-15.87-.33-5.68-1.84-11.11-5.15-15.87-1.07-1.53-2.36-2.9-3.82-4.65.82-.33,1.48-.78,2.19-.85,1.35-.14,2.73-.08,4.09-.08,10.59.02,21.18.03,31.77.08,1.28,0,2.56.2,4.51.36-.95,1.16-1.42,1.8-1.96,2.38-3.8,4.09-6.27,8.97-7.75,14.26-1.32,4.76-2.14,9.65-2.36,14.63-.56,12.45-1.25,24.89-1.77,37.34-.46,10.91-.73,21.83-1.12,32.75-.11,3.07-.33,6.14-.46,9.21-.06,1.47,0,2.93,0,4.39,1.78.13,2.19-1.21,2.9-2.07,6.18-7.52,12.32-15.07,18.49-22.6,6.49-7.92,12.99-15.83,19.53-23.71.81-.97,1.3-1.93,1.33-3.2.05-2.39.2-4.78.3-7.16.28-6.48.64-12.96.8-19.44.13-5.29.27-10.6-.07-15.87-.36-5.67-1.9-11.11-5.22-15.85-1.06-1.52-2.35-2.87-3.49-4.25.3-1.23,1.25-1.13,2.06-1.19,1.02-.08,2.05-.07,3.07-.07,11.1.02,22.21.04,33.31.07,1.01,0,2.01.13,2.92.19.61,1.22-.27,1.72-.79,2.29-4.48,4.92-7.16,10.72-8.65,17.17-1.59,6.87-1.75,13.87-2.12,20.85-.02.29.21.59.32.88.32-.02.81.08.94-.09,3.66-4.7,7.41-9.35,10.87-14.19,2.99-4.19,5.2-8.83,6.57-13.81,1.21-4.39,1.7-8.75-1.75-12.97,1.12-.31,1.87-.69,2.62-.71,3.24-.04,6.49.05,9.74.05,8.03,0,16.05-.01,24.08-.02h5c-1.44,1-1.9,1.45-2.44,1.67-16.7,7.1-30.26,18.39-42.19,31.78-4.42,4.96-8.46,10.26-12.68,15.4-1.01,1.23-1.48,2.6-1.53,4.22-.25,8.01-.53,16.03-.88,24.04-.24,5.63-.66,11.25-.9,16.88-.3,7.15-.51,14.32-.76,21.48,1.32.85,1.84-.41,2.36-1.08,4.4-5.66,8.72-11.39,13.08-17.08,10.18-13.28,20.4-26.53,30.55-39.83,6.52-8.55,13.04-17.1,19.41-25.76,3.55-4.83,6.3-10.16,7.98-15.95.61-2.12.97-4.34,1.14-6.54.2-2.58-.09-5.13-2.02-7.19-.3-.32-.34-.87-.49-1.27.36-.29.61-.66.87-.66,12.94-.03,25.88-.02,38.8-.02.28,1.05-.42,1.28-1.04,1.55-17.09,7.59-30.88,19.31-42.21,34.03-13.43,17.45-26.75,34.98-40.12,52.47-14.31,18.72-28.62,37.44-42.96,56.14-1.74,2.27-3.65,4.42-6.25,7.54h0l-.02.02Z"/>
  <path class="st1" d="M1572.36-482.49c-.88,0-1.12-.07-1.19,0-14.78,19.42-29.55,38.85-44.32,58.28-.09.12-.11.31-.1.47.02.16.12.32.22.57.42.09.9.29,1.38.29,12.48.02,24.95.03,37.43,0,.79,0,1.57-.29,2.67-.51,1.31-19.75,2.6-39.31,3.91-59.11h0ZM1596.66-520.9c-.4,7.6-.72,14.42-1.12,21.23-.58,9.9-1.25,19.79-1.84,29.69-.75,12.46-1.42,24.93-2.2,37.39-.59,9.39-1.47,18.76-1.9,28.16-.21,4.76-.02,9.6.55,14.33.72,6.01,2.96,11.54,6.89,16.28.53.64.97,1.35,1.73,2.41-1.11.26-1.87.5-2.64.6-.67.08-1.37,0-2.05,0-10.78,0-21.56.02-32.33.03-1.88,0-3.77.03-5.64-.05-.6-.03-1.18-.39-2.01-.69,1.8-2.04,3.49-3.71,4.91-5.59,3.25-4.29,5.16-9.24,6.42-14.43.97-3.99,1.67-8.02,1.78-12.16.12-4.58.53-9.15.83-13.96-1.13-.24-1.93-.55-2.73-.55-13.69-.03-27.38-.02-41.07,0-.67,0-1.34.19-2.17.32-5.75,7.56-12.21,14.71-16.24,23.51-1.41,3.08-2.5,6.38-3.26,9.68-1.03,4.53-.36,7.16,2.27,12.71-.06.14-.09.31-.2.41-.12.11-.31.21-.46.21-11.29.06-22.58.11-33.86.14-.5,0-1-.15-1.49-.28-.1-.02-.14-.25-.21-.39.16-.25.25-.63.48-.74,9.92-4.67,17.95-11.75,25.52-19.53,8.74-8.98,16.19-18.99,23.73-28.93,8.78-11.58,17.51-23.21,26.27-34.81,9.69-12.82,19.4-25.63,29.1-38.45,5.78-7.64,11.55-15.28,17.35-22.9.83-1.08,1.71-2.17,2.75-3.02.55-.44,1.52-.36,2.87-.62h-.03Z"/>
  <path class="st1" d="M1675.72-371.66c-1.5.26-2.16.48-2.83.48-13.02,0-26.04,0-39.06-.05-.27,0-.54-.33-1.1-.7.43-.49.77-1.02,1.24-1.38,9.8-7.46,16.47-17.22,21.16-28.49,12.07-28.98,24.19-57.94,36.27-86.92,2.27-5.46,4.22-11.02,4.76-16.97.26-2.93.58-5.88-.94-8.89-8.39-1.13-16.36.98-24.23,3.89-7.91,2.92-14.88,7.37-21.82,13.27.78-4.76,3.3-8.05,4.85-11.71,1.61-3.81,3.54-7.49,5.16-10.88.56-.3.7-.4.86-.46s.33-.12.51-.12c1.56-.04,3.12-.1,4.69-.1,35.08,0,70.16,0,105.25.02.35,0,.69.04,1.04.09.17.02.34.08.49.16.14.07.25.2.67.57-2.08,7.12-5.06,14.1-7.42,21.28-.14.42-.71.71-1.26,1.23-1.12-3.86-2.97-7.1-5.8-9.77-5.03-4.76-11.2-6.92-17.88-7.6-9.24-.95-10.62-.24-16.25,7.1-5,6.51-8.95,13.68-12.11,21.2-11.5,27.34-22.9,54.73-34.13,82.19-2.09,5.1-3.59,10.53-4.68,15.94-1.1,5.46-1.02,11.06,2.55,16.64h0v-.02Z"/>
  <path class="st1" d="M1878.64-507.71c.08.42.28.79.17,1.03-4.13,8.94-8.28,17.87-12.97,27.95-.15-2.64-.28-4.05-.29-5.47-.05-6.29-1.25-12.31-3.47-18.23-2.91-7.74-8.7-11.79-16.4-13.39-9.71-2.02-19.09-.5-28.15,3.33-5.64,2.39-10.61,5.82-15.25,9.77-10.49,8.92-19.09,19.44-26.24,31.16-7.57,12.41-13.55,25.58-18.02,39.4-3.12,9.65-5.3,19.49-4.74,29.77.23,4.25,1.1,8.36,2.66,12.27,2.5,6.28,7.1,10.5,13.42,12.89,6.51,2.45,13.22,2.57,19.93,1.46,10.88-1.81,20.42-6.7,28.84-13.71,7.14-5.94,13.47-12.7,19.41-19.83,2.23-2.67,4.58-5.24,6.91-7.9.33.43.54.6.51.7-.19.64-.37,1.3-.66,1.9-4.58,9.52-8.99,19.11-12.83,29.27-4.69-2.18-8.43-.15-12.01,2.12-7.46,4.73-15.4,8.34-23.99,10.38-11.17,2.66-22.36,2.68-33.49-.3-16.28-4.37-26.93-17.47-29.01-34.42-1.46-11.9,1.06-23.12,5.1-34.11,5.27-14.34,12.74-27.45,22.57-39.18,9.28-11.08,20.13-20.4,32.6-27.63,11.47-6.64,23.81-11.06,37.15-12.16,6.57-.54,13.14-.49,19.64.72,4.72.88,8.91,3,12.8,5.74,1.65,1.16,3.31,2.32,4.96,3.48,2.84,2,5.9,3.22,9.46,2.8.46-.05.96.13,1.4.21h0v-.02Z"/>
  <path class="st1" d="M2014.38-519.59c-.76.68-1.47,1.42-2.28,2.02-7.28,5.41-12.53,12.47-16.91,20.32-4.61,8.24-7.96,17.02-11.59,25.69-9.35,22.32-18.76,44.62-27.85,67.04-2.28,5.61-3.71,11.6-5.09,17.52-1,4.29-.52,8.66,1.31,12.8.41.92.58,1.93.88,2.96-.72.2-1.22.45-1.72.45-13.07.06-26.14.09-39.21.1-.5,0-.99-.24-1.68-.42.19-.49.22-1.09.53-1.31,9.78-7,16.58-16.39,21.26-27.29,6.72-15.68,13.14-31.5,19.67-47.26.19-.45.22-.97.35-1.59-1.19-1.12-2.65-.7-3.94-.71-14.64-.03-29.29-.02-43.93,0-3.83,0-7.67,0-11.5.04-1.2.01-2.4.17-3.75.27-.63,1.31-1.28,2.53-1.81,3.8-5.73,13.65-11.59,27.24-17.07,40.98-2.05,5.15-3.42,10.6-4.69,16.01-1.17,5-.83,10.03,1.38,14.81.28.6.35,1.3.58,2.16-1.02.18-1.84.45-2.67.44-13.06,0-26.13-.05-39.2-.12-.24,0-.47-.4-.82-.72.29-.36.51-.82.88-1.08,10.27-7.33,16.99-17.4,21.78-28.82,11.59-27.61,23.06-55.27,34.5-82.94,1.92-4.66,3.65-9.41,5.19-14.2,2.26-7.03,2.4-14.04-.99-20.85-.06-.11.08-.33.13-.49.26-.18.52-.51.78-.51,13.42-.06,26.84-.09,40.26-.1.46,0,.92.26,1.58.45-.29.58-.39,1.14-.73,1.37-9.5,6.77-15.96,15.98-20.85,26.35-3.26,6.92-6.19,14.01-9.21,21.04-1.92,4.48-3.74,9-5.58,13.52-.3.75-.43,1.59-.64,2.41,4.34.66,56.67.82,63.25.19,1.39-3.13,2.93-6.42,4.33-9.76,3.43-8.19,6.78-16.41,10.2-24.61,1.88-4.52,3.21-9.18,4.16-13.98.98-4.96.55-9.69-1.49-14.3-.27-.61-.49-1.25-.69-1.77.81-1.26,1.94-.97,2.89-.98,4.7-.01,9.41.08,14.12.08,6.8,0,13.59-.03,20.39-.05h5.11c.13.34.26.68.38,1.02h0v.02Z"/>
  <path class="st1" d="M2058.24-520.43h36.97c.48.99,1.09,1.85,1.33,2.8,5.02,19.71,10.02,39.43,14.99,59.15,3.78,15,7.5,30.02,11.28,45.02.19.77.72,1.45,1.38,2.76,1.74-4.06,3.28-7.53,4.74-11.04,8.62-20.71,17.25-41.41,25.82-62.14,2.75-6.65,4.36-13.54,3.91-20.83-.34-5.44-2.09-10.18-6.22-13.9-.22-.2-.28-.59-.42-.91.47-1.02,1.44-.8,2.24-.8,2.79-.02,5.57.07,8.36.07h29.62c.52,1.47-.53,1.64-1.23,2.02-12.36,6.67-21.38,16.65-27.8,28.93-3.13,5.99-5.46,12.41-8.06,18.67-9.17,21.99-18.3,44-27.45,66-4.81,11.56-9.6,23.13-14.43,34.68-.46,1.1-1.09,2.12-1.89,3.67-.56-.93-1.02-1.42-1.17-1.99-4.73-17.81-9.49-35.61-14.12-53.44-4.29-16.49-8.47-33.02-12.66-49.54-1.58-6.23-3.06-12.49-4.62-18.73-.42-1.68-.98-3.33-1.45-4.91-1.52-.55-2.07.54-2.5,1.39-1.89,3.72-3.85,7.42-5.46,11.26-10.15,24.22-20.19,48.49-30.32,72.71-2.63,6.29-4.79,12.68-5,19.59-.19,6.32,1.16,12.09,5.7,16.79.34.35.54.82.78,1.19-.11.26-.14.45-.25.57-.1.11-.29.21-.43.21-12.88.05-25.76.09-38.64.1-.25,0-.5-.34-1.07-.77.61-.43,1.09-.83,1.62-1.12,12.69-6.85,21.93-17.09,28.29-29.82,3.88-7.76,7.01-15.9,10.36-23.92,7.98-19.1,15.92-38.21,23.82-57.34,2.61-6.32,4.19-12.85,4.04-19.79-.13-5.78-1.83-10.55-6.83-13.84-.82-.54-1.52-1.28-3.24-2.74h0Z"/>
  <path class="st1" d="M2278.73-489.93c0-1.35.05-2.72,0-4.07-.22-4.78-1.11-9.42-3.26-13.74-2.14-4.29-5.33-7.31-10.1-8.59-12.86-3.45-24.89-1.27-36.12,5.48-6.72,4.04-12.45,9.36-17.69,15.18-7.75,8.62-14.16,18.17-19.61,28.36-7.93,14.84-14.6,30.19-18.61,46.59-2.06,8.43-3.27,16.96-1.82,25.67,1.69,10.14,7.61,17.74,17.4,19.47,8.8,1.56,17.54,1.06,25.91-2.68,5.16-2.3,9.82-5.31,14.17-8.88,8.74-7.17,15.69-15.93,21.86-25.29,10.21-15.53,17.79-32.33,23.31-50.04,2.78-8.92,4.75-18.02,4.57-27.45h0ZM2195.37-371.09c-7.06.16-14.35-1.03-21.36-3.96-3.01-1.26-5.74-2.88-8.2-5-7.79-6.71-12.04-15.36-13.83-25.35-1.59-8.85-.62-17.58,1.54-26.19,3.16-12.59,8.48-24.29,15.36-35.26,11.58-18.46,26.99-32.95,45.99-43.6,12.65-7.09,26.29-10.82,40.74-11.34,7.85-.28,15.49.88,22.79,4.18,6.29,2.84,10.94,7.3,14.46,13.07,5.1,8.36,6.96,17.52,6.55,27.23-.61,14.35-5.35,27.52-11.65,40.19-9.23,18.56-22.59,33.73-39.07,46.14-6.9,5.2-14.3,9.7-22.23,13.26-7.29,3.28-20.6,6.94-31.07,6.61h0l-.02.02Z"/>
  <path class="st1" d="M2387.35-369.46c-.28-2.81-.54-4.48-.61-6.17-.27-7.17-.36-14.32.08-21.5.56-9.19.52-18.42.84-27.62.21-5.97.6-11.93.88-17.89.05-1.16,0-2.31,0-3.33-1.41-.68-1.84.21-2.34.81-4.88,5.93-9.76,11.87-14.61,17.82-6.9,8.47-13.84,16.91-20.67,25.44-6.29,7.86-12.45,15.82-18.68,23.74-1.9,2.41-3.81,4.83-5.75,7.2-.27.33-.76.47-1.59.97-.13-2-.39-3.64-.33-5.27.25-7.17.65-14.33.89-21.49.3-9.38.46-18.75.77-28.13.18-5.46.54-10.91.76-16.36.39-9.72.7-19.43,1.09-29.15.18-4.43.6-8.86.7-13.29.12-5.29.25-10.59-.06-15.87-.33-5.68-1.84-11.11-5.15-15.87-1.07-1.53-2.36-2.9-3.82-4.65.82-.33,1.48-.78,2.19-.85,1.35-.14,2.73-.08,4.09-.08,10.59.02,21.18.03,31.77.08,1.28,0,2.56.2,4.51.36-.95,1.16-1.42,1.8-1.96,2.38-3.8,4.09-6.27,8.97-7.75,14.26-1.32,4.76-2.14,9.65-2.36,14.63-.56,12.45-1.25,24.89-1.77,37.34-.46,10.91-.73,21.83-1.12,32.75-.11,3.07-.33,6.14-.46,9.21-.06,1.47,0,2.93,0,4.39,1.78.13,2.19-1.21,2.9-2.07,6.18-7.52,12.32-15.07,18.49-22.6,6.49-7.92,12.99-15.83,19.53-23.71.81-.97,1.3-1.93,1.33-3.2.05-2.39.2-4.78.3-7.16.28-6.48.64-12.96.8-19.44.13-5.29.27-10.6-.07-15.87-.36-5.67-1.9-11.11-5.22-15.85-1.06-1.52-2.35-2.87-3.49-4.25.3-1.23,1.25-1.13,2.05-1.19,1.02-.08,2.05-.07,3.07-.07,11.1.02,22.21.04,33.31.07,1.01,0,2.01.13,2.92.19.61,1.22-.27,1.72-.79,2.29-4.48,4.92-7.16,10.72-8.65,17.17-1.59,6.87-1.75,13.87-2.12,20.85-.02.29.21.59.32.88.32-.02.81.08.94-.09,3.66-4.7,7.41-9.35,10.87-14.19,2.99-4.19,5.2-8.83,6.57-13.81,1.21-4.39,1.71-8.75-1.75-12.97,1.12-.31,1.87-.69,2.62-.71,3.24-.04,6.49.05,9.74.05,8.03,0,16.05-.01,24.08-.02h5c-1.44,1-1.9,1.45-2.44,1.67-16.7,7.1-30.26,18.39-42.19,31.78-4.42,4.96-8.46,10.26-12.68,15.4-1.01,1.23-1.48,2.6-1.53,4.22-.25,8.01-.53,16.03-.88,24.04-.24,5.63-.66,11.25-.9,16.88-.3,7.15-.51,14.32-.76,21.48,1.32.85,1.84-.41,2.36-1.08,4.4-5.66,8.72-11.39,13.08-17.08,10.18-13.28,20.4-26.53,30.55-39.83,6.52-8.55,13.04-17.1,19.41-25.76,3.55-4.83,6.3-10.16,7.98-15.95.61-2.12.97-4.34,1.14-6.54.2-2.58-.09-5.13-2.02-7.19-.3-.32-.34-.87-.49-1.27.36-.29.61-.66.87-.66,12.94-.03,25.88-.02,38.8-.02.28,1.05-.42,1.28-1.04,1.55-17.09,7.59-30.88,19.31-42.21,34.03-13.43,17.45-26.75,34.98-40.12,52.47-14.31,18.72-28.62,37.44-42.96,56.14-1.74,2.27-3.65,4.42-6.25,7.54h0v.02Z"/>
</svg>