<?xml version="1.0" encoding="UTF-8"?>
<svg id="Layer_1" xmlns="http://www.w3.org/2000/svg" xmlns:xlink="http://www.w3.org/1999/xlink" version="1.1" viewBox="0 0 833 210.3">
  <!-- Generator: Adobe Illustrator 30.2.1, SVG Export Plug-In . SVG Version: 2.1.1 Build 1)  -->
  <defs>
    <style>
      .st0 {
        fill: none;
      }

      .st1 {
        fill: #b3a666;
      }

      .st2 {
        clip-path: url(#clippath);
      }
    </style>
    <clipPath id="clippath">
      <rect class="st0" x="55" y="67.15" width="725" height="76"/>
    </clipPath>
  </defs>
  <g class="st2">
    <g>
      <path class="st1" d="M628.82,121.85c3.27-2.32,5.84-5.26,7.68-8.81,4.25-11.12,9.96-22.11,14.05-33.23,1.21-3.29,2.31-7.25.28-10.46h15.73c-.64.81-1.64,1.25-2.41,1.92-5.88,5.19-7.95,14.19-11.28,21.02h22.75c1.41-4.3,3.62-8.33,5.18-12.57,1.2-3.25,2.51-7.35.18-10.37l15.9.09c-.73.55-1.53,1.05-2.22,1.65-3.53,3.08-5.61,7.27-7.48,11.48-4.61,10.33-8.78,20.95-12.84,31.5-.64,2.63-.96,5.45.72,7.78h-16.09l3.98-3.3c1.39-1.56,2.54-3.27,3.57-5.08l8.17-19.15h-22.75l-6.93,16.71c-1.09,3.61-2.46,7.32-.28,10.82h-15.91,0Z"/>
      <path class="st1" d="M174.39,88.15c-4.26,3.18-8.14,4.26-13.32,5.22-.62.12-1.12-.27-1.36.48,2.42.37,4.92.53,7.21,1.47,10.46,4.3,3.01,17.53-3.53,22.01-10.32,7.07-23.48,4.62-35.32,5.06,1.08-1.19,2.77-2.03,3.89-3.21,1.94-2.06,3.72-5.24,4.9-7.8,3.12-6.74,5.72-13.82,8.57-20.68,2.2-5.31,7.95-15.5,5.86-20.98-.19-.49-.57-.8-.64-1.29,5.81.17,11.68-.23,17.49,0,4.48.17,12.71.82,13.38,6.54.61,5.15-3.21,10.27-7.12,13.18h-.01ZM168.69,86.53c2.14-2.73,5.29-9.72,4.61-13.14-.44-2.21-1.84-2.74-3.93-3.07-2.45-.39-4.95-.15-7.4.07l-9.47,22.46c3.26-.07,6.76.11,9.8-1.19,2.35-1.02,4.84-3.14,6.4-5.12h-.01ZM157.17,115.85c3.45-3.24,7.03-9.24,7.25-14.12.27-5.83-4.33-7.04-9.25-7.25-.91-.04-3.35-.27-3.76.51-2.74,6.74-5.59,13.44-8.33,20.18-.37.93-2.11,4.12-1.87,4.88.16.52,1.93.65,2.47.68,5.44.34,9.6-1.26,13.48-4.9h0v.02Z"/>
      <path class="st1" d="M373.17,121.85c-1.19.43-2.28,0-3.41,0-3.78-.08-8.07.44-11.67.2-.28-.02-1.1-.04-1.2-.37,1.84-.7,3.71-2.63,4.96-4.16,2.96-3.6,4.3-7.92,6.1-12.12,3.05-7.14,6.07-14.33,9.01-21.53,1.62-3.99,4.58-9.12,3.34-13.59-.18-.66-.78-1.14-.85-1.82,1.38-.39,2.68-.01,3.97,0,6.17.1,14.02-.7,19.89.63,11.61,2.63,5.06,15.33-.84,20.46-5.24,4.57-11.99,6.38-18.87,6.07-.72-.03-3.32-.64-3.69-.19l-6.34,15.18c-.7,2.78-2.33,6.55-1.43,9.41.23.71.79,1.18,1.01,1.84h.02ZM400.67,71.43c-2.2-2.24-8.02-2.3-10.39-.26l-9.7,22.77c7.17.44,14.04-2.52,17.79-8.68,1.9-3.11,5.33-10.74,2.3-13.83h0Z"/>
      <path class="st1" d="M762.01,87.34c.33.74-1.34,4.29-1.1,4.59,6.15-5.39,18.24-5.29,19.05,4.69.95,11.66-13.34,27.97-25.59,26.68-1.62-.17-3.17-.8-4.18-2.09-.21-.26-.7-1.68-1.02-1.19-.6,1.47-1.12,3.02-1.8,4.46-1.53,3.29-3.95,7.37-4.83,10.98-.55,2.27-.43,4.18,1.55,5.66h-14.24l2.09-1.13c4.4-2.8,6.64-10.06,8.63-14.74,4.31-10.09,8.35-20.31,12.62-30.42.57-2.23.8-3.75-1.45-4.9-.19-.1-.35.1-.26-.38l10.54-2.2h0ZM766.56,114.24c3.33-4.66,8.35-14.95,7.02-20.67-.98-4.2-5.3-4.55-8.73-2.97-5.26,2.42-6.92,8.36-8.97,13.31-1.43,3.44-3.08,7.3-4.3,10.78-.74,2.11-1.27,3.27-.06,5.38,1.52,2.64,5.47,2.19,7.86,1.07,2.65-1.24,5.51-4.54,7.2-6.89h-.02Z"/>
      <path class="st1" d="M567.96,69.17c.03.46-.12.89-.24,1.32-.26.98-.7,2.43-1.05,3.36-3.89,10.5-9.19,21.31-13.52,31.75-1.16,2.8-2.59,5.92-3.6,8.72-.54,1.49-.84,2.05-.38,3.67,1.02,3.52,4.56,2.49,6.92.99.46-.29,2.18-1.92,2.61-1.55-.09.71-.86,1.38-1.39,1.83-3.89,3.29-13.82,5.85-13.97-1.83-3.26,3.75-8.47,6.37-13.57,5.48-6.89-1.19-7.96-7.85-6.39-13.63,2.79-10.27,12.86-21.51,24.49-20.48,1.35.12,2.63.66,3.7,1.47l1.2,1.83c1.3-3.67,3.07-7.21,4.53-10.83.81-2,2.88-6.24,1.98-8.2-.07-.16-.6-.88-.73-.98-.35-.25-.98-.2-1.16-.54l10.54-2.39h.03ZM537.15,96.04c-3.59,4.29-7.83,13.18-8.22,18.73-.26,3.72.66,7.37,5.23,6.84,7.05-.81,9.46-7.82,11.89-13.35,1.26-2.87,2.71-6.2,3.75-9.12.67-1.9,1.84-5.02.92-6.89-.76-1.54-2.49-2.02-4.12-1.98-3.67.1-7.21,3.1-9.44,5.78h-.01Z"/>
      <path class="st1" d="M710.4,94.49l2.22-4.32c2.23-.09,4.34-.09,6.47-.82l-.08.74c-3.3,8.35-7.96,16.61-11.1,24.96-.53,1.41-1.39,3.68-.94,5.15.64,2.07,4.66.69,6.08.14.13-.05.59-.39.4.03-2.7,2.66-10.37,4.16-12.28.07-.72-1.53-.11-2.41-.12-3.93-3.53,6.19-13.14,9.89-18.31,3.49-6.78-8.37,5.05-22.81,11.99-27.58,4.99-3.43,14.32-6.41,15.67,2.06h0ZM703.32,90.69c-5.38.73-10.91,10.31-12.94,14.88-1.68,3.79-5.99,16.29,1.79,15.92,4.17-.2,8.09-5.6,9.87-8.94,2.09-3.93,4.43-9.04,6.16-13.16.37-.87.98-2.05,1.08-2.97.4-3.65-2.31-6.23-5.97-5.73h.01Z"/>
      <path class="st1" d="M445.69,94.49l2.22-4.32c2.24-.09,4.34-.09,6.48-.82l-.08.74c-3.3,8.35-7.97,16.61-11.1,24.96-.53,1.41-1.39,3.68-.94,5.15.64,2.07,4.66.69,6.08.14.13-.05.59-.39.4.03-2.7,2.66-10.37,4.16-12.28.07-.72-1.53-.11-2.41-.12-3.93-3.53,6.19-13.14,9.89-18.31,3.49-6.78-8.37,5.05-22.81,11.99-27.58,4.99-3.43,14.32-6.41,15.67,2.06h-.01ZM438.62,90.69c-5.38.73-10.91,10.31-12.94,14.88-1.68,3.79-5.99,16.29,1.79,15.92,4.18-.2,8.1-5.6,9.87-8.94,2.09-3.93,4.43-9.04,6.16-13.16.37-.87.98-2.05,1.08-2.97.4-3.65-2.31-6.23-5.97-5.73h.01Z"/>
      <path class="st1" d="M272.73,89.91c-1.2,1.92-.77,4.27-.17,6.32,1.77,6.15,5.12,12.39,7.01,18.55l.37.45c.1-.68.37-1.42.62-2.05.58-1.45,3.69-8.3,3.63-9.22-.05-.83-2.2-6.13-2.68-7.27-.74-1.77-1.51-3.47-2.86-4.87l-2.23-1.92h9.62c-1.67,3.15-.07,6.34,1.01,9.36,1.25-2.43,2.42-6.55.38-8.82-.23-.26-.62-.25-.65-.54h9.25l-1.91,1.13c-3.37,2.4-5.05,6.02-6.4,9.79l5.44,14.22,6.71-19.04c.19-2.34.28-4.6-1.81-6.1h9.25l-2.13,1.28c-1.5,1.39-2.86,2.83-3.82,4.65l-9.49,26.74-.28.18c-.4-1.27-1.05-2.45-1.57-3.68-1.66-3.93-2.96-8.03-4.59-11.97-.17-.4-.29-1.03-.69-1.24l-6.57,17.07c-.52-1.14-1.02-2.32-1.48-3.49-3.01-7.72-5.67-16.61-9.1-24.02-1.07-2.31-2.46-4.01-4.51-5.53h9.62l.02.02h.01Z"/>
      <path class="st1" d="M257,90.46l-4.53,2.21c-5.24,3.28-8.74,8.04-12.39,12.86-7.78,10.27-15.2,21.39-23.45,31.25-2.28,2.73-5.65,6.37-9.49,6.37-5.59,0-2.27-7.62,2.76-6.97,2.25.29,1.51,2.41,2.13,2.84.46.32,2.33-1.72,2.69-2.12,3.15-3.47,5.91-7.77,8.74-11.51.16-3.98.29-7.92.4-11.9.14-5.55.42-11.33,0-16.88-.72-9.76-6.96-1.11-8.88,2.66-.55.54-.33-1.26-.28-1.47,1.04-5.06,9.81-12.47,13.95-6.48,3.54,5.13,1.43,18.17,1.7,24.57,0,.2-.12.5.19.45,2.08-3.02,4.23-6.02,6.4-8.98,2.83-3.84,8.52-9.81,8.04-14.8-.09-.96-.57-1.37-1.12-2.1h13.15,0Z"/>
      <path class="st1" d="M499.89,90.46l-3.08,1.44c-3.7,2.17-7.02,5.04-9.73,8.34-9.58,11.66-17.73,25.14-27.6,36.66-2.22,2.59-5.56,6.26-9.25,6.25-5.81,0-2.29-7.67,2.76-6.97,1.76.24,1.36,1.65,2.14,2.84.51.3,2.74-2.29,3.14-2.77,2.89-3.38,5.56-7.21,8.14-10.84l.76-15.76c-.47-4.74.42-10.62-.62-15.2-1.56-6.9-7.04,2.65-8.42,4.39-.17.22-.21.5-.6.42.04-4.78,6.89-11.71,11.79-9.96,3.02,1.08,4.12,6.16,4.3,8.95.39,5.97-.37,12.13-.28,18.08l12.71-17.12c1.07-2.21,2.88-5.82,1.38-8.14-.13-.2-.61-.16-.49-.61h12.95,0Z"/>
      <path class="st1" d="M203.05,114.38c-5.11,5.57-13.21,10.4-21.15,8.1-3.1-.89-5.88-3.96-6.27-7.18-1.56-13.1,14.78-29.8,28.24-26,3.69,1.04,6.04,4.53,6.33,8.22.48,6.06-3.2,12.55-7.15,16.86h0ZM191.77,93.65c-4.79,4.41-11.81,18.26-10.11,24.67.85,3.19,3.94,4.15,6.94,3.47,7.35-1.65,13.9-16,15.45-22.67.88-3.8,1.57-8.88-3.73-9.23-3.27-.21-6.24,1.63-8.54,3.75h-.01Z"/>
      <path class="st1" d="M424.97,67.15c-.36,1.65-.92,3.25-1.52,4.82-5.53,14.47-12.49,28.46-17.9,42.99-.57,1.51-1,2.55-.9,4.21.23,3.56,4.24,2.3,6.21.88.73-.53,3.14-3.22,3.5-3.32.64-.17.69.47.58.94-.37,1.42-4.05,4.12-5.46,4.68-3.3,1.3-10.7,1.69-11.32-3-.41-3.1,2.55-8.68,3.77-11.65,1.55-3.77,3.01-7.53,4.81-11.2,2.3-7.11,6.68-14.28,8.84-21.33.5-1.63,1.05-3.51-.41-4.83l-1.48-.82,11.28-2.39h0v.02Z"/>
      <path class="st1" d="M502.13,103.87c-.49,1.79-1.44,3.56-1.93,5.34-.8,2.96-1.47,7.48,1.13,9.69,4.2,3.55,10.75.53,14.83-1.83.24.25-1.09,1.18-1.31,1.36-2.25,1.81-4.97,3.51-7.82,4.18-9.57,2.21-16.21-3.53-13.75-13.28,2.65-10.52,15.33-23.17,27.07-20.18,4.36,1.11,5.67,5.91,2.85,9.3-4.42,5.31-14.73,5.23-21.08,5.43h0ZM502.85,102.76c5.36-.49,12.4-.93,15.43-6.07,2.64-4.48-.49-7.25-5.12-5.63-3.38,1.17-7.42,6.29-9.21,9.27-.16.26-1.2,2.34-1.1,2.44h0Z"/>
      <path class="st1" d="M738.33,88.07l-1.48,5.14c2.7-2.72,5.88-5.5,10.07-4.94,5.49.74,1.89,9.39-3.32,9.17-2.27-.1-2.62-2-1.46-3.67.41-.6,3.85-2.82,1.48-3.14-4.27-.57-7.88,5.89-9.67,8.95-2.24,6.28-5.74,12.22-7.27,18.68.11.87.14,1.78.6,2.54.15.25,1.3,1.21,1.08,1.4-4.79-.45-9.62-.31-14.43,0l1.91-.95c2.99-1.8,4.55-4.42,5.96-7.49,2.13-4.65,4.34-10,6.2-14.77.91-2.33,2.43-5.2,1.05-7.57l-1.8-.96,11.1-2.39h-.02,0Z"/>
      <path class="st1" d="M312.32,89.36l.19,15.06c2.9-4.16,11.42-3.89,12.02,1.93.4,3.95-.49,8.79.02,12.65.21,1.58,1.19,2.64,2.39,3.59h-8.88c.08-.3.54-.31.83-.55,1-.81,1.59-1.95,1.73-3.23.28-2.36.3-11.2-.24-13.3-.99-3.77-7.09-2.96-7.66.68.35,4-.62,8.52-.19,12.45.2,1.77,1,2.91,2.38,3.96h-8.69c1.32-.91,2.26-2.09,2.41-3.76.73-7.98-.57-17.05,0-25.16-.1-.84-.59-1.9-1.3-2.38-.41-.27-1.03-.13-.92-.65l5.92-1.29h-.01Z"/>
      <path class="st1" d="M590.16,104.23c1.12-1.2,2.42-2.38,4.16-2.57,2.21-.24,5.03-.03,6.57,1.75,2.16,2.5.94,10.07,1.1,13.4.1,2.08.24,4.17,2.23,5.31l-8.51.27c1.15-.93,2.09-1.88,2.39-3.41-.24-4.02.37-8.5.01-12.46-.14-1.44-.62-2.74-2.07-3.27-2.78-1.01-5.6.49-5.88,3.45-.36,3.9.25,8.32.01,12.28l.83,1.93,1.38,1.3h-7.86c-.1,0-.49.4-.65.1,1.4-.91,2.18-2.18,2.4-3.86-.53-7.87.71-16.66.01-24.42-.07-.78-.44-1.77-.96-2.35-.48-.54-1.05-.54-1.45-1.03l5.65-1.28c.39-.11.64,1.14.64,1.37v13.49h0Z"/>
      <path class="st1" d="M82.56,122.21c.11-.34.63-.38.91-.66,1.18-1.17,1.39-2.61,1.5-4.21.42-6.38.39-15.64.01-22.04-.11-1.8-.4-4.11-2.6-4.39l6.01-1.56c.06,0,.28.61.28.64v14.23c1.19-1.06,2.44-2.38,4.16-2.57,12.26-1.38,6.08,11.83,8.34,18.71l1.75,1.85h-8.51l1.45-1.23c.2-.41.45-.81.6-1.25.72-2.18.53-11.42.13-13.91-.71-4.37-7.31-3.5-7.72.51.59,3.63-1.52,12.36,1.11,15.05.35.36.88.45,1.11.83h-8.53Z"/>
      <path class="st1" d="M79.97,89.73l.19,5.33-1.66-1.93c-2.06-1.63-4.75-2.3-7.37-2.08-.99,1.74-1.39,3.94-1.52,5.92-.32,5.17-.32,12.65,0,17.82.15,2.43.62,5.34,2.6,6.97-.68.56-1.41.1-2.12.08-1.01-.02-7.28.31-7.5,0,1.42-1.35,2.13-3.12,2.4-5.05-.42-7.03.57-14.7.01-21.66-.12-1.45-.67-2.82-1.33-4.09-2.46-.22-5.65.63-7.46,2.36-.42.4-.73,1.12-1.2,1.47l.19-5.14h24.79-.02Z"/>
      <path class="st1" d="M337.99,101.7c14.94-1.7,15.03,22.73.51,21.42-11.75-1.06-11.64-20.16-.51-21.42ZM336.26,103.75c-3.1,3.5-3.16,13.28-.27,16.9,1.66,2.08,5.3,2.7,7,.33,2.63-3.67,2.92-13.54.11-17.11-1.59-2.02-5.15-2.02-6.83-.12h-.01Z"/>
      <path class="st1" d="M620.25,103.93c1.17,1.2,1.7,2.89,1.92,4.52l-12.93.21c-.49,3.47-.42,7.92,2.01,10.72,2.63,3.02,7.25,2.32,9.9-.28.14-.03.12.18.09.27-.74,1.79-3.83,3.33-5.69,3.53-9.83,1.07-14.02-11.59-8.09-18.3,3.19-3.61,9.35-4.21,12.8-.67h-.01ZM618.09,107.71c.08-7.66-8.12-7.02-8.69,0h8.69Z"/>
      <path class="st1" d="M109.94,108.45c-.64,4.42-.28,11.41,5.14,12.62,2.65.59,4.6-.5,6.7-1.97-1.09,2.48-4.16,3.76-6.76,3.68-9.87-.28-12.73-13.61-5.82-19.38,4.7-3.92,13.16-1.9,13.52,4.75-.03.08-.61.3-.65.3h-12.13ZM110.12,107.71h8.42c.69,0-.26-3.05-.42-3.43-.6-1.38-1.72-2.2-3.27-2.22-3.1-.03-4.54,2.98-4.72,5.65h-.01Z"/>
      <path class="st1" d="M577.21,102.94c.19,4.5-.24,9.2,0,13.68.05.83.19,2.89.47,3.58.69,1.72,3.67,1.05,5.09.73-2.63,2.94-9.64,3.03-9.44-2.11l-.02-15.59c-.21-.65-2.75-.07-2.75-.4,2.78-.61,4.86-2.41,6.66-4.49v3.21c0,.09.28.43.37.55.32.18,2.33.12,2.86.09.23,0,3.3-.77,2.33.29-.14.15-1.05.45-1.21.45h-4.36Z"/>
    </g>
  </g>
</svg>